<svg xmlns="http://www.w3.org/2000/svg" xmlns:xlink="http://www.w3.org/1999/xlink" viewBox="0 0 271.12 116.06"><defs><style>.cls-1{fill:none;}.cls-2{isolation:isolate;}.cls-3{fill:#395563;}.cls-4{clip-path:url(#clip-path);}.cls-5{fill:#2b2b2b;}.cls-6{fill:#d0d8d8;}.cls-7{clip-path:url(#clip-path-2);}.cls-8{fill:#9ba573;}.cls-9{fill:#eaeeef;}.cls-10{clip-path:url(#clip-path-3);}.cls-11{fill:#597f8e;}.cls-12{opacity:0.5;}.cls-13{fill:#fff;}.cls-14{clip-path:url(#clip-path-4);}.cls-15{clip-path:url(#clip-path-5);}.cls-16{mix-blend-mode:multiply;}</style><clipPath id="clip-path"><path id="SVGID" class="cls-1" d="M67,51.7S15.59,32.91,9.63,37,36.68,60,36.68,64.33s-28.2,24-27.77,29.52S58.24,79.31,67,72.33Z"/></clipPath><clipPath id="clip-path-2"><path id="SVGID-2" data-name="SVGID" class="cls-1" d="M166.5,31.35a37.88,37.88,0,0,0-27.93-19.52s-1.06,14.56-16.93,26.44h29.43Z"/></clipPath><clipPath id="clip-path-3"><path id="SVGID-3" data-name="SVGID" class="cls-1" d="M156.53,31.46c65.74-2,98.45,19.09,98.45,19.09s-5.65,7.58-11.63,10.81A50.18,50.18,0,0,0,257.05,56S247.06,83.82,154,83.82c-45.58,0-47.48-4.31-73-8.71-24.83-3.84-35-4.48-35-12.53s14.6-9.5,29.87-15.25C95.48,40,119.55,32.6,156.53,31.46Z"/></clipPath><clipPath id="clip-path-4"><path id="SVGID-4" data-name="SVGID" class="cls-1" d="M193.93,72.76s-4.37,26.18-22.26,30.11c.88-1,5-5.24,5.24-11s2.84-6.11,5.89-9.09,6.25-6.26,7-9.16A6.14,6.14,0,0,0,193.93,72.76Z"/></clipPath><clipPath id="clip-path-5"><path id="SVGID-5" data-name="SVGID" class="cls-1" d="M136.24,80.69s-3.78,14-18.11,17.89c0,0,5.83-4.41,6.15-7.82-1.24-4.87,5.23-3.31,8.74-9.65A5.42,5.42,0,0,0,136.24,80.69Z"/></clipPath></defs><g class="cls-2"><g id="OBJECTS"><path class="cls-3" d="M67,51.7S15.59,32.91,9.63,37,36.68,60,36.68,64.33s-28.2,24-27.77,29.52S58.24,79.31,67,72.33Z"/><g class="cls-4"><path class="cls-5" d="M49.82,63.67a7.33,7.33,0,0,0-.93.2l-1.08.26-2.08.48c-1.38.3-2.76.57-4.15.79a69.79,69.79,0,0,1-8.42.84c-1.59.07-3.18,0-4.77.07a.23.23,0,0,0,0,.46,40.36,40.36,0,0,0,4.26,0c1.43-.06,2.84-.15,4.26-.29a67.86,67.86,0,0,0,8.39-1.35c.78-.18,1.56-.37,2.33-.58l1.16-.34a6.55,6.55,0,0,0,1.08-.37c.08,0,.05-.19,0-.18Z"/><path class="cls-5" d="M49.48,62.51a80.61,80.61,0,0,0-8.93-.16c-3,.06-5.95.22-8.91.47-.83.06-1.66.14-2.49.22s-1.64.13-2.44.28a.24.24,0,0,0,.06.46c.75,0,1.5-.16,2.24-.23l2.2-.22c1.48-.13,3-.24,4.45-.33,2.94-.18,5.88-.28,8.83-.32,1.66,0,3.32,0,5-.06.07,0,.07-.1,0-.11Z"/><path class="cls-5" d="M51.36,65c-3.3,1.18-6.67,2.2-10.06,3.06a100.61,100.61,0,0,1-10.32,2c-2,.28-3.95.49-5.94.65-.31,0-.31.51,0,.49A95.07,95.07,0,0,0,35.53,69.8a90.15,90.15,0,0,0,10.23-2.6c1.91-.6,3.79-1.29,5.65-2,.11,0,.06-.22,0-.18Z"/><path class="cls-5" d="M54.5,65.79c-2.29.83-4.54,1.79-6.82,2.65s-4.59,1.67-6.92,2.42a143.2,143.2,0,0,1-14.08,3.76c-1.33.29-2.66.55-4,.8s-2.74.44-4.1.7c-.27,0-.21.51.06.47,1.22-.14,2.43-.37,3.64-.59s2.37-.44,3.56-.69q3.61-.75,7.18-1.69a136.73,136.73,0,0,0,14-4.49,67.51,67.51,0,0,0,7.51-3.25c.05,0,0-.11,0-.09Z"/><path class="cls-5" d="M55.11,67.75c-5.5,2.41-11,4.81-16.58,7s-11.17,4.14-16.85,5.93q-4.79,1.52-9.62,2.86a.28.28,0,0,0,.15.53c5.76-1.61,11.48-3.4,17.12-5.39s11.21-4.15,16.7-6.5c3.1-1.33,6.18-2.71,9.19-4.23.13-.06,0-.24-.11-.19Z"/><path class="cls-5" d="M58,69.66c-3.29,1.64-6.56,3.28-9.91,4.79S41.38,77.38,38,78.69s-6.86,2.49-10.35,3.57-7,2-10.6,2.91S9.85,86.77,6.24,87.4l-1.34.23c-.32.06-.18.54.14.49,3.63-.57,7.24-1.32,10.83-2.16s7.1-1.78,10.61-2.85,7-2.25,10.46-3.54,6.79-2.68,10.12-4.19,6.66-3.13,9.87-4.92l1.18-.67a.07.07,0,0,0-.07-.13Z"/><path class="cls-5" d="M62.27,71.1C60.45,72,58.71,73,56.92,74s-3.58,1.9-5.4,2.81c-3.62,1.81-7.31,3.52-11,5.1s-7.55,3-11.39,4.39-7.67,2.54-11.56,3.62S9.68,92,5.71,92.79l-1.49.31c-.32.06-.18.55.14.49,4-.77,8-1.73,11.89-2.78s7.8-2.24,11.64-3.55,7.67-2.76,11.43-4.33,7.4-3.23,11-5,7.22-3.77,10.72-5.85c.44-.26.87-.54,1.28-.83a.07.07,0,0,0-.07-.12Z"/><path class="cls-5" d="M49.19,60.36a12.71,12.71,0,0,0-2.14-.2L44.83,60c-1.45-.06-2.89-.11-4.34-.14-2.93-.06-5.86-.07-8.79,0L29.29,60c-.83,0-1.68,0-2.51.12a.23.23,0,0,0,0,.46c.74,0,1.48,0,2.22-.08l2.17-.07c1.46,0,2.93-.07,4.39-.08,2.9,0,5.8,0,8.69.09l2.41.08,1.26,0a7.45,7.45,0,0,0,1.25,0c.08,0,.12-.14,0-.16Z"/><path class="cls-5" d="M50.62,58.15a51.66,51.66,0,0,0-5.36-1.3q-2.68-.54-5.4-.92a83.45,83.45,0,0,0-10.93-.79c-2.07,0-4.16,0-6.22.18-.31,0-.32.5,0,.49,1.82-.08,3.64-.19,5.47-.2s3.66,0,5.48.15a86.43,86.43,0,0,1,10.87,1.3c1,.19,2,.39,3,.61s2,.49,3,.71a.12.12,0,0,0,.06-.23Z"/><path class="cls-5" d="M53,56.45c-1.15-.35-2.34-.61-3.52-.88s-2.36-.5-3.55-.72c-2.36-.45-4.74-.83-7.12-1.15-4.76-.64-9.56-1.06-14.37-1.24q-4.05-.15-8.1-.07a.24.24,0,0,0,0,.48,141.5,141.5,0,0,1,14.41.39c4.77.37,9.52,1,14.24,1.82,1.33.23,2.66.49,4,.75s2.65.57,4,.8c.12,0,.17-.15,0-.18Z"/><path class="cls-5" d="M57.05,54.43a38.72,38.72,0,0,0-4.36-1.12q-2.2-.5-4.41-.93-4.39-.85-8.84-1.47a163.83,163.83,0,0,0-17.83-1.5q-5.05-.15-10.09,0a.26.26,0,0,0,0,.51,164.68,164.68,0,0,1,17.91.4,172.68,172.68,0,0,1,17.72,2.27c1.64.3,3.26.62,4.89,1l2.48.53c.82.18,1.65.39,2.48.51.11,0,.16-.13,0-.16Z"/><path class="cls-5" d="M59.75,53.54a86.35,86.35,0,0,0-9.58-3.61c-3.27-1-6.59-2-9.93-2.71s-6.72-1.36-10.11-1.81-6.82-.76-10.25-.92-6.87-.16-10.3,0l-1.28.06c-.32,0-.32.51,0,.5q5.12-.28,10.25-.11t10.22.79c3.4.41,6.79,1,10.14,1.68s6.63,1.54,9.88,2.52,6.49,2.14,9.68,3.37l1.19.45c.12,0,.21-.15.09-.2Z"/><path class="cls-5" d="M62.28,53.3a116.91,116.91,0,0,0-10.8-4.63Q46,46.55,40.3,44.83t-11.42-3q-5.76-1.34-11.6-2.26T5.54,38.06L4.1,37.94c-.34,0-.33.49,0,.52,3.92.32,7.83.74,11.73,1.32s7.7,1.28,11.52,2.12,7.63,1.81,11.4,2.92,7.45,2.32,11.12,3.66,7.34,2.87,11,4.44l1.33.58c.14.06.26-.13.12-.2Z"/></g><path class="cls-6" d="M166.5,31.35a37.88,37.88,0,0,0-27.93-19.52s-1.06,14.56-16.93,26.44h29.43Z"/><g class="cls-7"><path class="cls-8" d="M154.2,29.34a1,1,0,0,0-.77.21,6.31,6.31,0,0,1-.72.65,2.2,2.2,0,0,0,1-.28A1.65,1.65,0,0,1,154.2,29.34Z"/><path class="cls-8" d="M155,26.59c.27-.29.65-1.21,1-1.35s.27-.45.51-1c.06-.08.06-1,.13-1.26-.27.17-.31.63-.49.66a4,4,0,0,1-.86,1.39c-.13,0,.16-.58,1.14-2.55-.1,0-.86.55-1,.43s1.13-1,1-1.11a2.13,2.13,0,0,0-1.21-.36c0,.1-.06.08,0,.3-.16,0-.23.22-.36.38-.26.5-.33,1.44-1,1.15,0,0,0,.06,0,.14v0a.84.84,0,0,0-.11.3.77.77,0,0,1-.34,0c0-.22,0-.44.05-.68a7.92,7.92,0,0,0-.53.66.27.27,0,0,0-.19.11h-.05a1.71,1.71,0,0,1,.28-.72c.17-.35.36-.68.28-.72a2.26,2.26,0,0,0-1.27.2c0,.09,0,.1.14.26-.13.11-.13.3-.19.5s0,.31,0,.47a.92.92,0,0,1-.6.22c.09-.26.13-1.2.24-1.54-.41.39-.5,1-.77,1.11l-.12.24a.39.39,0,0,0-.27-.16l.2-.37c.24-.12.53-.11.61-.76h.14c-.09-.15-.16-.17-.2-.14l0-.05v.08l-.05-.05.19-.36a1.91,1.91,0,0,0-.33.26c-.1,0-.17.07-.24.21l0,0c-.14.12-.28.23-.4.35l-.23.18a.35.35,0,0,1,0-.19c.17-.12.41-.1.5-.47l-.1-.1c0-.05.1-.11.16-.16.43-.48.87-.94.8-1a.65.65,0,0,0-.33,0s0,0,0,0a.2.2,0,0,0,.19-.17c.2-.14.32-.24.29-.25a.78.78,0,0,0-.22,0,1.42,1.42,0,0,1,.09-.3c0-.05.1-.91.19-1.14-.2.07-.26.49-.38.47a4.74,4.74,0,0,1-.55,1h-.06a6.91,6.91,0,0,1,.9-2c-.07-.06-.63.25-.69.11s.87-.58.82-.72a1.7,1.7,0,0,0-.8-.71c0,.08-.06.06,0,.28-.12,0-.19.15-.29.26-.23.41-.31,1.28-.76.86,0,0,0,.25-.05.34-.2.12-.59-.33-.77-.09s-.41-.27-.53-.17c-.26.35-.69.13-1.15-.06.08-.11.12-.19.1-.2a3.3,3.3,0,0,0-1.31.41l-.14-.05a1.25,1.25,0,0,1-.55,0c-.4,0-.95-.44-1.23-.22a.7.7,0,0,1-.66.23c-.13-.05-.06.32.07.46a2.35,2.35,0,0,0,.26.22c.28,0,.75.42.94.27.12.05.18-.05.23-.15s.1,0,.21.12a1.63,1.63,0,0,0-.17.2c-.17.08-.34.18-.52.26.05.07.12.19.12.13l.05.12h0c-.28.44-.48,1-.77,1.46a1.88,1.88,0,0,1-1.26.94c-.1,0-.14.38-.18.51a3.57,3.57,0,0,1-1.1.51,2.51,2.51,0,0,0-1.08.54c-.39.32-1.07.17-1.47.46a6.08,6.08,0,0,1-3.38,1.1c.24.47-.18.48-.33.48a8.33,8.33,0,0,1-3.52.51,6.84,6.84,0,0,1-1.58.2,6.53,6.53,0,0,1-1.6-.14,4.79,4.79,0,0,0-1.51,0,4.15,4.15,0,0,1-2,.12c-.26-.08-.58.3-.4.47a2.7,2.7,0,0,0,.4.29,7.77,7.77,0,0,1,1.13.32l.17,0a12.18,12.18,0,0,0-3-.06,7.72,7.72,0,0,1-2.65.24c-.35-.07-.76.33-.53.49a4.53,4.53,0,0,0,.54.27,11.44,11.44,0,0,0,3,.3,2.29,2.29,0,0,0,1.11-.19c.16,0,.5-.09.68.2-1.16.16-2.3.35-3.44.48.07.08.14.21.22.15l0,.23.25,0c-.14.21-.75.1-.52.26a3,3,0,0,0,1.62.16l.29.11L123.7,31l.28-.06c.1,0,.2,0,.3.06a5.34,5.34,0,0,0,1,.81,11.11,11.11,0,0,0,3,.56,21.11,21.11,0,0,0,8.81-.16,1.38,1.38,0,0,0,.69-.21,32.17,32.17,0,0,1-11.12-.26c-.77-.26-1.54-.45-2.3-.73a47.7,47.7,0,0,0,13.16.7l.44,0a.44.44,0,0,1-.18.32l.46-.05c.31,0,.62-.11.93-.17a10.13,10.13,0,0,0,5.36-.3.57.57,0,0,0,.43-.2,19.31,19.31,0,0,1-5,.27l.33-.09h-1a7.08,7.08,0,0,0,1.07-.36l.75,0-.82.31a10.15,10.15,0,0,0,2-.3q1.17,0,2.34-.15c.1,0,.2,0,.3,0a.33.33,0,0,1,0,.3l.31-.05a4.86,4.86,0,0,0,1.33-.45,3.19,3.19,0,0,1,.7.16,5.38,5.38,0,0,0,4.11-.08.28.28,0,0,0,.26-.17,9.32,9.32,0,0,1-4.33,0,3.52,3.52,0,0,0,.78-.24h0a14.48,14.48,0,0,0,3.29,0l.2,0a.56.56,0,0,1,.06.28l.21-.05a2.24,2.24,0,0,0,.86-.39c-.17,0-.34,0-.51,0a1.25,1.25,0,0,0,.61-.61c.07-.2.58-.05.64-.27a2.74,2.74,0,0,1,.49-.58,1.62,1.62,0,0,0,.78.05,1.17,1.17,0,0,1,.5-.37.83.83,0,0,0-.69-.08,4,4,0,0,1-.41.21,2.82,2.82,0,0,0,.33-.36.14.14,0,0,0,.15-.05c.52-.54,1.38-.44,1.62-1.45l.24-.06a.28.28,0,0,0-.34-.05l-.05,0v.09c-.63-.4-.92.69-1.38,1.16a1.53,1.53,0,0,0,.09-.59l.11-.11L155,27s0,0-.07,0a.6.6,0,0,0,.09-.13c-.21-.06-.47-.23-.64-.14s0,.44-.16.41c-.33.05-.5.37-.77.47a3.81,3.81,0,0,0,.23-.7,1.36,1.36,0,0,1,.44-.25l.26.07a.36.36,0,0,1,.14-.2c.62-.13.08-1.58.8-1.39C155,25.16,155,26.15,155,26.59Zm-1.93-.1a.68.68,0,0,1,0-.21l.28-.22h0c-.09.05-.12.19-.12.37Zm-5.47,3.16-.5-.1a.41.41,0,0,1,.09-.2l.18-.12.57.22-.05,0A2.69,2.69,0,0,1,147.59,29.65Zm-1.54.48-.44-.25h.22l.55.17Zm-.1-9.56a1.35,1.35,0,0,1,.33,0l-.3.28-.2-.1Zm6.69,7.89.14,0a1,1,0,0,0-.27.23l-.5-.07.23-.29C152.37,28.4,152.5,28.44,152.64,28.46Zm-1.58,0h0c.1,0,.08,0,0,0l0,0a2.42,2.42,0,0,0,.32-.32l.2.06A3.4,3.4,0,0,1,151.06,28.47Zm-4.78-6.89.28.17-.09.16-.25-.22Zm1.33.8-.23.21-.31-.22.1-.25ZM141,29.84l-.3-.16h0l.52,0-.12.08-.1.05Zm8.09-3.59-.06.13a1.27,1.27,0,0,1-.28.06.85.85,0,0,1,.17-.31ZM138.34,29.5h0l0,0,0,0h0l0,0a12.45,12.45,0,0,1-1.23.36l-.15,0ZM147.26,27c0,.07,0,.14-.07.2h-.14Zm1.09-3.91s0-.09.11-.17l.15.09A.68.68,0,0,1,148.35,23.05ZM147,22.53l.11.09a.94.94,0,0,0,.12.09,14,14,0,0,1-1.33,1.23h0a4.26,4.26,0,0,1,.32-.3A1.66,1.66,0,0,0,147,22.53Zm-7.13,7.79q.29-.09.57-.21h0a4.33,4.33,0,0,1-.54.21Zm5.32-.69.44.17h-.15l-.3-.18Zm.71-.36c.19-.12.37-.25.54-.38s0,0,.07,0l.44.17-.43.36Zm3.18-6.84.09.06,0,.05c0,.07-.07.15-.11.22l0,0-.23-.14ZM148,22.11l-.61-.41c0-.06,0-.12,0-.2a2,2,0,0,0,.75.47Zm-1.16-.77-.29-.17c.05-.1.1-.2.16-.3l.3.26A1.93,1.93,0,0,1,146.8,21.34Zm-1.48,1.91c.2-.33.46-.79.8-1.37l0,0a1.39,1.39,0,0,0,.22.21,8.74,8.74,0,0,1-1.42,2C144.83,24.14,144.92,23.94,145.32,23.25Zm-11,7.52a3.76,3.76,0,0,1-1.38-.14,26.34,26.34,0,0,0,3.2,0,4.68,4.68,0,0,0,.38.39,16.32,16.32,0,0,1-6.7-.4l-.7-.28A12.08,12.08,0,0,0,134.27,30.77Zm2.92.11-.73-.32h.48l.95.2Zm3.84-.44h0Zm.44,0h-.21c.05-.08.09-.16.15-.24a2.61,2.61,0,0,0,.88-.13,1.66,1.66,0,0,1-.73-.07.58.58,0,0,1,.12-.1l.66-.27.2,0c.19.07.38.14.56.19l-.49.26Q142,30.32,141.47,30.48Zm2.1-1a.29.29,0,0,0,.16-.1l.28-.11-.17.12Zm1.61.2v0h0Zm3-.53h.08l0,0Zm2-.21.35-.2.07,0a2,2,0,0,1-.5.26S150.23,28.93,150.23,28.9Zm1.56,0a4.24,4.24,0,0,0,.62,0c-.19.26-.35.53-.79.49-.06,0-.24-.19-.27-.15A1.19,1.19,0,0,0,151.79,28.9Zm2-.9-.27,0a.84.84,0,0,0,.06-.14c-.24,0-.54,0-.7.12h0a.36.36,0,0,1,.08-.24.81.81,0,0,0,.09-.1l.78.26Zm-.14.44-.06.19-.24-.09A1,1,0,0,0,153.66,28.44Zm-1.77-.64-.27-.08c.1-.15.2-.31.29-.47l.17.07A1.27,1.27,0,0,1,151.89,27.8Zm-1.4-3.68c0,.19-.11.14-.17.12a.9.9,0,0,1-.16,0l.14-.25A.7.7,0,0,0,150.49,24.12Zm-.49-1a.16.16,0,0,1-.12,0h0s0-.06,0-.12Zm-.09-2.31s0,.05,0,.08l-.06,0A.61.61,0,0,1,149.91,20.82Zm-1.74.77.1,0,.13.15-.22.16a3.2,3.2,0,0,1-.69-.72l.59.41C148.1,21.58,148.13,21.56,148.17,21.59Zm-.8-2.76c.15.42,0,.33-.05.3a.78.78,0,0,1-.21,0Zm-2.43,5.35a1,1,0,0,0-.35.37l-.28,0A1.18,1.18,0,0,1,144.94,24.18Zm-16.46,4.16c-.15,0-.32,0-.47,0l.15-.06A1.31,1.31,0,0,1,128.48,28.34Zm-1.92,1.87c.54-.05,1.07-.06,1.6-.06a3.2,3.2,0,0,0,.5.47,2.36,2.36,0,0,0,.59.26l-3.87-.41A7.49,7.49,0,0,1,126.56,30.21Zm11.19.86-.11,0c.23-.06.46-.13.68-.21l.58.1Zm5.81-.55a4.43,4.43,0,0,1,.45-.2,3.61,3.61,0,0,0-1.45.22l-.76,0a1.61,1.61,0,0,0,.84-.19c.27-.15.55-.29.83-.42a17.38,17.38,0,0,0,1.91,0,3.11,3.11,0,0,0,.29.33A12.32,12.32,0,0,1,143.56,30.52Zm2.33.21a1.85,1.85,0,0,0,.29-.13,1.77,1.77,0,0,0,.37.12Zm1.05-.21-.37-.14.27-.23c.17,0,.34.09.52.12Zm2.19-.61c-.14,0-.27,0-.4-.06l.21-.14a1.38,1.38,0,0,0-.67.08l-.34-.07,0,0c.06-.06.14-.11.21-.17a1.8,1.8,0,0,0,1.25,0,1.53,1.53,0,0,1-.94-.27l.15-.1c.17,0,.35.06.52.07s.09-.11.16-.1h.16a4,4,0,0,0,.64.25,17.75,17.75,0,0,0,2.63,0A6.24,6.24,0,0,1,149.13,29.91Zm4.19-.78a2.77,2.77,0,0,1-.52.38c0-.16-.1-.43-.05-.52l.21-.2h0a1.6,1.6,0,0,0,.54,0A1.21,1.21,0,0,1,153.32,29.13Zm.14-1.51a.5.5,0,0,1-.36,0,.67.67,0,0,0,.07-.35l.18-.1Z"/><path class="cls-5" d="M137.45,14.58a10.66,10.66,0,0,0,1.33.61c.45.2.9.39,1.35.6q1.31.6,2.58,1.26a49.73,49.73,0,0,1,5,3,50.23,50.23,0,0,1,8.83,7.64,48.13,48.13,0,0,1,4.1,5.12c.22.32.75,0,.53-.31a50.57,50.57,0,0,0-17.49-15.57c-1-.53-2-1-3-1.48-.5-.22-1-.44-1.5-.64a9,9,0,0,0-1.61-.55.18.18,0,0,0-.13.32Z"/><path class="cls-5" d="M135.54,17.35c.36.17.75.27,1.12.41a11.84,11.84,0,0,1,1.17.46A20.27,20.27,0,0,1,140,19.39c1.46.91,2.83,2,4.2,3s3,2.31,4.42,3.5,2.78,2.25,4.1,3.46a10.09,10.09,0,0,1,3,4.22.3.3,0,0,0,.57-.16,9.4,9.4,0,0,0-2.59-4c-1.27-1.24-2.68-2.35-4.06-3.48s-3-2.42-4.53-3.59-2.84-2.21-4.36-3.17a17.63,17.63,0,0,0-2.49-1.36c-.44-.18-.88-.35-1.34-.49a4.35,4.35,0,0,0-1.38-.24c-.1,0-.16.16-.06.21Z"/><path class="cls-5" d="M133.72,19.91c1.36.92,2.83,1.68,4.26,2.5s2.77,1.6,4.1,2.48a27.81,27.81,0,0,1,6.67,5.84,17.68,17.68,0,0,1,1.36,2c.2.34.39.69.57,1a7,7,0,0,0,.56,1.09.25.25,0,0,0,.45-.19,3.78,3.78,0,0,0-.37-1c-.16-.32-.33-.63-.5-.94a16,16,0,0,0-1.2-1.83,21.77,21.77,0,0,0-2.93-3.21,42.58,42.58,0,0,0-7.81-5.36c-1.64-.93-3.28-1.9-5-2.68a.17.17,0,0,0-.16.29Z"/><path class="cls-5" d="M132.12,22.65c1.11.54,2.23,1.08,3.3,1.7a31.6,31.6,0,0,1,3,2,31,31,0,0,1,5.31,5.05c.45.53.88,1.08,1.28,1.65.2.27.39.55.57.83a5.33,5.33,0,0,0,.64.86.24.24,0,0,0,.4-.24,6.56,6.56,0,0,0-1-1.63c-.36-.5-.74-1-1.12-1.47a32.49,32.49,0,0,0-2.5-2.74,31.17,31.17,0,0,0-5.94-4.54,23.45,23.45,0,0,0-3.81-1.84c-.21-.07-.36.28-.16.38Z"/><path class="cls-5" d="M129.54,25.67a10.38,10.38,0,0,0,1.31.72c.45.23.89.47,1.33.71a26.67,26.67,0,0,1,2.48,1.58,25.39,25.39,0,0,1,4.4,4c.37.43.73.87,1.07,1.33.17.22.34.45.5.68a2.85,2.85,0,0,0,.53.66.24.24,0,0,0,.39-.23,4.38,4.38,0,0,0-.81-1.29c-.31-.41-.63-.82-1-1.21a25.29,25.29,0,0,0-2.08-2.19,25.88,25.88,0,0,0-4.91-3.61c-.5-.28-1-.54-1.52-.78a6.48,6.48,0,0,0-1.65-.58c-.12,0-.19.13-.08.2Z"/><path class="cls-5" d="M126.18,27.66a9.14,9.14,0,0,0,1.09.64c.36.22.72.44,1.07.67a20.79,20.79,0,0,1,2,1.48A41.48,41.48,0,0,1,134,33.93c.66.7,1.29,1.42,2,2.11.26.28.65-.13.41-.41-1.14-1.3-2.35-2.55-3.59-3.74a28.27,28.27,0,0,0-3.95-3.21c-.4-.26-.8-.51-1.22-.73a5.36,5.36,0,0,0-1.32-.58.16.16,0,0,0-.12.29Z"/><path class="cls-5" d="M125.49,30.52c.71.36,1.44.66,2.14,1.05a17.68,17.68,0,0,1,2,1.33,15,15,0,0,1,1.75,1.63c.54.59,1,1.24,1.49,1.86.2.25.58-.07.43-.33a10.49,10.49,0,0,0-1.53-1.92,15,15,0,0,0-1.83-1.64,14,14,0,0,0-2.07-1.33,9.23,9.23,0,0,0-2.26-.91c-.15,0-.26.18-.11.26Z"/></g><path class="cls-3" d="M138.57,11.83s0,.14,0,.4c20.33,6.15,24.94,20.48,24.94,20.48h0l3-1.36A37.88,37.88,0,0,0,138.57,11.83Z"/><path class="cls-9" d="M156.53,31.46c65.74-2,98.45,19.09,98.45,19.09s-5.65,7.58-11.63,10.81A50.18,50.18,0,0,0,257.05,56S247.06,83.82,154,83.82c-45.58,0-47.48-4.31-73-8.71-24.83-3.84-35-4.48-35-12.53s14.6-9.5,29.87-15.25C95.48,40,119.55,32.6,156.53,31.46Z"/><g class="cls-10"><path class="cls-11" d="M98.15,60.9a42.66,42.66,0,0,1,5.28-1,21.67,21.67,0,0,0-5.51.06c-2.41.43-4.81.89-7.2,1.25A53.05,53.05,0,0,0,98.15,60.9Z"/><path class="cls-11" d="M195.4,54.07c1.63,0,.95-.06-1.26,0l-.91.06Z"/><path class="cls-11" d="M213.7,58.66a28.57,28.57,0,0,0-6.53-.46c-2.9.17-5.81.37-8.68.48a77.47,77.47,0,0,0,8.83.5A54.1,54.1,0,0,1,213.7,58.66Z"/><path class="cls-11" d="M150.6,58.76a49.79,49.79,0,0,1,6.37-.47,27.34,27.34,0,0,0-6.51-.51l-8.64.49c1.44.15,2.88.27,4.34.35S149.1,58.77,150.6,58.76Z"/><path class="cls-11" d="M70.68,66.09a24.21,24.21,0,0,1,4-.93,12.71,12.71,0,0,0-4.22,0c-1.82.36-3.65.75-5.46,1A30.09,30.09,0,0,0,70.68,66.09Z"/><path class="cls-11" d="M261,48.16c-.42.11-.75,0-.93.45a10,10,0,0,0-1.31-.1l.75-.09c-.26,0-1.14,0-2.36-.07s-2.79-.17-4.36-.34l-1-.12a62.35,62.35,0,0,0,6.93-.23l-.08,0a25,25,0,0,0,2.73-.21,6.43,6.43,0,0,0,2.28-.55c-.42-.21-2.58-.25-4.95-.66-2.14-.34-4.47-.88-5.51-1a15.1,15.1,0,0,1,1.54,0c-.51-.15-1-.26-1.48-.36a24.05,24.05,0,0,0,4.37.44c-.43-.68-6.16-3-7.24-3.1-.42.08-.74,0-.95.35a22.45,22.45,0,0,1-3.77-1.18c0-.29,3.39.48,6.81,1.3a60.51,60.51,0,0,0,6.68,1.59c-.44-.74-6.92-4-8.19-4.29-.5,0-.87-.16-1.15.24a32,32,0,0,0-4.75-.94c-2.26-.24-4.56-.24-6.82-.44a26.47,26.47,0,0,1-2.66-.33c.88.06,1.39.08,1.31,0-.86-.7-11-3.09-12.86-3.28a3.81,3.81,0,0,0-1.36.18,20.79,20.79,0,0,0-2.34-.52,17.38,17.38,0,0,1,2-.45,22.14,22.14,0,0,0-4,.09c-.68-.19-1.35-.42-2-.66,1.88-.15,4-.31,6.41-.48-.72-.21-8.9-.65-9.17-1-.17-.55,12.84.49,12.57.17-.53-.65-6.85-2.44-8-2.53-.45.12-.81,0-1,.45a28,28,0,0,0-4.4,0c-3.3.22-6.6,1.09-10,.71l-5.08-1.29c0,1.05-1.65.56-2.23.41-2.74-.28-5.42-.73-8-1.14s-5.12-1-7.53-1.46c-2.41-.22-4.69-.43-7.17-.75-1.25-.14-2.45-.33-3.63-.54l-3.48-.58a33.59,33.59,0,0,0-7-.57c-1.54.11-3.06.16-4.61.16s-3.14,0-4.81-.14c-1.23-.18-2.72.58-2,.92a16.62,16.62,0,0,0,1.81.59c.61,0,1.23.12,1.86.2-1.8,0-3.56,0-5.44,0-1.17,0-2.29-.09-3.4-.18l-3.27-.21a26.67,26.67,0,0,0-6.49.18c-1.41.28-2.81.49-4.25.66s-2.9.35-4.46.44c-1.17,0-2.44.9-1.71,1.15.58.16,1.17.27,1.75.37,1.53-.09,3.14,0,4.74.07a22.18,22.18,0,0,0,4.76-.12,14.88,14.88,0,0,0,3.55-.47c.53.05,1.61-.17,2.09.41-1.84.15-3.68.32-5.5.58s-3.65.46-5.46.75c.22.13.43.38.7.23l-.08.48s.38,0,.76,0c-.46.45-2.34.41-1.62.66.27.05.53.08.8.11l-9.75.19c-3.13.34-6.12.7-9.29,1a24.5,24.5,0,0,0-5.72-.69c-.32.2-.61.16-.67.63a16.53,16.53,0,0,0-3.34.8c-.33.12-.65.25-1,.39A63.88,63.88,0,0,0,87.29,36.5c-2.17.69-4.31,1.38-6.5,2a19,19,0,0,0-3.79.21c-3.45,1.3-7.17,1.44-11,1.77.38,1-.89,1-1.31,1a68.11,68.11,0,0,1-11,2c-1.65.47-3.22.9-5,1.25s-3.44.57-5.08.83a18,18,0,0,0-4.82,1.26,32,32,0,0,1-3,1.31,29,29,0,0,1-3.26,1c-.89.14-1.6,1.21-1,1.35a11.46,11.46,0,0,0,1.42.11,32.93,32.93,0,0,1,3.6-.61,12.57,12.57,0,0,0,3.55-.87,7.73,7.73,0,0,0,2.54-1c.4,0,1.16-.44,1.68,0-2.69.91-5.28,2-7.89,3,.21.1.43.31.59.13l.08.46.57-.08c-.22.5-1.66.73-1,.87a8.77,8.77,0,0,0,3.8-.73l.71,0-.39-.18.63-.29.74-.05a14.39,14.39,0,0,0,2.5,1.05,11.68,11.68,0,0,0,3.49,0,30.44,30.44,0,0,1,3.44-.25h.66a3.9,3.9,0,0,0-.43.54,1.55,1.55,0,0,0-.15.33.42.42,0,0,0,0,.22c0,.11.12.16.26.15-3.31,1.22-6.65,2.37-10.31,3.58-1.74.48-3.5,2-2.39,1.91.89-.09,1.78-.23,2.66-.39l1.62-.5c.63,0,1.27-.07,1.91-.14,1.95-.55,4-.92,6.13-1.33.68-.13,1.36-.28,2-.42l0,0q-2.22.77-4.41,1.56L48,58c-1.3.27-2.57.48-3.83.66l-1.64.26c-1.6.12-3.18.2-4.7.24-1.9.34-3.7.65-5.69.86-4,.52-7.6.13-11.26,1.2a39.75,39.75,0,0,1-7.3,1.7c-1,0-2,1-1.33,1.24a12.08,12.08,0,0,0,1.54.26c2.6-.36,5.58,0,8.16-.73a9.52,9.52,0,0,0,3-.8c.46,0,1.36-.33,1.86.19-3.13.67-6.19,1.53-9.26,2.29.21.12.42.36.64.19V66l.66,0c-.34.49-2,.56-1.32.77a11.08,11.08,0,0,0,4.34-.36l.78.12-.4-.23.76-.22h.81a15.64,15.64,0,0,0,2.63,1.29c2.59.65,5.21.13,7.81.36a106.81,106.81,0,0,0,22.44-.66,4.05,4.05,0,0,0,1.78-.33c-9.19.32-17.88.79-27.07.17a21.72,21.72,0,0,0,2.75-.7h5.71l.6.11a21.24,21.24,0,0,0,4.06-.13l13.41-.07,1.1,0a1,1,0,0,1-.56.59l1.16,0A38.2,38.2,0,0,0,65,66.16L62.52,66a23.91,23.91,0,0,0,4.9-1.06c1-.42,2.91.15,3.93-.25,4-1.17,8.39-1.22,12.2-2.62h.11a69.28,69.28,0,0,0,7.06-.85c-1.08,0-2.15,0-3.23-.06A45.44,45.44,0,0,0,94,59.84a4.41,4.41,0,0,1,.62-.14c5.56-.07,11.17-.15,16.81-.38s11.53-.46,17.4-.7a11.7,11.7,0,0,0,2.48-.17l1.12-.06,1,0c2.75.09,5.56,0,8.41-.14L139.2,58c2.69-.17,5.38-.36,8.09-.56a9.27,9.27,0,0,0,1.7-.1,11.45,11.45,0,0,0,2.95.07l1.68-.16a233.87,233.87,0,0,0,31.75,1.5,9.89,9.89,0,0,0,2.84-.14c-10.05-.44-19.73-.81-29.42-1.61l2.19-.06a61,61,0,0,0,6.51.19l2.61-.33q8.7.59,17.41,1.14l1.72.14a1.76,1.76,0,0,1-1,.53l1.8.08c2.78.13,5.61.1,8.48,0l-3.81-.44a56.77,56.77,0,0,0,7.85-.56c1.66-.32,4.46.46,6.12.15,5-.58,10.18-.48,15.13-.85.91.11,1.83.19,2.76.26l-1.28-.39,1.54-.17a24.24,24.24,0,0,0,2.56-.08c1.16-.16,3,.84,4.12.68,5.17-.24,10.48,1.1,15.34-.1l1.8.27a4.73,4.73,0,0,0-2.11-.58.43.43,0,0,1-.19-.13l-.41.12c-3.25-1.69-9.57.08-14.26,0-1.34-.1-2.67-.22-4-.36.24-.13.55-.3.87-.45l.52-.12,2.67.08a7,7,0,0,0-.79-.2,36.55,36.55,0,0,0,7.32,0,16.33,16.33,0,0,0-4-1.07c-.71-.06-1.7.64-2.36.45-3.47-.5-6.35.41-9.59-.72a.54.54,0,0,1-.26-.17l1.63-.24c3,.17,5.83-.09,9,.21l1.62.47a6.14,6.14,0,0,1,1.52-.16c4.7.65,5.58-2.42,10-1.06-2.08-.39-5.55,1.09-7,1.79,2.75-.1,8.35-1,11.54-.59,3.88.46,3.42-.24,6.91-.62.74,0,4.06-1.31,5.65-1.53-2.6-.25-4.59.34-5.92.1a98.15,98.15,0,0,1-10.92.71c-.91-.09,2.82-.81,17.22-1.86-.66-.23-8.25-.68-8.5-1-.08-.27,2.9-.15,5.87,0s5.93.37,5.81.2C268,50.08,262.12,48.24,261,48.16ZM212.9,54.94l-.26,0a11.91,11.91,0,0,1,1.88-.28,5.76,5.76,0,0,0,.59,0l4.1.93,1.07.28-1.72.24L217,55.74c.45-.06.9-.13,1.33-.22A45.22,45.22,0,0,0,212.9,54.94ZM49.7,65l-6.5-.18,5-.52c.36,0,.73-.06,1.1-.11l4.89-.48.1,0c2.29.18,4.51.27,6.72.36C57.28,64.4,53.52,64.72,49.7,65Zm-21.42-.28,1.08-.18a28.75,28.75,0,0,0,5.17-1.18l1.38.11-3.55,1.18C31,64.62,29.64,64.65,28.28,64.69ZM61.13,50.05l2-.14c-.49.21-1,.42-1.46.65-.92.18-1.83.39-2.75.62l-1.7.13c.56-.2,1.13-.4,1.69-.57Zm85.32,6.79c-4.84,0-9.65-.09-14.44-.21,3.73-.09,7.45-.15,11.17-.16C144.27,56.59,145.36,56.7,146.45,56.84Zm-46.53,2L97.2,59l.36-.1h1.12l-.56-.17,1.1-.34,1.2-.08.87.27C100.83,58.66,100.37,58.76,99.92,58.85ZM97.07,39l.82-.21a1.25,1.25,0,0,1-.35.16ZM92.39,58.49v.11a20.15,20.15,0,0,1-5,.51c-.33,0-.62-.3-.93-.37,1.44-.12,2.88-.24,4.31-.34l1-.06-.2.06C91.79,58.49,92.07,58.69,92.39,58.49Zm83.47-12-.09,0h-.07ZM139.51,48l1.44-.13.42,0c-1,.09-1.91.17-2.87.22ZM129.4,40l-.73,0,.12-.07A4,4,0,0,1,129.4,40Zm3.27,14,1.22-.16.65.06-1.83.12Zm15.1-1.09c1.7-.19,3.23-.3,4.55-.39l.43.06-2.24.2c-1.26.11-2.54.23-3.83.31A4.77,4.77,0,0,0,147.77,52.91ZM221.2,39.53l-1.29-.44,2.83.26A12,12,0,0,1,221.2,39.53Zm-143,7c.56,0,1.11-.07,1.67-.09l-.19.06a9.23,9.23,0,0,1-3.85.6l-.11,0ZM72.91,59l.31,0c-1.09.39-2.17.8-3.25,1.22-.49,0-1,0-1.45,0C70,59.82,71.47,59.42,72.91,59Zm7,.41-.12.08-.84,0Zm3.19-.1,1.55,0L83,59.34Zm32.28-3.65a15.43,15.43,0,0,0-3.69.23l-3.16.25h-2.68c.66-.19,1.33-.38,2-.55l-.35.21,1.11-.26a81.84,81.84,0,0,0,10.57-.2,33.25,33.25,0,0,1-7-.55l1.89-.25,4.27.09a7.45,7.45,0,0,1,1.9-.22h1l.6,0c1.36.24,2.66.47,4,.66l2.37.18C124,55.32,119.7,55.43,115.42,55.66Zm28.5-.32c-.51-.1-1-.19-1.53-.27.86-.07,1.72-.15,2.57-.24h0l2.23.21,3.2.28c-.44,0-.87,0-1.3.07Zm68.24-3,1.14-.13-.72.23ZM69.32,47.5c-.93.33-1.86.67-2.8,1l-1.3,0c.66-.28,1.31-.6,2-.93C67.7,47.55,68.71,47.06,69.32,47.5Zm3.55.27c.7-.2,1.41-.38,2.11-.55.77,0,1.54,0,2.31,0-1.27.26-2.54.57-3.81.92l-2,.13C71.9,48.12,72.38,47.93,72.87,47.77ZM63.74,61.4c1-.23,2-.47,3-.72.92-.08,1.84-.18,2.77-.31l-.58.22.21,0c-1,.24-2,.45-3,.62Zm12.74-.68a8.06,8.06,0,0,0,2.15-1.13l.76.19c-.42.29-.81.59-1.15.85Zm4.31-.62c.52.11,1,.21,1.64.28l-3,.18Zm20.09-1.87,2.21-.16-.61.17Zm7.75-.28,2.81-.43h.13q9-.12,18,.18c-6.71.25-13.42.51-20.31.61-1,0-2,0-3.08,0Zm48.74-3.66c.15,0,.32,0,.47,0a18.07,18.07,0,0,0,3.87-.31l1.41.21-.8.11c-.86.11-1.72.2-2.58.25Zm50.16-1.42,1.54.35c-.89.14-1.83.25-2.8.35l-1.77-.39Zm24.84-11-1.31-.06-.28-.06a7.85,7.85,0,0,1,1.72.08ZM105.62,37.32l.12-.08,1.49-.2c.53-.07,1.07-.12,1.6-.17Q107.24,37.16,105.62,37.32ZM62.27,64c-.31-.05-.58-.49-.87-.41a32.94,32.94,0,0,0,5.07-.95c1.91-.15,3.82-.3,5.73-.43a1.75,1.75,0,0,1-1,.38,28.84,28.84,0,0,0-4.75,1ZM77,61.84l2.1-.13c-.89.28-1.81.6-2.72.93L72.52,63A25.31,25.31,0,0,0,77,61.84Zm70.44-5.3c1,.08,2.07.17,3.09.31a2,2,0,0,1-.29.16c-1.33,0-2.66.06-4,.07Zm8.4,0,.93,0-.61.08ZM167,55.18,164.53,55a4.68,4.68,0,0,1,1.25-.44h.05c1.84.23,3.71.41,5.62.5l-1.06.14A28.11,28.11,0,0,0,167,55.18Zm6.91-.56-1.07.18c-1-.14-2-.33-2.93-.55.64,0,1.29-.07,1.93-.12l.73-.07,2.52.24a8,8,0,0,1,1.52-.12Zm14.88-.45,2.11-.06,1,.06c-1.23.06-2.47.11-3.72.14Zm3.11,0-.25-.07c1,0,1.83,0,2.52-.05q3.93-.25,7.76-.62c.5.13,1,.25,1.52.36-2.58.17-5.32.24-8,.28-.5,0-1.21,0-2.17,0C192.78,54.14,192.32,54.15,191.87,54.17Zm16.26.58c1,.18,1.91.34,2.86.49a5.29,5.29,0,0,1-2.05.45c-5.14-.06-9.22,1.22-14.12.52-.49-.05-.82-.56-1.31-.5C198.57,55.74,203.11,55,208.13,54.75Zm10.37-.52a20,20,0,0,0,2.15-.6l1.07.29c-.62.22-1.19.44-1.69.64Zm29.58-4.85q2.37-.29,5.1-.57h.64A37.08,37.08,0,0,1,248.08,49.38Zm3.63-4.09-.3,0,.48,0A1,1,0,0,0,251.71,45.29Zm-13.12-2.88,1.17.09c-.63,0-1.26,0-1.89,0l-1-.15ZM164.21,27.94l-1.69-.08.56-.05C163.36,27.86,163.79,27.87,164.21,27.94Zm-22.1,2.43c1.82,0,3.61,0,5.37.14.69.13,1.36.28,2,.44a6.83,6.83,0,0,0-1.17-.06c-.23.09-.45.12-.62.19L145,30.9a.46.46,0,0,1-.27.57c-2.1-.26-4.21-.47-6.34-.61A30.74,30.74,0,0,1,142.11,30.37Zm-9.06,1.54.89-.15,1,.11h0l-1.84.05ZM61.72,47.07l-.68.34c-.4-.09-.8-.18-1.19-.29ZM47.14,48.72c1.35-.35,2.7-.63,4-.86,2.79,0,5.54.3,8.27.33l-1.19.59a135.93,135.93,0,0,0-13.79,1.06A21.13,21.13,0,0,1,47.14,48.72Zm.59,2.92c-1.78-.12-3.57-.15-5.37-.26q6.36-.43,12.62-.91l-1.7.94a1.22,1.22,0,0,0-.19.12C51.33,51.6,49.55,51.64,47.73,51.64Zm7.33.56h.38l-.92.3h0C54.7,52.39,54.87,52.29,55.06,52.2Zm-24.48,14a2.89,2.89,0,0,1-1.06.58c-1.84-.25-3.68-.43-5.53-.69,1.91,0,3.83.07,5.74.09v.16ZM60.41,65q3-.25,6-.59l1.39.1C65.32,64.73,62.87,64.88,60.41,65Zm7.25-.23.63-.57q2.92-.34,5.87-.75a26,26,0,0,1-2.76.79C70.15,64.4,68.9,64.58,67.66,64.73Zm78.7-7.54h0Zm27.79-1.36.24,0,2.68.12a9.92,9.92,0,0,0-3.18-.4.76.76,0,0,1-.29-.11l-.59.16c-.19-.06-.4-.09-.6-.14L174,55.3c1.77-.1,3.54-.1,5.29-.17l2.6-.13.7.14c7,.84,13.68,1.25,20.61,2.13C193.39,57.3,183.76,56.66,174.15,55.83Zm28.78,1.69a9.61,9.61,0,0,1,2.59-1c3.33-.22,6.89-.26,10.17-.63.66.08,1.33.17,2,.24l.09,0c-3.06.48-6.18,1-8.95,1.2C206.85,57.46,204.89,57.49,202.93,57.52Zm26.89-1.27-.2,0h.07Zm-3-.92a25,25,0,0,0-2.57.05c-1.11-.2-2.22-.42-3.32-.64l2.51-.36C224.52,54.69,225.64,55,226.77,55.33Z"/><path class="cls-11" d="M236.81,58.53a14.45,14.45,0,0,0-4.36-1c-2-.07-4-.13-5.91-.28a33.2,33.2,0,0,0,5.91,1.26A28.77,28.77,0,0,1,236.81,58.53Z"/><path class="cls-3" d="M162.13,48.94a19.47,19.47,0,0,0-5.28-.76c-2.37.07-4.73.12-7.07.13a52.31,52.31,0,0,0,7.15.86A36.72,36.72,0,0,1,162.13,48.94Z"/><path class="cls-3" d="M110.17,46.65l-.7.16,1.74-.26C112.15,46.4,111.65,46.44,110.17,46.65Z"/><path class="cls-3" d="M120.32,50.66a31.23,31.23,0,0,1,4.52-1,15.76,15.76,0,0,0-4.75,0c-2.06.4-4.11.83-6.16,1.16A39.11,39.11,0,0,0,120.32,50.66Z"/><path class="cls-3" d="M260,41.92c-.45.08-.8-.05-1,.38l-.4-.06c-.34-.13-.67-.26-1-.36l1.47-.05c-.67-.24-8.52-1-8.76-1.37-.13-.56,12.32,1,12.08.71-.37-.52-4-1.86-6.16-2.51H257a40.08,40.08,0,0,0-5.71-.91,4.08,4.08,0,0,1,.51-.16,5.26,5.26,0,0,0-1.71-.06l-3.14-.26-.95-.07c.95-.12,2.11-.25,3.55-.39,2.25.22,4.92.45,8,.91a46.77,46.77,0,0,0-4.63-1.38c-1.47-.38-2.9-.77-3.69-1,.52.06,1.13.15,1.75.24a27.48,27.48,0,0,0,3,.41l1,.22c3.15.81,6.29,1.65,6.19,1.46-.38-.72-6.36-3.86-7.54-4.11-.47,0-.82-.13-1.08.27a12.54,12.54,0,0,0-1.37-.35,2.09,2.09,0,0,0-.54-.25c-.13,0-.23,0-.32.09-.69-.12-1.39-.21-2.18-.32-2.11-.17-4.24-.12-6.35-.25a15.33,15.33,0,0,1-6.23-1.39,1.92,1.92,0,0,0-.86.06,2.85,2.85,0,0,0-1.19-.49,8.69,8.69,0,0,1-3.26-.61,26.42,26.42,0,0,1,3.29-.38,29.89,29.89,0,0,0-5-.33l-1.73-.84c2.13,0,4.52.06,7.2.17-.42-.14-3.07-.59-5.66-.95a36.22,36.22,0,0,1-5.26-.94c-.09-.28,3.74.13,7.57.59s7.62,1,7.48.86c-.6-.69-8.1-3.23-9.5-3.39-.55.07-1-.07-1.22.36a37.44,37.44,0,0,0-5.27-.45c-2.49,0-5,.21-7.47.24h-.79a11,11,0,0,0-4.16-1.41,12,12,0,0,1-4.17-.59c-.53-.26-1.27.37-1,.77a7.25,7.25,0,0,0,.62.62l-.19,0a41.94,41.94,0,0,1-5.6-1,27.91,27.91,0,0,0-5.7-.75c-2.36-.14-4.76-1.16-7.14-1.25-5.67.09-11.28-1-17.1-1.92.14,1.05-1.76.68-2.4.56-6-.21-11.85-.85-17.17-1.57-2.65-.07-5.16-.14-7.87-.33s-5.3-.49-7.83-.73a41.12,41.12,0,0,0-7.62-.22c-1.68.19-3.34.3-5,.37s-3.42.12-5.25.07c-1.35-.12-3,.7-2.13,1a19.34,19.34,0,0,0,2,.51c1.79,0,3.66.28,5.54.46a29.38,29.38,0,0,0,5.61.2,18.51,18.51,0,0,0,4.22-.24c.62.08,1.92-.07,2.44.53-4.39.07-8.74.38-13.07.61.25.15.47.41.8.29l-.14.47.89.08c-.59.42-2.8.23-2,.54a21.06,21.06,0,0,0,5.92.4l1,.25-.48-.29,1.08-.09,1.11.17c.57.35,1.11.69,1.68,1a26.36,26.36,0,0,1-3.08.33c-2.06.14-4.13.2-6.26.26.33,1-1.05,1-1.53,1-2.09.45-4.19.76-6.23,1s-4,.41-6,.52c-1.83.4-3.58.77-5.49,1-3.84.64-7.37.38-10.85,1.54a35,35,0,0,1-7,1.86c-1,.06-1.87,1.07-1.23,1.26l.45.09-.87.14A43,43,0,0,0,78,34.06c-1.62.55-3.24,1-4.88,1.52-3.55.62-7,1.07-10.36,2.64-2.72,1.38-5.43,2.64-8.55,4.06a3.26,3.26,0,0,0-1.42,1.09c-.29.41-.26.71.1.7.64-.09,1.27-.24,1.88-.38,3-1.39,6.58-1.87,9.52-3.24A15.46,15.46,0,0,0,67.76,39c.53-.11,1.57-.59,2.19-.15-2.13.72-4.23,1.55-6.3,2.46-1.07.22-2.14.44-3.2.7a37.06,37.06,0,0,0-4.31,1.37c-1.83.75-3.67,1.42-5.54,2.08s-3.8,1.34-5.86,2c-1.55.36-3.1,1.73-2.09,1.73.79,0,1.58-.12,2.38-.23l.91-.25a.61.61,0,0,1,0,.13c-.63.27-1.27.52-1.92.77-1.1.45-2.24.85-3.44,1.23l-2,.44c-1.95.41-3.86.71-5.7,1-1.73.53-3.37,1-5.19,1.44-3.64.93-7.07.94-10.31,2.35a31.29,31.29,0,0,1-6.52,2.38c-.91.13-1.7,1.2-1.06,1.34a10.39,10.39,0,0,0,1.46.12c2.05-.51,4.45-.51,6.54-1.17-.09.25-.05.47.19.53-1,.41-2.09.83-3.14,1.23.21.1.44.31.62.13l.06.46.61-.08c-.25.51-1.76.73-1.13.88a9.36,9.36,0,0,0,4-.78l.75,0-.41-.18c.23-.09.45-.19.67-.3l.77-.07a13.61,13.61,0,0,0,2.62,1c2.51.37,4.87-.41,7.32-.46a94.48,94.48,0,0,0,13.69-1.36A89.68,89.68,0,0,0,54,58a3.09,3.09,0,0,0,.89-.19,34.7,34.7,0,0,0,4.1-.76h-.32c.56-.13,1.12-.27,1.67-.43l-1.78,0a20.56,20.56,0,0,0,2.55-.84,8,8,0,0,1,2.7-.19c-1.16.38-2.31.76-3.47,1.07h.49c-.62.15-1.23.31-1.84.43a25.18,25.18,0,0,0,5.13-.24,19.5,19.5,0,0,1,3.55-1,6.21,6.21,0,0,0-1.52-.17,10.11,10.11,0,0,1,1.57-.48,5.93,5.93,0,0,0-2.34,0c.81-.24,1.64-.45,2.47-.63l.75-.13a12.93,12.93,0,0,0,2,.59,18.07,18.07,0,0,0,4.41-.12c1.46-.16,2.94-.36,4.4-.39a179.9,179.9,0,0,0,25.22-2.35,5.24,5.24,0,0,0,2-.42c-10.85.78-21,2-32,2.31-1.2,0-2.4,0-3.6,0h.1c.85-.17,1.7-.32,2.53-.52,10.84-1,21.61-1.86,32.36-2.34l1.24,0a1.18,1.18,0,0,1-.63.61c.43,0,.86-.06,1.3-.09a51.06,51.06,0,0,0,6.07-.75l-2.79-.1a33.44,33.44,0,0,0,5.55-1.2c1.16-.45,3.27.08,4.42-.33,1.33-.35,2.68-.61,4-.84s2.74-.39,4.1-.6l1-.15q4.42.22,8.91.3a7,7,0,0,0,2.31,0l-8.63-.73c.77-.17,1.54-.36,2.28-.59,1.93.21,3.86.41,5.79.63l1.38.18a1.31,1.31,0,0,1-.82.51l1.46.13c2.25.23,4.55.28,6.88.29l-3.07-.57a39.83,39.83,0,0,0,6.38-.27c1.37-.24,3.62.63,5,.41s2.77-.16,4.16-.17c1.47.2,3,.39,4.44.55a5.72,5.72,0,0,0,2.14.13l-3.48-.65c1.18,0,2.35,0,3.51,0l.78.18a1.19,1.19,0,0,1-.81.43l1.35.26a56.77,56.77,0,0,0,6.35.8c-.94-.25-1.87-.53-2.8-.79a33.67,33.67,0,0,0,5.93.19c1.28-.15,3.3.88,4.58.73,5.74-.17,11.65,1.23,17,.09l2,.3a5.78,5.78,0,0,0-2.35-.61.5.5,0,0,1-.21-.13l-.46.12c-3.62-1.74-10.63-.05-15.84-.22-1.49-.1-3-.24-4.44-.41a6.32,6.32,0,0,1,2-.72c3.2.12,6.69.58,9.71.18-.37-.1-.74-.22-1.1-.34.76,0,1.51.09,2.24.18A24.32,24.32,0,0,0,188,47a6.06,6.06,0,0,1,.94,0,9.81,9.81,0,0,0,3.73-.16l1.71.14c-.84.28-1.57.57-2.09.78,1.53,0,3.85-.25,6.23-.4a60.63,60.63,0,0,0,12.08.26l2.7.41a9.21,9.21,0,0,0-2.09-.6c.87.13,1.73.25,2.61.36a5.84,5.84,0,0,0,.93.17c1.1.21,2.2.4,3.3.58a3.84,3.84,0,0,0,1.56.16l.4.06.74.2a32.33,32.33,0,0,0,4.45.8l1.17.31a24.4,24.4,0,0,0,4.35,1.14,21.36,21.36,0,0,1,3.77.12,6.63,6.63,0,0,0-1.24-.54l.62.08a11.08,11.08,0,0,0-2.57-.86,1.15,1.15,0,0,0,.37,0c4.2-.12,8.44,1.15,12.47.41l1.26-.09,1.1.21a2.9,2.9,0,0,0-.51-.29l.58-.08,1.88.38a5,5,0,0,0-2.19-.71.4.4,0,0,1-.19-.14l-.45.1c-3.34-1.9-10.09-.47-15-.77-.56-.06-1.12-.14-1.67-.21a2.61,2.61,0,0,1,1.08-.4c2.5.15,5.19.62,7.57.26-.26-.1-.53-.21-.79-.33.27,0,.53,0,.79-.05-.82-.27-1.61-.62-2.44-.89.12,0,.25,0,.36,0a6.27,6.27,0,0,0,3.54-.32c.59,0,1.18-.06,1.76-.13-1.05.3-2,.65-2.62.88.2,0,.42,0,.65,0l-.75.36c2.38,0,7.29-.79,10-.34a9.21,9.21,0,0,0,2.72.15c3.58.58,3.32-.1,6.88-.21.79,0,4.37-1,6.06-1.1-2.7-.46-4.82,0-6.21-.34a11.48,11.48,0,0,1,1.57-.39c-2.25-.3-4,.25-5.15,0-2.15.22-4.63.38-6.53.46a14.68,14.68,0,0,1-1.52-.09c-.48-.08.27-.24,3.06-.39,1.39-.07,3.28-.14,5.79-.21s5.63-.1,9.45,0c-.68-.3-8.69-1.32-8.93-1.65-.07-.28,3.08.06,6.22.44a48.72,48.72,0,0,0,6.14.68C267.24,44.39,261.14,42.07,260,41.92Zm-14.28,4.45a6.19,6.19,0,0,0-1.26-.1,2.9,2.9,0,0,1,.5-.13C245.2,46.21,245.45,46.28,245.71,46.37ZM216.3,47.74l-2.44-.63h1.5l.1,0,1.19.32A.89.89,0,0,1,216.3,47.74Zm-37-1.38c2,0,4.05,0,6.19.21l.63.17C183.82,46.63,181.54,46.49,179.28,46.36Zm-14.05-.51c-.75-.18-1.49-.37-2.26-.51l-1.2-.28a7.85,7.85,0,0,1,1.22-.12h0l1.53.11a11,11,0,0,0,2.85.11l-2.1-.27a8.45,8.45,0,0,0,.92-.14l1.34.37,0,0-.12,0h.05l-.78.33c.5,0,1.07-.09,1.69-.16l3.2.84a31.38,31.38,0,0,0-3.77.21ZM155,45.78c-.85-.17-1.7-.33-2.55-.51l-.94-.2,3.77-.22,3.93.85a1.77,1.77,0,0,1-.78.06A26.06,26.06,0,0,0,155,45.78Zm-36.95.9c1.14.13,2.29.24,3.44.34a1,1,0,0,1-.4.07,29.54,29.54,0,0,0-5.09,1,15.87,15.87,0,0,1-5,.6c-.37,0-.68-.48-1-.38,1-.12,2-.29,3-.5s1.91-.41,2.86-.64Zm-6.8-.13-1.74.26q-2.89.57-5.9,1a3,3,0,0,0,.83-.23c2.46-.45,4.48-.77,5.77-1,.56-.11,1.1-.24,1.65-.36l1.6-.16.31,0Zm-58,11.24a195.87,195.87,0,0,1-20.3,2.05c-1.25-.06-2.51-.06-3.77-.08C37,58.93,44.79,58,52.46,57.4l1-.06A.9.9,0,0,1,53.24,57.79ZM23.33,58.94a22.86,22.86,0,0,1,2.81-1.21l1.54-.4c-1,.45-2,.92-2.93,1.4Zm8.79-2c.34-.11.69-.2,1-.3,3.77,0,7.49.26,11.23-.6a16.9,16.9,0,0,0,3.85-.62,10.19,10.19,0,0,1-3.82-.19,2.59,2.59,0,0,1,1-.3l.38,0,.71,0c.83.12,1.63.27,2.42.34,2.15,0,4.21-.08,6.27-.08l3.07,0L60,55.2c-4.48.71-9.06,1-13.72,1.27-5,.32-10.12.64-15.14,1.47L30,58.06A15.31,15.31,0,0,1,32.12,57ZM62,44.2l.55-.19a12.69,12.69,0,0,1,1.86-.38l-.58.2c-1.43.49-2.9,1-4.43,1.4l-.29.06C60.05,45,61,44.58,62,44.2Zm82.68-.63-.35-.09,1.5,0,.27,0-.47,0,.85,0h0l-.88,0Zm-73.92,7-.11,0,.08-.06Zm143.77-7.2-.13,0h.36l.09.06Zm.69-8.47h.56l.53,0,.22.14C216.08,35.06,215.65,35,215.21,34.92Zm3,.4-.37-.22.56,0,1.65.11.35.19Q219.36,35.42,218.26,35.32Zm5.3.5-.47-.29,1.35.22.33.12Zm-9.22,9.37.7.06-.41,0Zm19.39-7.07a10.77,10.77,0,0,1,1.74.26l.09.06A16.7,16.7,0,0,1,233.73,38.12Zm3.4-1.76-.29,0h.33Zm-.61,0a14.69,14.69,0,0,0-2,.17l-1.09.22c-.56-.11-1.11-.2-1.64-.26.33-.06.64-.13.94-.2C234,36.35,235.28,36.36,236.52,36.35Zm-73-10.24c.44,0,.88.1,1.33.12l-.78-.11c.66.05,1.31.09,2,.11-.46.43-1.84.22-2.38.15-.36,0-.71,0-1.06,0l.08,0A4,4,0,0,0,163.49,26.11Zm-105.68,28q1.15-.3,2.28-.66c1.11-.35,2.22-.72,3.39-1l.16,0,1.69-.07,0,0L63.61,53c-.32.1-.64.21-.94.33l-2.27.8.13.06a6.42,6.42,0,0,1-2.66.41c-.21,0-.43-.28-.63-.35C57.43,54.17,57.63,54.13,57.81,54.07Zm97.73-10.5-1.75-.43,1.74-.13c.7.15,1.41.29,2.13.4C157,43.48,156.27,43.53,155.54,43.57Zm2.75-.24c-.26-.06-.52-.14-.77-.22l1.25.16Zm48.49,1.86h.5l1.52.36-.58,0Zm34.64-7.12a6.14,6.14,0,0,0-1.3.53l-.64,0h-.32c.41-.21.79-.46,1.18-.65Q240.9,38,241.42,38.07ZM56.9,54.75c.65,0,1.3,0,2,0a3.48,3.48,0,0,1-.44.1,7.63,7.63,0,0,1-2.1.15.81.81,0,0,1-.43-.2Zm119-10.19.54,0,2.5,0c.79.17,1.57.35,2.35.54L179.14,45C178.05,44.85,177,44.71,175.86,44.56Zm12.44-.12-.07,0h.07Zm17.15,1.23.25.07h0l-.4-.08ZM156.86,25.24a.34.34,0,0,0,.19.15q.49.15,1,.27l-.58.1-1.64-.3Zm-84,14.21,0,.14-1,.2Zm-11.27,16h0Zm2.3-.43h0l-.14,0Zm1.73-.45h.08l-.35.12Zm.29-.11c.42-.16.85-.3,1.29-.43h0c-.42.16-.83.32-1.24.46Zm10.53-3.83-.3,0c1.12-.23,2.22-.44,3.32-.62,1.4,0,2.79,0,4.17,0C81.2,50.2,78.81,50.42,76.42,50.64Zm14.91-1.49c-.26,0-.53-.09-.79-.15l.93,0A.62.62,0,0,1,91.33,49.15Zm30.76-5.38,1.15-.3.36,0c-.26.15-.52.29-.8.42Zm6.53.82c.37-.19.71-.39,1-.59l1.15,0-1.16.7Zm2.27-.61-1-.11c.37-.23.74-.45,1.12-.65a4.84,4.84,0,0,1,1.31,0h.16c-.35.15-.7.32-1,.49Zm9-.5h1.58l.43.12-3,0A4.05,4.05,0,0,0,139.87,43.48Zm8.24,1.72c1.24.28,2.49.55,3.75.8a17.7,17.7,0,0,1-5-.29c-.4-.07-.66-.59-1.06-.55C146.59,45.2,147.35,45.2,148.11,45.2Zm35.71-.1a4.47,4.47,0,0,1,1.11-.17l.75,0C185.08,45,184.46,45.08,183.82,45.1Zm17.29.51,1.33.26a17.13,17.13,0,0,1-2.06,0C200.06,45.82,200.24,45.74,201.11,45.61ZM217,46l1.34.08,2.29.23c2,.58,4,1.19,6,1.89-1.66-.27-3.32-.57-5-.89S218.56,46.49,217,46ZM231,47.31a18.69,18.69,0,0,0-2.71-.27l-.64-.2a23.16,23.16,0,0,0,2.36-.11c.91,0,1.83.09,2.78.21l.15,0,.06,0C232.28,47.12,231.49,47.49,231,47.31Zm-5.29-18.12a19.32,19.32,0,0,1-2-.47l3.09,0C226.6,29.74,225.9,29.33,225.66,29.19ZM137.79,21.7c2.16.07,4.28.21,6.37.4,1.13.23,2.24.48,3.34.75l-.37.21A22.46,22.46,0,0,1,143,23c-.74,0-1.49-.06-2.23,0q-3.74-.54-7.51-.95C134.77,21.84,136.26,21.71,137.79,21.7Zm-8.33,1.14,3.46.52-.61.14Zm-33,8.08-1.24.17.09,0A8,8,0,0,1,96.5,30.92ZM46,48.68l.82-.22-.39.18ZM23.77,60.3a.93.93,0,0,1-.3.29c-.8,0-1.6,0-2.41-.05C22,60.47,22.87,60.39,23.77,60.3Zm1.77.33a7.91,7.91,0,0,0,.79-.35l.66,0-.38-.17a2,2,0,0,0,.25-.14c.4,0,.81-.07,1.21-.12a15.1,15.1,0,0,0,1.5.65c-.94,0-1.87.1-2.82.13ZM94,50.49c-6.38.25-12.81.56-19.22,1.29l-.62,0,.27-.15c4.27-.41,8.55-1,12.85-1.57a46.08,46.08,0,0,0,9.81-.63,15.4,15.4,0,0,1-3.39,0c-.36,0-.71-.08-1.06-.13a54.47,54.47,0,0,0,5.63-.63l-1.41-.07a3.26,3.26,0,0,1,.85-.16l1.07-.1.83.13-1.34.2c1.15.07,2.29.11,3.43.09l.21,0c2.59.07,5.1,0,7.62.06,1.25,0,2.5,0,3.76,0s2.52.09,3.8.17C109.42,50,101.75,50.19,94,50.49Zm31-2.78a34.39,34.39,0,0,1-3.85,1c-1.41.21-2.82.42-4.22.6a6,6,0,0,1,1.73-1.18c1.51-.31,3.11-.51,4.66-.8l.69-.14,2,.15Zm4-1.23-.92.28-1.46-.13c.39-.11.79-.23,1.17-.37a17,17,0,0,0-4.4-.15,1.74,1.74,0,0,0-.58.2l-1.91-.18c.23,0,.46-.08.69-.1l1.8.08A6.65,6.65,0,0,1,125,45.6l.39,0,5.15.51C130,46.19,129.52,46.33,129,46.48Zm9.29-.7c.22,0,.45,0,.68,0a5.08,5.08,0,0,0-2.3-.16h-.05a.7.7,0,0,1-.2-.08l-.09,0q-2.68-.31-5.37-.66c1-.28,2-.59,3.06-.88l1-.27c.62.19,1.22.37,1.84.52,5.7,1,11.14,1.67,16.75,2.83C148.48,46.84,143.39,46.36,138.31,45.78Zm19.92,1.65c-1.61,0-3.21,0-4.8-.1a12,12,0,0,1,1.56-.74c1.53.27,3.07.53,4.61.76Zm.07-1c1.35,0,2.72,0,4,0l2,.43-2.41.3Zm15.37,1.09c.64-.07,1.28-.17,1.91-.29,1.52.4,3,.81,4.57,1.27Q176.9,48.1,173.67,47.52Zm2.41-.4.31-.06,2.16.21a6.83,6.83,0,0,0-2.56-.51.58.58,0,0,1-.23-.13l-.49.14a8.35,8.35,0,0,0-1.69-.44c-.15-.16-.3-.32-.5-.31a40.67,40.67,0,0,0,5,.32c1.76.37,3.54.72,5.35,1C180.83,47.16,178.5,47.47,176.08,47.12Zm18.77-1a8,8,0,0,1,5.26-.14,7.32,7.32,0,0,0-2.45.07Zm15.31,1.08h0l.27,0Zm19.19,2.38c-1.73-.13-3.46-.26-5.17-.42l-.63-.24a20.43,20.43,0,0,0,4.61.25,8,8,0,0,1,2.58.64C230.26,49.73,229.79,49.65,229.35,49.59Zm3.85-.08c-.46,0-.91,0-1.34,0l-.73-.09C231.82,49.42,232.51,49.46,233.2,49.51Zm-4.47-.41-.31,0,.06,0Zm-2.27-.66h0l.51-.23,1.13.44Zm17.27-2.14c-.48.05-1,.13-1.48.23a7.44,7.44,0,0,0-.76-.12.47.47,0,0,1-.19-.14l-.44.1,0,0A4.74,4.74,0,0,1,243.73,46.3Z"/><path class="cls-3" d="M187.92,50.87a17.28,17.28,0,0,0-4.85-1.07c-2.2-.09-4.4-.19-6.56-.35a42.72,42.72,0,0,0,6.57,1.34A35.33,35.33,0,0,1,187.92,50.87Z"/><path class="cls-8" d="M196.52,48.75c.6,0,.34,0-.51-.07h-.39Z"/><path class="cls-8" d="M203.53,51.92a9.73,9.73,0,0,0-2.56-.56c-1.16,0-2.33-.09-3.47-.18a24.76,24.76,0,0,0,3.47.68A18.06,18.06,0,0,1,203.53,51.92Z"/><path class="cls-8" d="M103.9,53.23c.71-.11.36-.08-.74.07l-.53.1Z"/><path class="cls-8" d="M113.84,54.46a16.79,16.79,0,0,0-3.52.13c-1.54.25-3.09.53-4.62.74a45.19,45.19,0,0,0,4.75-.26A32.74,32.74,0,0,1,113.84,54.46Z"/><path class="cls-8" d="M155.2,52.49a8.22,8.22,0,0,0-2.39-.33c-1.07,0-2.14.1-3.2.1a19.26,19.26,0,0,0,3.24.39A17.3,17.3,0,0,1,155.2,52.49Z"/><path class="cls-8" d="M215.59,51.48h-.22l.47.07C216.27,51.6,216.12,51.56,215.59,51.48Z"/><path class="cls-8" d="M219.83,54.62a3.58,3.58,0,0,0-1.48-.51c-.68,0-1.36-.07-2-.14a8.45,8.45,0,0,0,2,.63A6.9,6.9,0,0,1,219.83,54.62Z"/><path class="cls-8" d="M58,58.62l-.1,0C58.45,58.58,58.41,58.56,58,58.62Z"/><path class="cls-8" d="M60.34,61a1.94,1.94,0,0,1,.75-.34,1.24,1.24,0,0,0-.89-.13,9.15,9.15,0,0,1-1.05.33A2.76,2.76,0,0,0,60.34,61Z"/><path class="cls-8" d="M141.73,53.8a6.28,6.28,0,0,0-2.07-.39c-.93,0-1.86.06-2.78,0a15.4,15.4,0,0,0,2.81.46A11.79,11.79,0,0,1,141.73,53.8Z"/><path class="cls-8" d="M244.71,50.62a19.71,19.71,0,0,0,2.8.37,12.68,12.68,0,0,0-3.48-1.6c-.21,0-.37,0-.47.18a11.69,11.69,0,0,0-2-.18c-1.88,0-3.78.55-5.64-.25-.15-.06-.61.16-.82.21-1.4-.13-2.75-.83-4.21-.81-.89,0-1.78-.55-2.67-.58a27.63,27.63,0,0,1-6.41-.89c.05.53-.66.35-.9.3a48.81,48.81,0,0,1-6.45-.74c-1,0-1.94-.06-3-.15-2.06-.14-3.87-.67-5.83-.46a22.67,22.67,0,0,1-3.34.22,5.8,5.8,0,0,0-1.11-.09,9.36,9.36,0,0,1-1.4,0,6.52,6.52,0,0,0-1.23-.18,41.61,41.61,0,0,1-7.84-.86c.07.52-.8.35-1.09.29a67.09,67.09,0,0,1-7.86-.74c-1.22,0-2.36-.06-3.61-.15-2.51-.14-4.69-.68-7.07-.48a34.55,34.55,0,0,1-4,.2c-2.29-.34-5.17-.68-5.94-.66-.48.07-.88,0-1,.26-1.66-.06-3,0-4.74.1-2.21.17-4.39.45-6.6.65a35.62,35.62,0,0,1-6.79.14,12,12,0,0,0-1.87.39c-1.68.11-3.38.06-5.09,0a46.8,46.8,0,0,0-5.15.22c-2.12.17-4.37,0-6.49.19-5,.7-10.11.91-15.36,1.27.23.49-1.48.58-2.06.63-2.67.4-5.32.7-7.87,1l-7.43.88-7,1.21c-1.21.22-2.38.4-3.54.56l-3.38.53a57.51,57.51,0,0,0-6.68,1.39c-1.44.44-2.88.82-4.34,1.21l-2.27.6c.33-.28,2.08-.76,2-.88A3.14,3.14,0,0,0,64,53.49c-.06.1-.13.08-.11.3a2.08,2.08,0,0,0-.72.35c-.64.49-1.14,1.46-2,1.11,0,0-.13.18-.19.3l-.43.13c-.44,0-.92-.18-1.31.06s-.78-.2-1.11-.06a3.94,3.94,0,0,1-2.56.2c.16.5-.15.43-.25.41a6.43,6.43,0,0,1-2.62.08,5.51,5.51,0,0,1-1.17.14c-.82.06-1.67-.32-2.38,0a3.13,3.13,0,0,1-1.48.39c-.22,0-.34.38-.17.51a2.48,2.48,0,0,0,.38.22c.55,0,1.25.34,1.75.12a.81.81,0,0,0,.59-.22c.1,0,.27-.09.43.19-.63.16-1.23.39-1.83.58,0,.07.13.19.16.13l0,.22.15,0c0,.21-.39.15-.22.29a1.11,1.11,0,0,0,.93.08l.19.09L49.91,59l.14-.07.19.05a6.55,6.55,0,0,0,.71.76c.64.45,1.16.34,1.75.57a9.61,9.61,0,0,0,4.77.66.35.35,0,0,0,.35-.1,20.77,20.77,0,0,1-6.13-1.2L50.27,59a59.46,59.46,0,0,0,7.38,1.56l.23,0a.43.43,0,0,1-.06.28l.25,0a3,3,0,0,0,1.08-.1l-.54-.17a1.74,1.74,0,0,0,.94-.36c.18-.17.63.17.8,0,.86-.54,1.94-.34,2.62-1.35l.34,0a.42.42,0,0,0-.43-.1s0,0-.05,0l-.06.09c-.77-.53-1.63.86-2.45,1.19a4.62,4.62,0,0,1-.74.15c.05-.16.12-.44.22-.51A3.56,3.56,0,0,0,61.32,59c-.28-.07-.57-.26-.83-.18s-.21.45-.35.41c-.67.05-1,.72-1.75.43-.07,0-.18-.27-.23-.23.73,0,1.26-.56,2-.7l.34.09a.61.61,0,0,1,.24-.2c.9-.08.65-1.63,1.6-1.36-.41,0-.82,1-1,1.46.22-.14.54-.42.88-.69-.12.12-.13.22.07.23.41,0,.82,0,1.24,0,2.14-.46,4.55-.55,6.72-1.19a14.65,14.65,0,0,0,2.5-.69c.37,0,1.13-.3,1.51-.07-2.62.62-5.19,1.36-7.75,2.06.17,0,.32.15.51,0l0,.25.54-.08c-.31.28-1.65.49-1.14.53A15.41,15.41,0,0,0,70,58.5l.64,0-.31-.08.63-.19.68-.07a14,14,0,0,0,2,.43c2.09.11,4.28-.39,6.4-.48,6.11-.27,12.32-1,18.64-1.87a5.62,5.62,0,0,0,1.5-.26c-8,.68-15.61,1.58-23.54,2l-4.81.15c9.27-.92,18.59-1.83,27.94-2.45l.92-.05a.93.93,0,0,1-.51.34l1-.08c1.49-.11,3-.31,4.53-.55l-2.09,0a36.54,36.54,0,0,0,4.2-.76c.87-.25,2.41,0,3.29-.28,4-.87,8.29-.92,11.94-2.11l.72-.05a60.27,60.27,0,0,0,8.94,1,2.17,2.17,0,0,0,.91,0c-4.21-.57-8.22-1-12.36-1.9l1.14-.24c3.68.61,7.35,1.18,11,1.8l.54.09a.48.48,0,0,1-.33.25l.58.08a18.42,18.42,0,0,0,2.69.19l-1.21-.31a12.48,12.48,0,0,0,2.52-.09c.54-.12,1.41.33,1.95.22,2.42-.27,4.93.27,7.2-.44l.84.1a2,2,0,0,0-1-.24l-.09-.06-.19.07c-1.56-.78-4.5.26-6.7.34-.63,0-1.25,0-1.88-.06a2.36,2.36,0,0,1,.85-.43,24.15,24.15,0,0,0,4.11-.2c-.41-.11-.8-.25-1.2-.34l1.47.06h.08l1.16,0a3,3,0,0,0,1.05,0L144.56,52l1.25-.19.4.05a.55.55,0,0,1-.37.26l.66.07a24.66,24.66,0,0,0,3.11.12c-.47-.08-.94-.18-1.41-.27a16.44,16.44,0,0,0,2.9-.16c.62-.13,1.64.29,2.26.17,2-.24,4.08-.07,6-.25,2.24.38,4.52.65,6.84.84a2.58,2.58,0,0,0,1,0c-2.21-.36-4.37-.69-6.52-1,.29-.06.59-.13.87-.21l.95.06,4.47.85c.2,0,.41.07.61.12a.57.57,0,0,1-.38.23l.64.11a24.91,24.91,0,0,0,3,.31l-1.35-.36a14.87,14.87,0,0,0,2.83,0c.61-.09,1.58.39,2.19.31,2.72-.16,5.54.49,8.09-.13l1,.14a2.52,2.52,0,0,0-1.12-.29.17.17,0,0,1-.1-.06l-.22.06a6.23,6.23,0,0,0-3-.31,3.92,3.92,0,0,0-1-.28l-.42,0a6.76,6.76,0,0,0-1.75-.4,1.77,1.77,0,0,0-.3,0l-.27-.12.43.05.14,0h.08a5.77,5.77,0,0,0,1.1,0c.39-.09.95.41,1.34.33,1.7-.13,3.39.53,5-.06l.58.13a1.06,1.06,0,0,0-.67-.29.1.1,0,0,1-.05-.06l-.15.06a1.35,1.35,0,0,0-.33-.19,9.76,9.76,0,0,1,1.56,0c2.06.22,1.81-.13,3.65-.31.28,0,1.27-.34,2.11-.57.13,0,.26,0,.39,0l1.56.21a4.94,4.94,0,0,0-1.34-.32l.27,0a8.15,8.15,0,0,0-.84,0l-.1,0-.35,0a7.09,7.09,0,0,0-1-.26c1.13.13,2.27.25,3.41.35a3.43,3.43,0,0,0,1.14,0L190,50.14l1.4-.09c-.19-.07-1.46-.17-2.6-.27l.37-.11a3.93,3.93,0,0,0-1.25,0,4,4,0,0,1-1-.17s0,0,0,0l1.59,0c1.56.28,3.12.56,4.68.86l.68.13a.69.69,0,0,1-.43.23l.71.12a31,31,0,0,0,3.37.37c-.51-.12-1-.26-1.51-.39a19.7,19.7,0,0,0,3.16.09c.68-.07,1.75.44,2.43.37,1.65,0,3.33.17,5,.29a29.51,29.51,0,0,0,6.74,1.88,1.15,1.15,0,0,0,.66.06c-2.09-.61-4.11-1.17-6.13-1.87.5,0,1,0,1.5,0,1.5.52,3,1,4.51,1.52l.39.14a.47.47,0,0,1-.27.23l.41.12a10.66,10.66,0,0,0,1.95.37l-.86-.39a6.4,6.4,0,0,0,1.85.07c.41-.08,1,.42,1.41.35,1.79-.12,3.58.56,5.31,0l.61.13a1.18,1.18,0,0,0-.71-.29.09.09,0,0,1-.06-.06l-.15.06c-1.07-.85-3.32,0-4.93,0-.46,0-.92-.1-1.37-.18a1.67,1.67,0,0,1,.66-.37,12.24,12.24,0,0,0,3,.05,4,4,0,0,0-1.35-.54c-.24,0-.61.32-.83.22-1.19-.25-2.21.2-3.3-.37-.11,0-.16-.31-.27-.31,1.3.28,2.52,0,3.85.22l.55.24a1.55,1.55,0,0,1,.53-.08,2.2,2.2,0,0,0,1.51-.23l.48.06a7.66,7.66,0,0,0-1,.54c.7,0,1.94-.27,3-.32l.17,0a20.09,20.09,0,0,0,2.71.38l-.94-.31a1,1,0,0,0,.25,0,13.9,13.9,0,0,0,2,0c.55-.08,1.41.44,1.95.38,2.47-.06,5,.72,7.32.25l.85.19a2.19,2.19,0,0,0-1-.35.13.13,0,0,1-.09-.07l-.2.05c-1.5-.93-4.57-.18-6.8-.29l-1.9-.22a2.49,2.49,0,0,1,.89-.36,26.92,26.92,0,0,0,4.18.17,6.86,6.86,0,0,0-1.89-.61c-.34,0-.83.3-1.14.2a10.11,10.11,0,0,0-1.87-.12,6.26,6.26,0,0,1,1-.35c-.9-.13-1.63.16-2.08,0l-1.08.14a4.44,4.44,0,0,1-.52-.15.41.41,0,0,1-.13-.1l.82-.1c.52,0,1,0,1.57,0a20.58,20.58,0,0,1,2.68.14l.77.25a2.72,2.72,0,0,1,.73,0c2.24.42,2.75-1.11,4.85-.31a6.8,6.8,0,0,0-3.42.73,34.26,34.26,0,0,1,5.55,0c1.84.35,1.65,0,3.34-.07.36,0,2-.5,2.8-.53-1.25-.24-2.24,0-2.87-.19-2.14.07-4.84.08-5.28,0-.22,0,.13-.12,1.4-.2s3.47-.18,7-.11c-.31-.16-4-.68-4.07-.85A11.53,11.53,0,0,1,244.71,50.62ZM182.13,51a4,4,0,0,0-1.49.13l-.39-.2a3.23,3.23,0,0,1,1-.09L181,51l.68-.07Zm-45.68.06-.59-.07c.95,0,1.89-.09,2.81-.16L140,51A22.47,22.47,0,0,1,136.45,51.1Zm-16.71-.16-.08,0,.41,0-.18.06Zm54.42-.29-.44-.14,1.31,0,.43.18-.12,0Zm-26,.22c-.1-.08-.19-.18-.31-.17a19.14,19.14,0,0,0,2.15,0Zm27.36-.43.37,0,.36,0c-.19.05-.38.11-.59.15A.44.44,0,0,1,175.47,50.44Zm-52.91-.23.9-.23h.37l.33.1-.36.06ZM158.83,50l-.53-.12.52-.2.53.14A5.34,5.34,0,0,0,158.83,50Zm-46.54,1.68-1.22.08,2.25-.47A10.12,10.12,0,0,1,112.29,51.67ZM98.88,53.93c1.83-.29,3.33-.5,4.28-.63,2.12-.38,4.2-.79,6.23-1.21l2.2-.22a61.31,61.31,0,0,1-7.69,1.36l-1.27.17c-1.43.24-2.89.46-4.38.67A3.42,3.42,0,0,0,98.88,53.93Zm25.83-3.27c.27,0,.53-.06.77-.08l.36,0,.23.06-1.1.1Zm2.5-.27.21,0,.4.09-.42,0ZM133,51l.24,0-.57,0Zm8.5-.37.28,0-.13.05Zm5.33.41a2.85,2.85,0,0,0-1.19.15l-.68-.09A2.82,2.82,0,0,1,146.8,51Zm.11-.07c-.12,0-.08,0,.14-.1l.46.08A4.83,4.83,0,0,1,146.91,51Zm6.88-.41h.06l.54.14a2.12,2.12,0,0,1-.91.25,6,6,0,0,0-.73,0Zm7.81-.45,1.05-.09h.54l.19,0,.52.08.46.19-2.57-.14Zm6.62.43-.85,0Zm1.05,0,.31,0h0l-.32,0Zm1.69,0h.46l-.27,0,1,0,.21.07h-1l1.3.17-1.37-.06Zm19.52-1.93.63,0,.19.07.58.14-.88,0ZM202,49l-.14-.07.2.07Zm5.35-1.71h-.08l.24,0Zm-6.91,1.47a4.46,4.46,0,0,0,.63,0l.27.16-.12-.16.29,0,.28.11.09.11c-.76,0-1.58,0-2.44,0l-.11,0h-.24c-.84-.05-1.71-.13-2.56-.21l-.9-.08c-.36,0-.73-.05-1.09-.07H195l1,.09C197.51,48.73,199,48.75,200.43,48.74Zm-.84,1a6.16,6.16,0,0,0,.84-.05c.59,0,1.19,0,1.81.11l.37.1.28.18a2.92,2.92,0,0,1-1.08.17c-2-.28-3.64.12-5.49-.38C197.21,49.81,197.79,49.68,199.59,49.7Zm3.85-.94h0Zm3.07,1,.76-.21.4.21L207,50Zm11.68,1.71,1.85-.08h.06a3.28,3.28,0,0,1-.87.27Zm-46.73-6.13a8,8,0,0,0,1.93-.12c.29,0,.88,0,1.12.27h-.14a15.21,15.21,0,0,0-1.77-.13c-1.55.08-3.1.07-4.67,0l-.1,0a17.85,17.85,0,0,1-2-.26,14.33,14.33,0,0,1-1.4-.34l1.16,0c.26.08.51.16.77.22A48.18,48.18,0,0,0,171.46,45.38Zm-12.66-.6a3.48,3.48,0,0,0,.36.22l.14,0a27.49,27.49,0,0,1-2.77-.12A10,10,0,0,1,158.8,44.78Zm-57.91,5.81,2.72-.14c-1.15.18-2.3.32-3.47.43-.79,0-1.57,0-2.33-.06ZM80.36,53q2.86-.52,5.64-1c3.19-.26,6.28-.38,9.42-.55-.18.29-1,.35-1.35.37l-.72.12c-5.63.5-11.26,1.13-16.89,2C77.73,53.67,79,53.32,80.36,53ZM59.58,60.08c-2.71.28-5.84-1.14-8.84-1.58a2.2,2.2,0,0,1,.61-.26,5.22,5.22,0,0,1,1,0c1.18.41,2.39,1.23,3.46,1a2.49,2.49,0,0,1-1.33-.66l1.13.31a.23.23,0,0,1,.23-.08l.2,0a5.2,5.2,0,0,0,.65.4C57.68,59.6,58.59,59.74,59.58,60.08Zm-1.65-1.42a5.17,5.17,0,0,1-1,.2c.07,0,.12,0,.14-.07.42-.09.77-.14,1-.17a11,11,0,0,0,2.27-1.14C59.88,58.36,58.87,58.53,57.93,58.66Zm5.91-2.93.76-.14c-.17.13-.31.26-.45.26a8.07,8.07,0,0,1-1.8,1.32C62.22,57.19,62.55,56.79,63.84,55.73Zm-.37,1.75a2.86,2.86,0,0,0-1,.4,2.1,2.1,0,0,1,.83-.44c.73-.12.56-.42,1.12-.92a8.49,8.49,0,0,0,.6-1l1.15-.21a49.53,49.53,0,0,0,4.9-1,35,35,0,0,0,3.67-1,5.85,5.85,0,0,1,2.18-.2C73,54,69.28,55,65.52,56a1.12,1.12,0,0,0,.72,0l-.08.26.78-.14c-.48.32-2.42.7-1.69.68.9-.11,1.79-.25,2.68-.43C66.51,56.78,65.06,57.15,63.47,57.48Zm10.58-.3c.86-.26,1.74-.53,2.65-.74,1.31-.25,2.59-.47,3.86-.65,4.3-.24,8.35,0,12.85-.73A21.2,21.2,0,0,1,88.67,55c1.42-.1,2.82-.18,4.24-.24a4.31,4.31,0,0,1,1-.21l.78-.07c.77.05,1.51.12,2.26.14,3.79-.07,7.39-.3,11.15-.26C96.72,55.63,85.42,55.64,74.05,57.18Zm47.54-5.5c.54.14,1.08.26,1.63.37l-.46.05-.16,0-.31.11c-2.75-.42-7.46,1.28-11.12,1.91L108,54.5a5,5,0,0,1,1.34-.64c2.26-.37,4.74-.64,6.81-1.2a17.58,17.58,0,0,0-3.24,0c-.56.07-1.24.55-1.78.55-2.77.26-4.89,1.14-7.54,1.1-.27,0-.48-.22-.73-.17,1.51-.17,2.92-.45,4.34-.72s2.85-.58,4.39-.76h1.32a7,7,0,0,1,1.16-.29A10.77,10.77,0,0,0,118,51.3l.95-.06h0a23.45,23.45,0,0,0-2.45,1.09c1-.2,2.38-.54,3.87-.87A9.74,9.74,0,0,1,121.59,51.68Zm4.48-.77,1.15,0a14.49,14.49,0,0,0,2.48.29,7.31,7.31,0,0,1-1.45-.33l1.16,0,.45-.05h.19l.47.06c.45.19.88.38,1.31.53,2.24.56,4.37.92,6.57,1.53A102.26,102.26,0,0,1,126.07,50.91Zm14.21,1.3c-1.65-.16-3,.39-4.53-.07-.15,0-.25-.3-.41-.29a21.9,21.9,0,0,0,3.35-.08c.82.07,1.65.14,2.48.19C140.87,52,140.53,52.27,140.28,52.21Zm2.64-.42a3.86,3.86,0,0,0,1-.27l.57.07-.59.29Zm7.12-.24a3.31,3.31,0,0,0,.51-.07l.79.16C150.9,51.62,150.47,51.58,150,51.55Zm3.38.22c-.72,0-1.45,0-2.17,0a3.33,3.33,0,0,1,1-.45c1.28,0,2.65,0,3.91-.19l.76.17A33.59,33.59,0,0,1,153.42,51.77Zm4.7-.67c-1-.18-2-.37-2.93-.58a1.59,1.59,0,0,1,.36,0,4.89,4.89,0,0,0,1.39-.11l.71.13-.44.22c.26,0,.59-.07.93-.13l3.13.59-.16,0A6.45,6.45,0,0,0,158.12,51.1Zm3.32.11h0Zm-.93-.86,2,0,.43,0-.19,0h.94a8,8,0,0,0,.93,0c.23.1.47.19.7.27,2.48.67,4.86,1.12,7.3,1.83A111.86,111.86,0,0,1,160.51,50.35Zm14.17,2.43c-.71,0-1.41-.09-2.11-.15a2.81,2.81,0,0,1,1-.39c1.15,0,2.38.12,3.52.08a6.09,6.09,0,0,0,.73.21A29.31,29.31,0,0,1,174.68,52.78Zm.11-.83c-1.84-.23-3.35.25-5.07-.28-.18,0-.28-.31-.46-.3a28.76,28.76,0,0,0,3.93.06l.21,0a1.06,1.06,0,0,0,.63.05l-.31-.09h.45l-.14.08.39.12a7,7,0,0,0,.93.23A1.15,1.15,0,0,1,174.79,52Zm2.82-.3a4.76,4.76,0,0,0,1.55-.32,8,8,0,0,0,.84,0c-.42.14-.81.29-1.14.43h-.25Zm4.65-.68c-.23,0,.09-.11,1.27-.26l2.14.11C184,50.94,182.59,51,182.26,51Zm10.59-1.28c.13,0,.21,0,.2,0l-.14-.1.72.08c1.1.13,1.79.18,2.34.19,1.15.27,2.29.55,3.45.88C197.21,50.45,195,50.09,192.85,49.69Zm6.47,1.13a3.44,3.44,0,0,1,1.08-.36c1.32.06,2.72.2,4,.19l.7.25c-1.19.08-2.39.17-3.45.13Zm6.53,0-.62-.25h.32c-.4-.11-.78-.25-1.17-.37l-.46-.2-.14-.08c.11,0,.21,0,.31,0l.69.06q1.16.42,2.31.81Zm11.63,2.62A38.55,38.55,0,0,1,211,51.53l.63.11a3.13,3.13,0,0,0-1.24-.34.23.23,0,0,1-.11-.07h-.05l-2.46-1,.76,0a8.59,8.59,0,0,0,2.74.91,4.59,4.59,0,0,1-1.73-.95h.22l1.35.54a.89.89,0,0,1,.46,0l.33.1c.31.22.61.45.91.63C214.41,52.23,215.94,52.74,217.48,53.48Zm-1.64-1.94-.47-.07q-.94-.07-1.92-.24a.84.84,0,0,0,.28,0c.79.09,1.44.18,1.86.25l.49,0c.34.07.69.15,1,.21C216.69,51.67,216.26,51.61,215.84,51.54Zm6.26.72a2.78,2.78,0,0,1,.56-.24l.55.12a4.45,4.45,0,0,0-.65.21Zm6.66.4-1.08-.19.09,0a.76.76,0,0,0,.21-.05C228.24,52.48,228.5,52.56,228.76,52.66Zm-2.31-.75L225.3,52l-.75-.16,1.13-.18Zm1.24-1.08a1.71,1.71,0,0,1-.63-.16h0l2.13,0a11.71,11.71,0,0,0,2,.11s-.06-.08-.1-.12h1.3A11.94,11.94,0,0,1,227.69,50.83Z"/><path class="cls-8" d="M232,53.88a6.44,6.44,0,0,0-2-.57c-.94-.05-1.88-.1-2.81-.19a16.49,16.49,0,0,0,2.79.69A11.78,11.78,0,0,1,232,53.88Z"/><path class="cls-8" d="M176.37,53.6a7.78,7.78,0,0,0-2.32-.47c-1,0-2.09,0-3.12-.09a20.23,20.23,0,0,0,3.14.58A16.1,16.1,0,0,1,176.37,53.6Z"/><g class="cls-12"><path class="cls-13" d="M158.92,65.88c.77,0,.18,0-1.35,0l-.79,0Z"/><path class="cls-13" d="M173.13,68.42a40,40,0,0,0-5.24-.37c-2.34,0-4.68.13-7,.14,2.31.2,4.65.32,7.08.36C169.72,68.47,171.46,68.38,173.13,68.42Z"/><path class="cls-13" d="M221.32,68.67a5.1,5.1,0,0,0-.67-.32,22,22,0,0,0-3.8-.66,4.18,4.18,0,0,0-1.45,0c-.21,0-.65,0-.82-.31,1.5,0,3,0,4.48,0-.08-.08-.15-.22-.26-.17,0-.11,0-.23,0-.23l-.3-.07c.21-.19,1,0,.69-.2a4.75,4.75,0,0,0-2-.36c-.12,0-.23-.11-.35-.15l.16.15-.37,0-.37-.1a7.35,7.35,0,0,0-1.07-.94,19.5,19.5,0,0,0-3.57-1.06c-.7-.24-1.42-.45-2.13-.64h.6a8.32,8.32,0,0,0-.84,0c-.61-.16-1.23-.3-1.85-.43,3.93.08,7.47.15,7.28.08A111.28,111.28,0,0,0,203.36,62c-.6.06-1.11,0-1.31.23-1.2-.05-2.28-.06-3.39-.05-.53,0-1-.07-1.58-.07l.35.09-1.44,0c-1.76.06-3.52.17-5.28.27-.48,0-1,0-1.43.07l-1.75.09a56.54,56.54,0,0,1-8.7-.17,20.19,20.19,0,0,0-2.41.29c-2.17,0-4.35-.12-6.54-.25s-4.39-.18-6.61-.09c-2.72.05-5.57-.31-8.3-.23-6.5.37-13,.22-19.77.22.24.5-2,.47-2.71.48-3.46.23-6.87.33-10.18.53l-9.58.42-9,.85c-1.57.15-3.09.27-4.58.38s-2.93.27-4.38.4-2.87.28-4.32.46-2.88.43-4.36.71c-1.9.4-3.78.74-5.69,1.1s-3.87.76-5.94,1.11c-1.53.21-3.33,1-2.39,1,.75,0,1.51-.09,2.27-.15,2-.35,4.16-.61,6.29-.91s4.29-.5,6.38-.92c1.52-.17,3.15-.54,4.8-.85a9.53,9.53,0,0,1,2.8-.12c-2.5.37-5,.74-7.46,1.22s-4.94.87-7.39,1.39a1.77,1.77,0,0,0,.91,0l-.14.27s.5-.08,1-.13c-.66.31-3.17.68-2.24.67,2.24-.21,4.49-.49,6.74-.92l1.18-.06-.56-.06c.41-.07.82-.16,1.22-.24l1.36-.1c1.15.12,2.2.29,3.55.34,1.9,0,3.9-.12,5.91-.29s4.06-.27,6-.33l7.47-.21q.39.08.81.12a38.88,38.88,0,0,0,4.71,0c1.6,0,3.23-.11,4.79-.09,9,.17,18.34,0,27.86-.16a13.74,13.74,0,0,0,2.29-.1c-10.29-.19-20.07-.06-30-.07l17.22-.47c.32,0,.86,0,1.44,0,3.6,0,7.21.12,10.81.23.45,0,.91,0,1.37.05a1.85,1.85,0,0,1-.82.28c.48,0,1,0,1.44,0,2.23.08,4.5,0,6.81,0L157.8,68c2.14,0,4.28-.07,6.37-.22,1.35-.14,3.58.27,4.92.16,3.82-.2,7.76,0,11.56,0a7.89,7.89,0,0,0,1.41.23c.17-.07.31,0,.37-.24,1.62,0,3.22-.09,4.75-.25.71,0,1.43.08,2.14.14a12,12,0,0,0-2.54-.3.7.7,0,0,1-.23-.06l-.48.06-.6-.11a6.77,6.77,0,0,1,3.91-.33c.15,0,.54-.24.72-.32,1.3-.06,2.6.48,3.93.3.82-.06,1.67.38,2.48.33a19.71,19.71,0,0,1,5.89.46c-.06-.52.6-.37.82-.32a29.69,29.69,0,0,1,5.89.64c.9,0,1.76.07,2.69.19,1.87.19,3.48.8,5.26.73a16,16,0,0,1,3.51.08C221,69.2,221.59,68.85,221.32,68.67ZM96.69,67.26c-.27.11-.42.22-.37.28-.8.07-1.6.13-2.4.21Zm7,1-5.22.21c-2.85.09-5.73.2-8.59.32q6.38-.53,12.8-.89a1,1,0,0,0,.67,0l-.12.25.81-.06A2.32,2.32,0,0,1,103.7,68.26Zm4.7-1.5a34.56,34.56,0,0,0,3.82-.56c.13,0,.3,0,.48,0h1.59a.67.67,0,0,1,.15.06c-1.26.14-2.52.31-3.78.48l-2.66.1Zm-.13,1.33.83-.13,1,0,.39.09Zm4.11-.14-1.86,0q7.89-.24,15.84-.33C121.67,67.68,117,67.8,112.38,68Zm13.45-1.5q-3.93,0-7.86.07h0c1.56-.13,3.1-.23,4.63-.32l2.75,0c2.71.07,5.36.21,8.05.32C130.88,66.47,128.35,66.45,125.83,66.45Zm87.67-1.24c.9.37,1.82.69,2.72,1.07-2.64-.75-5.31-1.41-8-2,.55,0,1.06-.09,1.49-.11l-2.13,0-1.81-.38,2.15-.06A50,50,0,0,1,213.5,65.21Zm-17-.8h0Zm3.89-1.08c-1.17,0-2.11-.08-2.6-.12l-.31-.07a16.23,16.23,0,0,1,1.74-.06c.48.08,1,.14,1.45.23Zm3.89.11-1.77-.34,2.55,0c.69.12,1.37.25,2.06.39Zm-23.15,2.29a6.65,6.65,0,0,1-1,.4c1.17,0,2-.42,2.63-.38l.67-.16c.38,0,.8,0,1.25.07l-.39.09c-.95,0-2,.13-3,.26l-.86.14-2,0C179.36,66,180.18,65.85,181.09,65.73Zm-30,.26c2.75-.08,5-.11,6.45-.13l7.45-.32,2.36.16c.82-.08,1.59-.14,2.25-.14h.48q-1,.09-2.19.15h-.54c-.28,0-.58,0-.89.06-2.39.08-5,.09-7.57.12l-2.14,0-6.6.16A7.08,7.08,0,0,0,151.12,66Zm6.85.77h-.63l-.26,0Zm-18.83-.37c-1.14-.09-2.22-.22-3.28-.37l3.15,0,3.14.11a9.81,9.81,0,0,1,1.4-.1l1.86.07c.93.11,1.83.23,2.75.32l4.28.24-11.1-.13,1.47,0C141.5,66.55,140.29,66.49,139.14,66.39Zm17.21,1-5.72-.16c2.15,0,4.3-.11,6.41-.24l3.51.22.83.07Zm1.57-.44c1,0,2.2.07,3.35.13-1.06,0-2.13,0-3.26-.11Zm5.82-.07-6,0,.89-.2,1.67-.05c1.09,0,2.17-.06,3.24-.11,2.16-.1,4.32-.21,6.63-.16l1.34.12C168.84,66.64,166.16,66.8,163.74,66.86Zm5.51.81H164.5l.07,0c1.38,0,2.76-.08,4.1-.07-.87-.11-1.88-.18-2.92-.23a5.49,5.49,0,0,1,.86-.14c3.42,0,7.15,0,10.33-.22l-.19,0c2.35,0,4.66,0,6.91-.16-.67.15-3.1.25-4.31.35C176,67.26,172.36,67.6,169.25,67.67Zm36.18-2.5h.6c-.13,0-.51-.07-1-.12l-.83-.21a1.42,1.42,0,0,1-.58,0l-.29,0,1.33-.15.24,0a8.18,8.18,0,0,1,1.67.77Zm5.65,1.25c-1.72-.53-3.35-1.26-5.09-1.67l1.45.09c2.45.62,4.91,1.26,7.38,1.77a11.34,11.34,0,0,1-1.55.07C212.53,66.62,211.8,66.53,211.08,66.42Z"/><path class="cls-13" d="M192.42,61.81a6.09,6.09,0,0,0,2,.34c.89,0,1.78-.08,2.66-.07a12.77,12.77,0,0,0-2.7-.42A13.24,13.24,0,0,1,192.42,61.81Z"/></g></g><circle class="cls-13" cx="225.77" cy="49.53" r="8.93" transform="translate(-5.36 48.15) rotate(-12.03)"/><path class="cls-5" d="M218.65,49.53a7.12,7.12,0,1,0,7.12-7.12A7.12,7.12,0,0,0,218.65,49.53Z"/><path class="cls-3" d="M193.93,72.76s-4.37,26.18-22.26,30.11c.88-1,5-5.24,5.24-11s2.84-6.11,5.89-9.09,6.25-6.26,7-9.16A6.14,6.14,0,0,0,193.93,72.76Z"/><g class="cls-14"><path class="cls-8" d="M179.94,96.2s0,.1,0,.15C180,95.48,180,95.56,179.94,96.2Z"/><path class="cls-8" d="M182.07,96a5.07,5.07,0,0,0-.17-1.69c-.15-.36.24-1,.09-1.39-.48-1.65-.43-3.53-1.66-4.82l-.14-.61a1.24,1.24,0,0,0,0,.75.11.11,0,0,1,0,.08l.11.11a3.09,3.09,0,0,0,.48,2.1,10.13,10.13,0,0,1,1,2.37q.06.66.06,1.32a1.78,1.78,0,0,1-.48-.55,14,14,0,0,0-.2-1.43,3.75,3.75,0,0,0-.46-1.33,5.13,5.13,0,0,0-.17,1.34c0,.22.46.47.41.7a7,7,0,0,0,.24,1.55,2.67,2.67,0,0,1-.11,1.52c0,.11-.31.17-.29.27a6.38,6.38,0,0,0-.07-1.75c-.11-.57-.22-1.14-.28-1.75,0-.2.07-.37.1-.54a1.21,1.21,0,0,1-.19-.45,1.72,1.72,0,0,0-.63-1.21s0-.09,0-.13-.1-.22-.14-.33c.3.27.62.51.82.67a11.76,11.76,0,0,0-.85-1.6,11.69,11.69,0,0,1-.86-1.68c-.43-1.17-.68-.92-1.53-1.64a2.44,2.44,0,0,0-.8-.31c-.39-.09-.78-.14-1-.19.5.41,1.11.63,1.28,1a5.9,5.9,0,0,1,1.16,1.18.76.76,0,0,0,0,.15s0,0,0,0l.09.06-.1.17a12.05,12.05,0,0,0-.83-.92,5.32,5.32,0,0,0-2-1.29l.08.08-.71-.34a2.11,2.11,0,0,0,.34.48l.14.18c-.35-.25-.66-.35-.67-.3v.06a1.17,1.17,0,0,0-.33-.28,3.78,3.78,0,0,0,.14.58,6.14,6.14,0,0,1-.53-.44l0,0c-.13-.19-.27-.25-.32-.23a2.41,2.41,0,0,0-.23.27h0a1,1,0,0,1-.14.15.38.38,0,0,0-.15.26,3.46,3.46,0,0,0-.44-1,4.36,4.36,0,0,0-.43,1.95c.09.08.07.16.3.15a3.12,3.12,0,0,0,.37.9c.23.41.59.81.84,1.24a1.55,1.55,0,0,1,.15,1.39c0,.09.26.28.34.37.13.7-.38,1.43-.19,2.14.07.44-.39.9-.33,1.33a5,5,0,0,1-.67,3.1c.53,0,.34.36.27.47a7,7,0,0,1-1.16,3,5.84,5.84,0,0,1-.52,1.32,6.14,6.14,0,0,1-.82,1.19,3.62,3.62,0,0,0-.67,1.17,3.53,3.53,0,0,1-.71,1.63c-.18.17,0,.58.25.52a2.43,2.43,0,0,0,.43-.19c.39-.51,1.16-1,1.32-1.61a1.12,1.12,0,0,0,.22-.74c.08-.09.1-.33.42-.33-.25.76-.5,1.52-.78,2.26.09,0,.24,0,.21-.07l.2.11.13-.12c.14.17-.18.49.05.42a1.5,1.5,0,0,0,.72-.91l.21-.13-.18,0,.06-.2.15-.16a4.58,4.58,0,0,0,1.09-.27,3.36,3.36,0,0,0,1.16-1.15c-.56.85-1.4,1.4-1.75,2.25a4.12,4.12,0,0,1-1.08,1.64c-.22.14-.12.63.13.6s.32-.09.47-.14c.53-.49,1.4-.89,1.71-1.59a1.48,1.48,0,0,0,.36-.79c.11-.09.17-.35.49-.32-.4.82-.8,1.63-1.26,2.41.09,0,.23,0,.22-.05l.18.14.16-.12c.1.21-.29.52,0,.47a2,2,0,0,0,.95-.92l.24-.12h-.18l.08-.22.2-.16a5.42,5.42,0,0,0,1.15-.2c.87-.42,1.27-1.19,1.91-1.82A12.24,12.24,0,0,0,182,98.21a1,1,0,0,0,.06-.64A16.37,16.37,0,0,1,177.2,106a19.34,19.34,0,0,1-1.73,1.16,20.05,20.05,0,0,0,6.21-9.42c0-.12.07-.25.11-.38a.41.41,0,0,1,.25.25l.1-.4a7.21,7.21,0,0,0,.21-1.92c-.08.28-.19.55-.29.82C182.06,96.06,182.07,96,182.07,96Zm-2.12.32a7.62,7.62,0,0,1-.16,1.71.67.67,0,0,0,0-.25c.06-.67.12-1.24.15-1.61a12.17,12.17,0,0,0-.62-3.44,2,2,0,0,0,.05-.26A6,6,0,0,1,180,96.35ZM177.1,95a1.42,1.42,0,0,1-.25.31,3.15,3.15,0,0,0,0-.44l.05-.08a.23.23,0,0,1,0-.24l.06-.18.27-.27,0,.18a2,2,0,0,0-.11.71Zm0-1.9a3.24,3.24,0,0,1,0,.44c0-.07,0-.12,0-.14V93A.47.47,0,0,1,177.11,93.12Zm0-1.44L177,92c-.05-.19-.1-.37-.17-.56l.05,0a12.16,12.16,0,0,0-.54-1.27A1.86,1.86,0,0,1,177.07,91.68Zm-.26,4.19a3.06,3.06,0,0,0,.33-.65c0,.12,0,.24.05.35a1.19,1.19,0,0,1-.11.26c0,.09-.31.13-.3.22A1.13,1.13,0,0,0,176.81,95.87ZM175.89,97c0,.16,0,.32-.09.48a.47.47,0,0,0,0-.21l0-.19Zm-.29,2.49a20.29,20.29,0,0,0,1.25-1.87c-.11.31-.23.62-.35.92h0l-.12.23c-.27.26-.53.52-.81.77C175.59,99.54,175.59,99.52,175.6,99.5Zm3.71-9.58a1.11,1.11,0,0,0-.08.3,1.46,1.46,0,0,1-.43-.65,1.62,1.62,0,0,1,0-.19,1.94,1.94,0,0,1,0-.35A1.74,1.74,0,0,0,179.31,89.92ZM174,87c-.11,0-.28-.34-.44-.76C173.77,86.55,174,86.79,174,87Zm-.78.9c-.12,0-.33-.56-.54-1.2h.11a1.83,1.83,0,0,0,.32.64l.08.09C173.28,87.68,173.3,87.87,173.26,87.9Zm-.79,15.89a9.27,9.27,0,0,1,.55-1.09c.6-.63,1.31-1.25,1.87-2,0,.06,0,.11.09.06a1,1,0,0,0,.4-.78l.15-.13-.12,0,.15-.31.46-.18-.27.45a51.22,51.22,0,0,1-3.47,4.71A4,4,0,0,1,172.47,103.79Zm1.38.54c-.52.38-1,.78-1.5,1.13a22,22,0,0,0,4.33-6,7.91,7.91,0,0,1-1.28,2.94c-.05.11-.09.22-.13.33A13.23,13.23,0,0,1,173.85,104.33Zm1.72,1.85a4.61,4.61,0,0,1,.33-.92c.23-.4.46-.81.73-1.2,1.17-1.17,2.65-2.35,3-4.1a3.39,3.39,0,0,1-1.29,1.54c.29-.47.6-.94.88-1.44a.64.64,0,0,1,.05-.39l.11-.28a5.72,5.72,0,0,0,.65-.78,24.31,24.31,0,0,0,1.64-4.4,14,14,0,0,1-2,6.7A30.47,30.47,0,0,1,175.57,106.18Z"/><path class="cls-8" d="M182.33,91.75a3.93,3.93,0,0,0-.16,1.52,14.72,14.72,0,0,1,.18,2,6.14,6.14,0,0,0,.31-2A8.86,8.86,0,0,1,182.33,91.75Z"/><path class="cls-5" d="M190.65,72.37a25.44,25.44,0,0,1-1.94,4.52,26.09,26.09,0,0,1-2.81,4A42.08,42.08,0,0,1,178,87.82c-.83.57-1.67,1.14-2.51,1.69s-1.76,1.11-2.61,1.7c-.22.16,0,.52.22.37.8-.47,1.58-1,2.36-1.51l2.29-1.54a54.45,54.45,0,0,0,4.39-3.33,29.67,29.67,0,0,0,6.63-7.63,16.4,16.4,0,0,0,2-5.16.07.07,0,0,0-.13,0Z"/><path class="cls-5" d="M191.69,72.58c-.39.85-.69,1.74-1.06,2.61s-.79,1.73-1.24,2.57a36.13,36.13,0,0,1-3.13,4.88,46.23,46.23,0,0,1-8.33,8.44c-.89.7-1.79,1.37-2.72,2s-1.88,1.19-2.77,1.85a.18.18,0,0,0,.18.31,18.26,18.26,0,0,0,2.57-1.58c.82-.55,1.62-1.13,2.4-1.73A51.81,51.81,0,0,0,182.14,88a40.66,40.66,0,0,0,7.23-9.38,31.37,31.37,0,0,0,1.41-2.92,14.46,14.46,0,0,0,1-3.08c0-.05-.08-.1-.11,0Z"/><path class="cls-5" d="M192.73,72.25c-.78,2.13-1.43,4.3-2.35,6.37a25.86,25.86,0,0,1-3.52,5.75c-1.42,1.74-3,3.34-4.55,4.94s-3.06,3.14-4.69,4.6c-.91.81-1.85,1.6-2.83,2.33-.5.37-1,.73-1.52,1.07s-1.07.64-1.57,1c-.16.12-.08.46.15.36a9,9,0,0,0,1.45-.82c.46-.3.91-.62,1.35-.94.9-.65,1.76-1.35,2.6-2.08,1.67-1.45,3.24-3,4.78-4.61s3.16-3.24,4.62-5a25.85,25.85,0,0,0,3.72-5.75,40.94,40.94,0,0,0,2.53-7.22c0-.11-.13-.15-.17,0Z"/><path class="cls-5" d="M193.42,72.26c-.3,1.21-.55,2.44-.88,3.64s-.73,2.43-1.18,3.61A38.85,38.85,0,0,1,178.1,97a37.2,37.2,0,0,1-3.34,2.22c-.57.34-1.16.66-1.75,1s-1.25.6-1.86,1c-.22.12-.07.5.18.41a19.75,19.75,0,0,0,3.28-1.65c1.06-.61,2.1-1.28,3.1-2A38.89,38.89,0,0,0,191.36,80.5a38.17,38.17,0,0,0,1.36-4,24,24,0,0,0,.85-4.19c0-.09-.13-.1-.15,0Z"/></g><path class="cls-3" d="M136.24,80.69s-3.78,14-18.11,17.89c0,0,5.83-4.41,6.15-7.82-1.24-4.87,5.23-3.31,8.74-9.65A5.42,5.42,0,0,0,136.24,80.69Z"/><g class="cls-15"><path class="cls-8" d="M127.51,91.29a1.47,1.47,0,0,0-.44.85,9.26,9.26,0,0,1-.13,1.18,3,3,0,0,0,.62-1.13A2.51,2.51,0,0,1,127.51,91.29Z"/><path class="cls-8" d="M127.75,88a.79.79,0,0,0-.27.61,4,4,0,0,1,.14.75,1.6,1.6,0,0,0,.35-.81A1.12,1.12,0,0,1,127.75,88Z"/><path class="cls-8" d="M127.62,89.33a3.07,3.07,0,0,1-.28.35.87.87,0,0,0-.16-.67c-.14-.13.27-.41.13-.54-.38-.61,0-1.37-1-1.81v-.24c-.14.12-.16.22-.13.3l-.06,0,.09,0c-.61.52.65,1.09.83,1.69a2.07,2.07,0,0,1,0,.5,1.26,1.26,0,0,1-.46-.18c-.1-.35-.06-.75-.43-1-.12.18-.35.37-.31.54s.41.15.35.24a.55.55,0,0,0,0,.31.38.38,0,0,0,0,.1.11.11,0,0,1-.05,0l.08.07a.76.76,0,0,0-.2.75s-.07,0-.06,0c.12-.48-.29-.86-.3-1.33l.14-.22a.37.37,0,0,1-.15-.17c0-.59-1.51-.43-1.13-1-.05.25.89.5,1.31.62-.2-.31-1-.85-1-1.22s-.36-.34-.81-.65c-.06-.07-.94-.24-1.18-.35.1.27.52.39.51.55a3.53,3.53,0,0,1,1.12,1c0,.13-.51-.3-2.16-1.49,0,.07.19.59.2.81h0v.07s0,0,0,0c-.25.07-.66-1.16-.81-1.09a2,2,0,0,0-.65,1,.37.37,0,0,0,.29,0,.31.31,0,0,0,.11.21,1.93,1.93,0,0,0-.25.64c.08,0,.05.1.28.1,0,.21.14.37.24.58.27.39.78.81.83,1.25-.1.13-.25.27-.2.39s0,.06,0,.08v0s0,.05,0,.08c.12.39-.19.82-.46,1.22a.81.81,0,0,1,.3,0,.61.61,0,0,0,0,.3c0,.29-.47.51-.46.79a1,1,0,0,1,0,.24l-.16.2a1.49,1.49,0,0,1-.23.6c-.21.42-.85.71-.82,1.11a.8.8,0,0,1-.18.75c-.07,0,0,.13.17.19a3.79,3.79,0,0,1-.8.69,2.43,2.43,0,0,1-.56.7c-.44.45-1.22.56-1.46,1a1.36,1.36,0,0,1-.69.82c-.16,0,0,.41.2.45a1.76,1.76,0,0,0,.38,0c.36-.21,1.07-.23,1.25-.62.18-.07.22-.24.24-.42s.11-.19.4-.08c-.28.42-.54.86-.83,1.27.08,0,.21.09.19,0l.18.15.12,0c.11.17-.19.28,0,.31a.75.75,0,0,0,.71-.38l.2,0-.16,0,.06-.12.15,0a5.55,5.55,0,0,0,1,.16c.75,0,1-.45,1.61-.69A6.36,6.36,0,0,0,126.26,95a.38.38,0,0,0,.11-.37,9.54,9.54,0,0,1-4.67,4c-.51.11-1,.24-1.46.31A12.72,12.72,0,0,0,126,94.61c.06-.06.1-.13.16-.2a.41.41,0,0,1,.21.2c0-.07.09-.14.14-.21a3.26,3.26,0,0,0,.43-1.08c-.12.15-.26.29-.4.44a1.91,1.91,0,0,0,.09-1.06c-.09-.24.41-.54.31-.78a.45.45,0,0,1,0-.11,4,4,0,0,0,.49-1.32.18.18,0,0,0,0-.25c-.16.33-.33.65-.51,1l0-.69.13-.2.09-.15a.51.51,0,0,1,.26.07l.07-.16A1.43,1.43,0,0,0,127.62,89.33ZM127,89a2.67,2.67,0,0,1-.15.62c0-.09-.07-.19-.11-.28Zm-.81,1.07c0,.17.11.34.18.52l-.17.25a1.62,1.62,0,0,0-.11-.28c-.16.24-.43.46-.44.72,0,0,0,.1.08.16l-.3.34a1.48,1.48,0,0,1,0-.21l.21-.29a.48.48,0,0,1-.1-.29,1.15,1.15,0,0,0,0-.18h0A6.86,6.86,0,0,0,126.17,90.05Zm-1.78,3.53,0,0c0,.11,0,.22-.08.33l-.09,0Q124.33,93.73,124.39,93.58Zm.08-1.71.22-.23a1.09,1.09,0,0,1,0,.17l-.27.13Zm.8-1.6-.06-.06a1.81,1.81,0,0,1,0-.25l0,0A2.62,2.62,0,0,1,125.27,90.27Zm-.14-1.46a1.27,1.27,0,0,1,.13.32C125.21,89,125.17,88.91,125.13,88.81Zm-.37,3.32a1.73,1.73,0,0,1,0,.32l-.21.2c0-.11,0-.22,0-.33Zm-.6,2.13v0h.06c0,.06,0,.12-.08.17S124.18,94.29,124.16,94.26Zm1.13-.76.16-.14a3.8,3.8,0,0,0,.38-.29.87.87,0,0,1-.27.44c0,.06-.32,0-.32.1Zm.1-.39a3,3,0,0,0,0-.52h0l.44-.51a5.3,5.3,0,0,0,0,.57C125.72,92.8,125.56,93,125.39,93.11Zm-2.79-5.39a1.48,1.48,0,0,1-.19-.43C122.56,87.42,122.66,87.55,122.6,87.72Zm1.27,8.34a24.06,24.06,0,0,1-3.63,2.25,1.5,1.5,0,0,1,.22-.5,4,4,0,0,1,.59-.57c1-.42,2.44-.79,2.86-1.75a2,2,0,0,1-1.29.61c.3-.2.6-.41.88-.64a.24.24,0,0,1,.07-.22l.12-.14a4.32,4.32,0,0,0,.68-.31,17.42,17.42,0,0,0,2.08-2.2A7.49,7.49,0,0,1,123.87,96.06Zm2.69-3.42-.14-.13a3.76,3.76,0,0,0,.25-.31A3.54,3.54,0,0,1,126.56,92.64Zm.12-1.07a6,6,0,0,1-.48.68s0,0,0,0c0-.22,0-.44,0-.67l.32-.46A3.36,3.36,0,0,1,126.68,91.57Z"/><path class="cls-5" d="M133.8,80.35c-.26.46-.57.91-.86,1.35s-.6.85-.93,1.25a18.29,18.29,0,0,1-2.14,2.26,17.42,17.42,0,0,1-5.36,3.25,16.75,16.75,0,0,1-3.42.91c-.23,0-.14.38.09.35A17.49,17.49,0,0,0,132,83.45,16.51,16.51,0,0,0,133,82c.15-.25.3-.5.44-.75s.26-.57.39-.86c0,0,0-.08-.06,0Z"/><path class="cls-5" d="M134.59,80.16c-.35.5-.62,1.06-1,1.58s-.67,1-1,1.53A21,21,0,0,1,130.1,86a20.62,20.62,0,0,1-6.29,4,20,20,0,0,1-4,1.14c-.2,0-.12.34.08.3a20.24,20.24,0,0,0,7-2.65,20.73,20.73,0,0,0,5.63-5,19.66,19.66,0,0,0,1.18-1.69,8.59,8.59,0,0,0,.95-1.89.06.06,0,0,0-.11,0Z"/><path class="cls-5" d="M135.17,80.57a17,17,0,0,0-1.06,1.8c-.37.61-.77,1.21-1.18,1.8a26.88,26.88,0,0,1-2.8,3.32,26.2,26.2,0,0,1-7,5,28.26,28.26,0,0,1-4.58,1.7.15.15,0,0,0,.09.29,21.75,21.75,0,0,0,4.12-1.47,25.07,25.07,0,0,0,3.81-2.16,26,26,0,0,0,6.26-6,21.84,21.84,0,0,0,1.36-2.08c.21-.34.4-.7.58-1a4.83,4.83,0,0,0,.47-1.13s0,0,0,0Z"/><path class="cls-5" d="M135.76,80.31c-.3.75-.52,1.52-.85,2.26a18.15,18.15,0,0,1-1.11,2.09,28.17,28.17,0,0,1-3.06,3.84,38.58,38.58,0,0,1-3.55,3.57,22.18,22.18,0,0,1-4.07,2.78A30.07,30.07,0,0,1,118,97c-.23.07-.13.44.1.37a27.16,27.16,0,0,0,8.82-4.61,34,34,0,0,0,3.69-3.61,29.75,29.75,0,0,0,3.14-3.86A17.67,17.67,0,0,0,135,82.91a11.24,11.24,0,0,0,.88-2.56.07.07,0,0,0-.13,0Z"/></g><g class="cls-16"><path class="cls-3" d="M199.38,38.88a3.21,3.21,0,0,0-.55,1A3.7,3.7,0,0,0,198,40a5.74,5.74,0,0,0-1.05.38,4.26,4.26,0,0,0-1.66,1.37,3.48,3.48,0,0,0-.56,1.26,2.22,2.22,0,0,0-1.54.16,3.18,3.18,0,0,0-1.34,1.12,3,3,0,0,0,0,3.35,3.08,3.08,0,0,0,1.53,1.25.27.27,0,0,0,.17,0,3.79,3.79,0,0,0-.19,1.41,2.79,2.79,0,0,0-.6.17,3.68,3.68,0,0,0-.8.44,3.85,3.85,0,0,0-1.19,1.49,3.66,3.66,0,0,0,.45,3.66,3.89,3.89,0,0,0,.78.79,2,2,0,0,0,1,.49c.26,0,.44-.37.22-.54s-.64-.34-.93-.57a3.55,3.55,0,0,1-.69-.76,3,3,0,0,1,.3-3.77,3.85,3.85,0,0,1,.79-.66c.16-.09.32-.18.48-.25l.22-.08a3.05,3.05,0,0,0,2.65,2.52l-.37.21a5.61,5.61,0,0,0-.8.58,4.83,4.83,0,0,0-1.24,1.66,3.45,3.45,0,0,0,.53,3.76,3.1,3.1,0,0,0,1.92.89l.12,0a3.51,3.51,0,0,0,1.68,3.32,3.42,3.42,0,0,0,2.8.43.34.34,0,0,0-.18-.65,3,3,0,0,1-3.48-1.74,2.7,2.7,0,0,1,1.46-3.41,3,3,0,0,1,1.09-.3,3.63,3.63,0,0,0,1.23.17.33.33,0,0,0,.09-.65,3.24,3.24,0,0,0-1.27-.19A3.58,3.58,0,0,1,197.42,55a3.19,3.19,0,0,1,1.66-3.62,3.39,3.39,0,0,1,1.51-.42l.92.08a.33.33,0,0,0,.09-.65,3.8,3.8,0,0,0-1-.09,3.44,3.44,0,0,1-2.9-1.5,2.43,2.43,0,0,1,.08-2.12,3.86,3.86,0,0,1,1.7-1.69,12.24,12.24,0,0,1,2.9-1c.35-.09.29-.7-.09-.66a2.76,2.76,0,0,1-2.89-2.17,2.53,2.53,0,0,1,1.74-2.79,3.05,3.05,0,0,1,2,0,.21.21,0,0,0,.16-.39A3.16,3.16,0,0,0,199.38,38.88ZM192,45.36a2.53,2.53,0,0,1,1-1.47,2.7,2.7,0,0,1,.86-.4c.25-.07.52-.08.78-.13a2.69,2.69,0,0,0,.67,2.2,2.28,2.28,0,0,0,1.86.78.31.31,0,0,0-.05.1,3.25,3.25,0,0,0-2,.52,3.65,3.65,0,0,0-1.41,1.48.36.36,0,0,0-.2-.18A2.57,2.57,0,0,1,192,45.36Zm6,11.78a3.8,3.8,0,0,0,.57.42,3.89,3.89,0,0,0-2,1.67,3,3,0,0,0-.24.55.3.3,0,0,0-.25-.1,2,2,0,0,1-1.67-.87,2.67,2.67,0,0,1-.46-2.05,3.81,3.81,0,0,1,1-2,6.07,6.07,0,0,1,.82-.7q.23-.16.45-.3a2.17,2.17,0,0,0,.47-.32A4,4,0,0,0,198,57.14Zm.64-6.65a3.45,3.45,0,0,0,.42.14,4.25,4.25,0,0,0-1.93,1.7,2.42,2.42,0,0,0-.18.36.31.31,0,0,0-.27-.06,2.46,2.46,0,0,1-2.68-1.8,3.13,3.13,0,0,1,1.27-3.3,4.35,4.35,0,0,1,1-.49c.24-.09.49-.15.73-.22a2.83,2.83,0,0,0,1.68,3.67Zm1.1-7.39a3.37,3.37,0,0,0,1,.65,5.89,5.89,0,0,0-3.24,2.09.33.33,0,0,0-.24-.14,2.32,2.32,0,0,1-.93-.2,2.08,2.08,0,0,1-.72-.66,2.27,2.27,0,0,1-.19-2,3.42,3.42,0,0,1,1.46-1.72,6.06,6.06,0,0,1,1.09-.52l.54-.17.21,0a2.74,2.74,0,0,0,0,.64A3.42,3.42,0,0,0,199.78,43.1Z"/><path class="cls-3" d="M219.06,71.9a28,28,0,0,1-5.63-11.58,29.74,29.74,0,0,1-.11-12.84,30.43,30.43,0,0,1,1-3.51c.2-.57.42-1.14.64-1.7s.49-1.1.69-1.68c.08-.23-.24-.33-.37-.15a13.62,13.62,0,0,0-1.49,3,24.17,24.17,0,0,0-1,3.13,29.27,29.27,0,0,0-.87,6.59,30.63,30.63,0,0,0,2.65,13,27.79,27.79,0,0,0,3.93,6.33.4.4,0,0,0,.56,0A.42.42,0,0,0,219.06,71.9Z"/><path class="cls-3" d="M207.3,74.74a1.78,1.78,0,0,1-1.72-.07,2,2,0,0,1-.93-1.6A3.2,3.2,0,0,1,207,70a.35.35,0,0,0-.18-.67,2.19,2.19,0,0,1-2.42-2,2.11,2.11,0,0,1,.76-1.58,2.94,2.94,0,0,1,1.7-.66c.18,0,.13-.26,0-.32a2.1,2.1,0,0,0-1.72.24,2.91,2.91,0,0,0-1.2,1.35A2.65,2.65,0,0,0,205,69.54a2.58,2.58,0,0,0,.69.33A3.76,3.76,0,0,0,204,72.12a2.81,2.81,0,0,0,1.57,3.33,2.34,2.34,0,0,0,2-.12A.34.34,0,0,0,207.3,74.74Z"/><path class="cls-3" d="M181,58.58a2.32,2.32,0,0,0-.25.42A2.22,2.22,0,0,0,179,59a3.26,3.26,0,0,0-1.6,1.18,3,3,0,0,0,.41,3.82,3.48,3.48,0,0,0,.72.54,4.54,4.54,0,0,0-2.8,2.06,3.11,3.11,0,0,0,.74,4.14,2.52,2.52,0,0,0,2.25.37,3.06,3.06,0,0,0,1.89,2.83,2.67,2.67,0,0,0,2.4-.17c.36-.23,0-.8-.33-.57a2.21,2.21,0,0,1-3-1,3.11,3.11,0,0,1,1-3.71,4.67,4.67,0,0,1,2.15-.94.33.33,0,0,0-.17-.64,1.62,1.62,0,0,1-1.55-.45,1.86,1.86,0,0,1-.5-1.71,3.14,3.14,0,0,1,3-2.3h.08c.35-.09.29-.68-.08-.64h-.11a2,2,0,0,1-2.38-2.22,2.29,2.29,0,0,1,2.91-1.52c.13,0,.18-.14.08-.21A2.41,2.41,0,0,0,181,58.58Zm0,8.58a2.43,2.43,0,0,0,.35.2,4.32,4.32,0,0,0-2.34,2.53,3.1,3.1,0,0,0-.11.51.37.37,0,0,0-.18,0A2.06,2.06,0,0,1,176,68.87a3.17,3.17,0,0,1,1.7-3.3,5.5,5.5,0,0,1,2.24-.64A2.47,2.47,0,0,0,180.92,67.16ZM181.6,62a3,3,0,0,0,.38.23,3.49,3.49,0,0,0-1.69,1.53,3.33,3.33,0,0,0-.21.52H180a2.64,2.64,0,0,1-2.46-2A2.46,2.46,0,0,1,179,59.53a3,3,0,0,1,.88-.28,4.85,4.85,0,0,1,.76,0A2.52,2.52,0,0,0,181.6,62Z"/><path class="cls-3" d="M178.87,42.22a4.36,4.36,0,0,0,1.09.36,3.91,3.91,0,0,0-2.17,1.57,2.63,2.63,0,0,0-.39,1.94,2.28,2.28,0,0,0,1.33,1.55,5.58,5.58,0,0,0,2.81.26c.42,0,.42-.7,0-.66a4.67,4.67,0,0,1-2.67-.26,1.58,1.58,0,0,1-.82-1.78c.41-1.73,2.36-2.13,3.85-2.42.38-.07.26-.62-.09-.64-1.34-.07-3-.16-3.75-1.51a1.67,1.67,0,0,1,.11-1.71,2.93,2.93,0,0,1,1.59-1.17,6.28,6.28,0,0,1,1.29-.26,2.11,2.11,0,0,0,1.14-.26s0-.09,0-.12a2,2,0,0,0-1.26-.12,6.43,6.43,0,0,0-1.3.22,3.5,3.5,0,0,0-1.9,1.32,2.34,2.34,0,0,0-.32,2.08A3,3,0,0,0,178.87,42.22Z"/><path class="cls-3" d="M169.92,49a6.62,6.62,0,0,0-2.66.09,3.22,3.22,0,0,0-1.69,1.18c-.95,1.32-.14,3,1.05,3.83a5.9,5.9,0,0,0,1.25.64A4.57,4.57,0,0,0,165,56.35a3.3,3.3,0,0,0-.32.55,2.92,2.92,0,0,1-2.12-3.06,2.89,2.89,0,0,1,.92-1.75,3,3,0,0,1,.83-.57,3.93,3.93,0,0,1,.43-.18,2,2,0,0,0,.47-.2.11.11,0,0,0,0-.19,1.27,1.27,0,0,0-.84,0,3,3,0,0,0-.83.38,3.64,3.64,0,0,0-1.26,1.41,3.51,3.51,0,0,0,2.19,4.78,2.57,2.57,0,0,0,0,.78,2.35,2.35,0,0,0,1.2,1.76,4.85,4.85,0,0,0,2.88.45c.43,0,.44-.71,0-.68-1.2.1-3.1,0-3.4-1.49-.24-1.25.9-2.29,1.95-2.68a11.23,11.23,0,0,1,2.37-.5c.35-.05.29-.57,0-.65-1.26-.37-2.71-.79-3.35-2.06a1.82,1.82,0,0,1,0-1.71,2.48,2.48,0,0,1,1.36-1.06,7.57,7.57,0,0,1,2.56-.26C170.21,49.44,170.2,49,169.92,49Z"/><path class="cls-3" d="M156.78,56.48A5,5,0,0,0,153.26,59a2.82,2.82,0,0,0-.24.69.17.17,0,0,0-.12-.06,3.44,3.44,0,0,0-3.26,2.08,3.5,3.5,0,0,0,.77,3.86,3.87,3.87,0,0,0,.64.51,3.82,3.82,0,0,0-1.06,6.9,3.83,3.83,0,0,0,1.29.53,2.52,2.52,0,0,0,1.28,0,3.87,3.87,0,0,0,.81,3.17,2.9,2.9,0,0,0,1.75,1c.45.08.64-.61.19-.68a2.79,2.79,0,0,1-2.14-2.91,5.12,5.12,0,0,1,2.47-3.76c.3-.21.12-.73-.26-.61a1.81,1.81,0,0,1-1.78-.54,2.36,2.36,0,0,1-.6-2c.22-1.69,1.64-2.83,2.95-3.74.23-.17.18-.63-.16-.6a2.24,2.24,0,0,1-2.2-1.88,3.13,3.13,0,0,1,1.32-3.09,6.77,6.77,0,0,1,2-1A.18.18,0,0,0,156.78,56.48ZM153.51,70a2.6,2.6,0,0,0,1,.43,5.84,5.84,0,0,0-1.77,2.55l0,0c-.35,0-.71,0-1.06-.07a3.5,3.5,0,0,1-1-.33,3.14,3.14,0,0,1-.33-5.41,3.34,3.34,0,0,1,2.19-.54A3.1,3.1,0,0,0,153.51,70Zm.32-7.26a2.63,2.63,0,0,0,1.12.67,6.79,6.79,0,0,0-2.25,2.57.33.33,0,0,0-.14,0,3.1,3.1,0,0,1-2.5-2.13,2.88,2.88,0,0,1,1-3.07A3.52,3.52,0,0,1,152.9,60l0,0A3.25,3.25,0,0,0,153.83,62.7Z"/><path class="cls-3" d="M147.78,48.38a4.33,4.33,0,0,1-2.36-.68,1.39,1.39,0,0,1-.43-1.81,3.23,3.23,0,0,1,1.79-1.2,7,7,0,0,0,2.23-1c.25-.19,0-.59-.29-.51A2.1,2.1,0,0,1,146,41.43a2.69,2.69,0,0,1,2.14-2.69,7.3,7.3,0,0,1,1.3-.26,5.67,5.67,0,0,0,1.3-.19.12.12,0,0,0,0-.22,3.36,3.36,0,0,0-1.34,0,6.71,6.71,0,0,0-1.34.23,4,4,0,0,0-1.91,1.13,2.73,2.73,0,0,0-.7,2,2.66,2.66,0,0,0,1,1.88,2.72,2.72,0,0,0,1.07.48c-.32.12-.64.22-1,.32a4.46,4.46,0,0,0-1.74,1,2,2,0,0,0-.62,1.75,2.34,2.34,0,0,0,1.12,1.53,3.77,3.77,0,0,0,1.17.44A4.45,4.45,0,0,0,144.19,51a2.8,2.8,0,0,0,.95,3.66,2.21,2.21,0,0,0,2.06.13c.37-.17.05-.71-.31-.55a1.67,1.67,0,0,1-1.73-.35,2,2,0,0,1-.63-1.9c.28-1.66,1.85-2.56,3.34-3A.31.31,0,0,0,147.78,48.38Z"/><path class="cls-3" d="M129.37,40.15c-1.39-.16-3.13-.12-4.06,1.1a2,2,0,0,0,.51,3.09,6.07,6.07,0,0,0,1.12.35,4.62,4.62,0,0,0-3.59,1.75,3.13,3.13,0,0,0-.43,1h0a2.44,2.44,0,0,1-1.39-2.94,2.58,2.58,0,0,1,2.92-1.59.21.21,0,0,0,.11-.41,2.87,2.87,0,0,0-3.26,4.25,3.41,3.41,0,0,0,.53.66,3.6,3.6,0,0,0-2.52,1.71,3.25,3.25,0,0,0,.66,4,3.72,3.72,0,0,0,1,.69,3.94,3.94,0,0,0-2.09,2.82,3.67,3.67,0,0,0,2.13,3.9,3.71,3.71,0,0,0,2.66.24.32.32,0,0,0-.17-.62A3.31,3.31,0,0,1,120,58.81a3,3,0,0,1,.23-3.7A3.13,3.13,0,0,1,122.19,54a.32.32,0,0,0,0-.64,2.84,2.84,0,0,1-2.57-2.08,2.62,2.62,0,0,1,1.26-2.91,2.67,2.67,0,0,1,1.87-.37h.09a2.36,2.36,0,0,0,.07.65,2.51,2.51,0,0,0,1.48,1.57,3.53,3.53,0,0,0,.46.15,4.12,4.12,0,0,0-2.15,2.39,3.6,3.6,0,0,0,2,4.28,3.38,3.38,0,0,0,.69.26,3.5,3.5,0,0,0-1.35,2,3.08,3.08,0,0,0,2,3.47,2.8,2.8,0,0,0,2.3-.07c.41-.2.06-.81-.35-.61a2.39,2.39,0,0,1-2.45-4,2.92,2.92,0,0,1,1-.63,3.42,3.42,0,0,0,1-.2c.33-.13.31-.67-.09-.66a3,3,0,0,0-1,.19,3.33,3.33,0,0,1-2.74-1.47,2.66,2.66,0,0,1-.41-2.05,3.39,3.39,0,0,1,1.18-1.87,3.19,3.19,0,0,1,2.19-.73h.29c.35,0,.45-.58.08-.63h-.08c-1.12,0-2.73-.13-3.29-1.29a1.9,1.9,0,0,1,.16-1.76,3.06,3.06,0,0,1,1.62-1.3,10,10,0,0,1,2.71-.44c.23,0,.44-.34.22-.52a4.1,4.1,0,0,0-1.61-.64,1.7,1.7,0,0,1-1.28-.84,1.67,1.67,0,0,1,.19-1.44,2.29,2.29,0,0,1,1.4-1,9.66,9.66,0,0,1,2.34-.27A.17.17,0,0,0,129.37,40.15Z"/><path class="cls-3" d="M135.35,65.58a2.69,2.69,0,0,0-2.06.15,3.49,3.49,0,0,0-1.58,1.41,3.22,3.22,0,0,0,.76,4,3.57,3.57,0,0,0,1.06.64,4.51,4.51,0,0,0-2.64,2.2,2.84,2.84,0,0,0-.18,2.1A2.19,2.19,0,0,0,132,77.47a1.87,1.87,0,0,0,2-.25c.25-.22-.09-.68-.36-.47A1.56,1.56,0,0,1,131.3,76a2.79,2.79,0,0,1,1.45-3.08,7.72,7.72,0,0,1,2.13-.85.31.31,0,0,0-.08-.6A2.89,2.89,0,0,1,132,69.36a2.71,2.71,0,0,1,1.34-3.06,3.49,3.49,0,0,1,2-.43C135.49,65.88,135.49,65.64,135.35,65.58Z"/><path class="cls-3" d="M137.11,55.64c-.28-.07-.61.09-.9.09a2.63,2.63,0,0,1-.84-.12,2.35,2.35,0,0,1-1.32-1.08,2.49,2.49,0,0,1,.64-3.19,3.59,3.59,0,0,1,1.9-.63.12.12,0,0,0,0-.24,2.49,2.49,0,0,0-2,.28,2.88,2.88,0,0,0-1.32,1.63,3.09,3.09,0,0,0,1.56,3.7,3.41,3.41,0,0,0,1.17.33,3.19,3.19,0,0,0,.62,0,1,1,0,0,0,.63-.22A.32.32,0,0,0,137.11,55.64Z"/><path class="cls-3" d="M162.91,38.39a5.34,5.34,0,0,0,1.46.54,7.92,7.92,0,0,0,1.61.24.34.34,0,0,0,.09-.67c-.39-.09-.8-.1-1.19-.17A6,6,0,0,1,163.7,38a3,3,0,0,1-1.61-1.32c-.71-1.33.41-2.61,1.66-3a5.27,5.27,0,0,1,1.42-.23h.72a2.72,2.72,0,0,0,.7-.05.09.09,0,0,0,0-.16,1.87,1.87,0,0,0-.63-.14,6.31,6.31,0,0,0-.76-.07,6.42,6.42,0,0,0-1.39.11,3.47,3.47,0,0,0-2,1.21,2.38,2.38,0,0,0-.44,2.22A3.25,3.25,0,0,0,162.91,38.39Z"/><path class="cls-3" d="M169.77,76.52a18.41,18.41,0,0,1-3.15-.11,13,13,0,0,1-1.52-.25,1.46,1.46,0,0,1-1.07-.63,2.36,2.36,0,0,1,.38-2.29,4.64,4.64,0,0,1,1.9-1.58A11.19,11.19,0,0,1,169.5,71a.09.09,0,0,0,0-.17,5.87,5.87,0,0,0-5.41,2,3.24,3.24,0,0,0-.7,2.63c.28,1.07,1.37,1.3,2.32,1.46a19,19,0,0,0,4.06.27C170.18,77.14,170.18,76.5,169.77,76.52Z"/><path class="cls-3" d="M117.67,62.28c-1.49,0-3.23.38-4,1.77a2.22,2.22,0,0,0-.21,1.94,2.61,2.61,0,0,0,1.23,1.29,5.92,5.92,0,0,0,.73.31,4.62,4.62,0,0,0-2.71,2,3.41,3.41,0,0,0,.45,4.22,3.12,3.12,0,0,0,1.13.65,3,3,0,0,0-1.14,2.06,2.71,2.71,0,0,0,1.81,2.74,2.76,2.76,0,0,0,1.94,0c.39-.15.22-.78-.18-.63a2.15,2.15,0,1,1-1.21-4.1.32.32,0,0,0,.23-.39.34.34,0,0,0-.4-.23,2.38,2.38,0,0,1-2.5-2.07,3.41,3.41,0,0,1,1.76-3.29,5.21,5.21,0,0,1,2.21-.66c.32,0,.45-.53.08-.6-.93-.18-2.18-.43-2.74-1.29-.74-1.13.25-2.38,1.29-2.84a11.68,11.68,0,0,1,2.33-.58A.18.18,0,0,0,117.67,62.28Z"/><path class="cls-3" d="M107.35,53.67a2.79,2.79,0,0,1-1.93,0A2.64,2.64,0,0,1,104,52.33a3.39,3.39,0,0,1,.92-3.94,4.53,4.53,0,0,1,2.21-1c.3-.05.28-.53,0-.59-1.19-.29-2.92-.77-2.89-2.3,0-1.74,2-2.5,3.33-3.05.2-.09.13-.42-.1-.35-1.35.41-2.83,1-3.49,2.32a2.49,2.49,0,0,0-.16,1.93A2.69,2.69,0,0,0,105,46.66a5,5,0,0,0,.94.42,4.44,4.44,0,0,0-2.68,2.8A3.56,3.56,0,0,0,105,54.15a3,3,0,0,0,2.59.05A.29.29,0,0,0,107.35,53.67Z"/><path class="cls-3" d="M107.06,66.28a2,2,0,0,1-2.51-1.75,1.92,1.92,0,0,1,.77-1.52,2.34,2.34,0,0,1,1.73-.47.16.16,0,0,0,.08-.29,2.36,2.36,0,0,0-2.87,1.26.17.17,0,0,0-.08-.06,3,3,0,0,0-2.17.21,3.66,3.66,0,0,0-1.62,1.54,3.36,3.36,0,0,0,.94,4.19,3.21,3.21,0,0,0,2.49.79.28.28,0,0,0,.11-.05,3,3,0,0,0,.8,1.54,2.34,2.34,0,0,0,1.77.75.32.32,0,0,0,0-.63,2.18,2.18,0,0,1-2-2.46,3.2,3.2,0,0,1,2.7-2.47A.3.3,0,0,0,107.06,66.28Zm-2.9,2.11a3,3,0,0,0-.27,1.27.25.25,0,0,0-.15-.06,4.12,4.12,0,0,1-1-.11,2.94,2.94,0,0,1-.87-.43,3.13,3.13,0,0,1-1.18-1.55,2.82,2.82,0,0,1,1.35-3.26,3.34,3.34,0,0,1,2.09-.47h0a2.38,2.38,0,0,0,1.11,2.81,4,4,0,0,0,.42.2A3.61,3.61,0,0,0,104.16,68.39Z"/><path class="cls-3" d="M95.47,51a4,4,0,0,0-4.34,1.36,3,3,0,0,0,.23,4.08,2.61,2.61,0,0,0,.43.31,3.11,3.11,0,0,0-1.53,1.42,4,4,0,0,0-.15.4.5.5,0,0,0-.13,0,2.43,2.43,0,0,1-2.4-2.52,2.46,2.46,0,0,1,.92-1.61,3.12,3.12,0,0,1,1.83-.64.14.14,0,0,0,0-.27A2.73,2.73,0,0,0,87.29,55,2.86,2.86,0,0,0,88,58.44a3.34,3.34,0,0,0,.63.43,3.78,3.78,0,0,0-2.32,1.49,2.26,2.26,0,0,0-.35,1.8,2.52,2.52,0,0,0,1.12,1.44,5,5,0,0,0,2.41.67h.05a2,2,0,0,0,.14.95A2.59,2.59,0,0,0,91,66.49a6.35,6.35,0,0,0,2.44.47c.42,0,.42-.62,0-.64a5.23,5.23,0,0,1-2.28-.46,1.69,1.69,0,0,1-1-1.5,2.12,2.12,0,0,1,1.12-1.6,6.73,6.73,0,0,1,2.24-.66.31.31,0,0,0-.16-.59,2.32,2.32,0,0,1-2.59-1.33,2.17,2.17,0,0,1,1-2.7,2.63,2.63,0,0,1,1-.35,2.64,2.64,0,0,0,.93,0,.29.29,0,0,0,0-.55,2.7,2.7,0,0,0-1,0,2.3,2.3,0,0,1-1.62-2,3.08,3.08,0,0,1,2.11-3,5.61,5.61,0,0,1,2.34-.23C95.6,51.34,95.62,51.08,95.47,51ZM91.33,61.72l.37.19a3.24,3.24,0,0,0-1.9,1.49c0,.1-.09.21-.13.31l-.1-.05A5.59,5.59,0,0,1,87.31,63a1.61,1.61,0,0,1-.74-1.65c.35-1.54,2.11-1.89,3.43-2.12A2.87,2.87,0,0,0,91.33,61.72Z"/><path class="cls-3" d="M80.34,61.75a4.53,4.53,0,0,0-4,.94,2.25,2.25,0,0,0-.66,1.68A2.45,2.45,0,0,0,76.66,66a3.33,3.33,0,0,0,.74.45,3,3,0,0,0-1.93,1.46,2.55,2.55,0,0,0,.91,3.49,2.32,2.32,0,0,0,2.1.08c.36-.17,0-.71-.32-.54a1.72,1.72,0,0,1-1.74-.24A1.89,1.89,0,0,1,75.76,69,2.58,2.58,0,0,1,79,67c.38.08.55-.5.16-.59a5,5,0,0,1-2.21-1,1.65,1.65,0,0,1-.55-1.79,2.37,2.37,0,0,1,1.44-1.33A9.4,9.4,0,0,1,80.3,62C80.43,62,80.5,61.77,80.34,61.75Z"/><path class="cls-3" d="M76.76,54a6.47,6.47,0,0,0,1.37.25.3.3,0,0,0,.08-.59c-.43-.12-.89-.15-1.33-.26a4.37,4.37,0,0,1-1.15-.45,1.89,1.89,0,0,1,0-3.48,7.14,7.14,0,0,1,2.54-.55.11.11,0,0,0,0-.22,4.17,4.17,0,0,0-2.32.12A3,3,0,0,0,74.37,50a2.5,2.5,0,0,0,1.15,3.44A5.06,5.06,0,0,0,76.76,54Z"/><path class="cls-3" d="M66.88,56.07a2.58,2.58,0,0,0-.52,1.73,1.25,1.25,0,0,0-.69-.07,2.32,2.32,0,0,0-.77.25,2.66,2.66,0,0,0-1.14,1.16,2.58,2.58,0,0,0,.64,3.07,2.48,2.48,0,0,0,1.42.67,2.73,2.73,0,0,0,1.28,2.59,2.62,2.62,0,0,0,2.17.25c.36-.13.2-.71-.16-.58a2,2,0,0,1-1.93-.33A2.14,2.14,0,0,1,66.39,63a2.74,2.74,0,0,1,3.1-2.42.28.28,0,0,0,0-.55H69A2.55,2.55,0,0,1,66.9,58.1a2.3,2.3,0,0,1,1.51-2.6,2.65,2.65,0,0,1,1.78-.07.15.15,0,0,0,.11-.28A2.84,2.84,0,0,0,66.88,56.07Zm.42,3.69a3.16,3.16,0,0,0,.64.44,3.19,3.19,0,0,0-1.87,1.68,3.12,3.12,0,0,0-.15.43,3.09,3.09,0,0,1-.59-.18,2.41,2.41,0,0,1-.69-.49,2.08,2.08,0,0,1-.58-1.57,2.15,2.15,0,0,1,.8-1.44,2.39,2.39,0,0,1,.74-.43,3.17,3.17,0,0,1,.41-.12c.12,0,.25,0,.36-.08A3,3,0,0,0,67.3,59.76Z"/><path class="cls-3" d="M58.18,63.11c-.37,0-.73,0-1.1,0a2.91,2.91,0,0,1-1-.34,2.35,2.35,0,0,1-1.16-1.52,1.72,1.72,0,0,1,.49-1.67,1.67,1.67,0,0,1,1.68-.34c.16.05.23-.17.11-.25a2,2,0,0,0-2.75,1.15,2.77,2.77,0,0,0,1.51,3.25,4,4,0,0,0,1.12.35,2.56,2.56,0,0,0,1.2,0A.28.28,0,0,0,58.18,63.11Z"/></g></g></g></svg>