<?xml version="1.0" encoding="utf-8"?>
<!-- Generator: Adobe Illustrator 25.4.1, SVG Export Plug-In . SVG Version: 6.00 Build 0)  -->
<svg version="1.1" id="레이어_1" xmlns="http://www.w3.org/2000/svg" xmlns:xlink="http://www.w3.org/1999/xlink" x="0px"
	 y="0px" viewBox="0 0 14.4 15.4" style="enable-background:new 0 0 14.4 15.4;" xml:space="preserve">
<style type="text/css">
	.st0{fill:#666666;}
</style>
<path class="st0" d="M7.2,13.4c-0.1,0-0.1,0-0.2,0c-0.9-0.5-1.8-1.1-2.5-1.9c-1.9-1.7-2.6-4.2-2-6.7C3.1,2.8,5,1.4,7.2,1.6
	c2.1-0.2,4.1,1.2,4.7,3.2l0,0c1.5,5.5-4.4,8.5-4.5,8.5C7.3,13.3,7.3,13.4,7.2,13.4z M7.2,2.6C6.5,2.6,4,2.8,3.4,5.1
	c-0.6,2.1,0.1,4.3,1.7,5.7c0.6,0.6,1.3,1.1,2,1.6c1-0.6,4.9-3,3.7-7.2l0,0C10.3,2.8,7.9,2.6,7.2,2.6z"/>
<path class="st0" d="M7.2,8.3C6,8.3,5.1,7.4,5.1,6.2S6,4.2,7.2,4.2s2.1,0.9,2.1,2.1S8.3,8.3,7.2,8.3L7.2,8.3z M7.2,5.2
	c-0.6,0-1.1,0.5-1.1,1.1c0,0.6,0.5,1.1,1.1,1.1c0.6,0,1.1-0.5,1.1-1.1c0,0,0,0,0,0C8.2,5.7,7.8,5.2,7.2,5.2z"/>
<path class="st0" d="M7.1,14.3c-2.1,0-4.3-0.6-4.3-1.9c0-0.8,0.8-1.3,2.2-1.6c0.3-0.1,0.5,0.1,0.6,0.4c0.1,0.3-0.1,0.5-0.4,0.6
	c-1,0.2-1.4,0.6-1.4,0.7s1.2,0.9,3.3,0.9s3.3-0.6,3.3-0.9c0-0.1-0.2-0.3-1-0.6c-0.3,0-0.4-0.3-0.4-0.6c0,0,0,0,0-0.1
	c0.1-0.3,0.4-0.4,0.6-0.3c1.5,0.4,1.8,1.2,1.8,1.5C11.4,13.7,9.1,14.3,7.1,14.3z"/>
</svg>
