<?xml version="1.0" encoding="utf-8"?>
<!-- Generator: Adobe Illustrator 25.4.1, SVG Export Plug-In . SVG Version: 6.00 Build 0)  -->
<svg version="1.1" id="레이어_1" xmlns="http://www.w3.org/2000/svg" xmlns:xlink="http://www.w3.org/1999/xlink" x="0px"
	 y="0px" viewBox="0 0 14.4 15.4" style="enable-background:new 0 0 14.4 15.4;" xml:space="preserve">
<style type="text/css">
	.st0{fill:#666666;}
</style>
<path class="st0" d="M7.2,13.1c-0.2,0-0.5-0.2-0.5-0.4c0-0.1-0.1-0.4-0.7-0.4H2.5c-0.4,0-0.8-0.1-1.1-0.4c-0.4-0.3-0.5-0.8-0.5-1.3
	V4c0-0.4,0.2-0.7,0.4-1c0.4-0.3,0.8-0.5,1.3-0.5h3.8c0.7,0,1.2,0.6,1.3,1.2v8.9C7.7,12.9,7.5,13.1,7.2,13.1L7.2,13.1z M6,11.3
	c0.2,0,0.5,0,0.7,0.1V3.7c0-0.2-0.4-0.2-0.4-0.2H2.6C2,3.5,1.9,3.8,1.9,4v6.6c0,0.2,0.1,0.4,0.2,0.6c0.1,0.1,0.2,0.1,0.4,0.1L6,11.3
	z"/>
<path class="st0" d="M7.2,13.1L7.2,13.1c-0.3,0-0.5-0.2-0.5-0.5V3.7c0.1-0.6,0.6-1.2,1.2-1.2h3.9c0.5,0,1,0.1,1.3,0.5
	c0.3,0.3,0.4,0.6,0.4,1v6.6c0,0.5-0.2,1-0.5,1.3c-0.3,0.3-0.7,0.4-1.1,0.4H8.4c-0.7,0-0.7,0.4-0.7,0.4C7.6,13,7.4,13.1,7.2,13.1z
	 M8,3.5c0,0-0.3,0.1-0.3,0.2v7.7c0.2-0.1,0.5-0.1,0.7-0.1h3.5c0.2,0,0.3,0,0.4-0.1c0.1-0.2,0.2-0.4,0.2-0.6V4c0-0.2-0.1-0.5-0.7-0.5
	L8,3.5z"/>
<path class="st0" d="M5.6,5.2H3C2.7,5.2,2.5,5,2.5,4.7S2.7,4.2,3,4.2h2.6c0.3,0,0.5,0.2,0.5,0.5S5.9,5.2,5.6,5.2z"/>
<path class="st0" d="M5.6,6.7H3c-0.3,0-0.5-0.2-0.5-0.5S2.7,5.7,3,5.7h2.6c0.3,0,0.5,0.2,0.5,0.5S5.9,6.7,5.6,6.7z"/>
<path class="st0" d="M5.6,8.2H3c-0.3,0-0.5-0.2-0.5-0.5S2.7,7.2,3,7.2h2.6c0.3,0,0.5,0.2,0.5,0.5S5.9,8.2,5.6,8.2z"/>
<path class="st0" d="M4.3,9.6H3c-0.3,0-0.5-0.2-0.5-0.5S2.7,8.6,3,8.6h1.3c0.3,0,0.5,0.2,0.5,0.5S4.6,9.6,4.3,9.6z"/>
<path class="st0" d="M11.6,5.2H9C8.7,5.2,8.5,5,8.5,4.7c0-0.3,0.2-0.5,0.5-0.5h2.7c0.3,0,0.5,0.2,0.5,0.5C12.2,5,11.9,5.2,11.6,5.2
	C11.6,5.2,11.6,5.2,11.6,5.2z"/>
<path class="st0" d="M11.6,6.7H9c-0.3,0-0.5-0.2-0.5-0.5c0-0.3,0.2-0.5,0.5-0.5h2.7c0.3,0,0.5,0.2,0.5,0.5
	C12.2,6.5,11.9,6.7,11.6,6.7C11.7,6.7,11.6,6.7,11.6,6.7z"/>
<path class="st0" d="M10.6,8.2H9c-0.3,0-0.5-0.2-0.5-0.5c0-0.3,0.2-0.5,0.5-0.5h1.6c0.3,0,0.5,0.2,0.5,0.5C11.1,8,10.9,8.2,10.6,8.2
	C10.6,8.2,10.6,8.2,10.6,8.2z"/>
<path class="st0" d="M9.6,9.6H9c-0.3,0-0.5-0.2-0.5-0.5S8.7,8.6,9,8.6h0.7c0.3,0,0.5,0.2,0.5,0.5S9.9,9.6,9.6,9.6L9.6,9.6z"/>
</svg>
