<?xml version="1.0" encoding="utf-8"?>
<!-- Generator: Adobe Illustrator 25.4.1, SVG Export Plug-In . SVG Version: 6.00 Build 0)  -->
<svg version="1.1" id="레이어_1" xmlns="http://www.w3.org/2000/svg" xmlns:xlink="http://www.w3.org/1999/xlink" x="0px"
	 y="0px" viewBox="0 0 14.4 15.4" style="enable-background:new 0 0 14.4 15.4;" xml:space="preserve">
<style type="text/css">
	.st0{fill:#666666;}
</style>
<path class="st0" d="M1.8,14.3c-0.1,0-0.3-0.1-0.4-0.1c-0.1-0.1-0.2-0.3-0.1-0.5l1.9-8.5c0-0.2,0.2-0.3,0.3-0.4C3.7,4.8,3.9,4.9,4,5
	l6.7,6.6c0.1,0.1,0.2,0.3,0.1,0.5c-0.1,0.2-0.2,0.3-0.4,0.4l-8.6,1.8L1.8,14.3z M3.9,6.3l-1.5,6.8l6.9-1.5L3.9,6.3z"/>
<path class="st0" d="M10.9,10.3c-1.1,0-2-0.9-2-2s0.9-2,2-2s2,0.9,2,2S12,10.3,10.9,10.3z M10.9,7.3c-0.6,0-1,0.4-1,1s0.4,1,1,1
	s1-0.4,1-1S11.5,7.3,10.9,7.3C10.9,7.3,10.9,7.3,10.9,7.3z"/>
<polygon class="st0" points="12.5,2.3 12.9,3 13.6,3.4 12.9,3.8 12.5,4.6 12.1,3.8 11.4,3.4 12.1,3 "/>
<polygon class="st0" points="8,1.7 8.7,3.1 10.2,3.4 9.1,4.5 9.4,6 8,5.3 6.6,6 6.9,4.5 5.7,3.4 7.3,3.1 "/>
</svg>
