<?xml version="1.0" encoding="utf-8"?>
<!-- Generator: Adobe Illustrator 25.4.1, SVG Export Plug-In . SVG Version: 6.00 Build 0)  -->
<svg version="1.1" id="레이어_1" xmlns="http://www.w3.org/2000/svg" xmlns:xlink="http://www.w3.org/1999/xlink" x="0px"
	 y="0px" viewBox="0 0 14.4 15.4" style="enable-background:new 0 0 14.4 15.4;" xml:space="preserve">
<style type="text/css">
	.st0{fill:#666666;}
</style>
<path class="st0" d="M12.1,7.1c-0.3,0-0.5-0.2-0.5-0.5V5.2c0-0.4-0.4-0.8-0.8-0.8l0,0H3.6c-0.4,0-0.8,0.4-0.8,0.8v1.2
	c0,0.3-0.2,0.5-0.5,0.5C2,6.9,1.7,6.6,1.7,6.4V5.2c0-1,0.8-1.8,1.8-1.8h7.2c1,0,1.8,0.8,1.8,1.8v1.4C12.6,6.9,12.4,7.1,12.1,7.1z"/>
<path class="st0" d="M12,13.8H2.4c-1,0-1.8-0.8-1.8-1.8V6.9c0-0.5,0.2-1.1,0.7-1.4l0.6,0.8C1.7,6.4,1.6,6.6,1.6,6.9V12
	c0,0.4,0.4,0.8,0.8,0.8H12c0.5,0,0.8-0.4,0.8-0.8V6.9c0-0.2,0-0.3-0.1-0.4l0.8-0.6c0.2,0.3,0.3,0.6,0.3,1V12
	C13.8,13,13,13.8,12,13.8z"/>
<path class="st0" d="M7.3,11H7.1c-0.3,0-0.6-0.2-0.8-0.4L1.2,6.2C1,6,1,5.7,1.2,5.5c0,0,0,0,0,0c0.2-0.2,0.5-0.2,0.7,0L7.1,10l0,0
	c0.1,0.1,0.1,0.1,0.2,0.1c0.2,0,0.3-0.1,0.4-0.2c0.8-0.7,5-4,5.1-4.1c0.2-0.2,0.5-0.1,0.7,0.1c0.2,0.2,0.1,0.5-0.1,0.7
	c-0.1,0-4.3,3.4-5.1,4.1C8,10.9,7.6,11,7.3,11z"/>
<path class="st0" d="M8.9,4.2c0,0-0.9-0.9-1.5-1.5c0-0.1-0.1-0.1-0.2-0.1c0,0-0.1,0-0.1,0.1L7.1,2.8L5.6,4.1C5.3,4.3,5,4.2,4.8,4
	C4.7,3.8,4.7,3.5,4.9,3.3l0,0L6.5,2c0.2-0.2,0.5-0.4,0.8-0.4c0.4,0,0.7,0.1,1,0.4c0.6,0.6,1.5,1.5,1.5,1.5L8.9,4.2z"/>
<path class="st0" d="M7,6.3H6.2V5.8h2.2v0.5H7.6v2.4H7V6.3z"/>
<circle class="st0" cx="6.2" cy="6.1" r="0.2"/>
<circle class="st0" cx="8.4" cy="6.1" r="0.2"/>
<circle class="st0" cx="7.3" cy="8.7" r="0.3"/>
</svg>
