<?xml version="1.0" encoding="utf-8"?>
<!-- Generator: Adobe Illustrator 25.4.1, SVG Export Plug-In . SVG Version: 6.00 Build 0)  -->
<svg version="1.1" id="레이어_1" xmlns="http://www.w3.org/2000/svg" xmlns:xlink="http://www.w3.org/1999/xlink" x="0px"
	 y="0px" viewBox="0 0 14.4 15.4" style="enable-background:new 0 0 14.4 15.4;" xml:space="preserve">
<style type="text/css">
	.st0{fill:#666666;}
	.st1{fill:none;stroke:#666666;stroke-linecap:round;stroke-linejoin:round;stroke-miterlimit:10;}
</style>
<path class="st0" d="M10.9,10.3c-1.1,0-2-0.9-2-2s0.9-2,2-2s2,0.9,2,2S12,10.3,10.9,10.3z M10.9,7.3c-0.6,0-1,0.4-1,1
	c0,0.6,0.4,1,1,1s1-0.4,1-1S11.5,7.3,10.9,7.3L10.9,7.3z"/>
<polygon class="st0" points="12.5,2.3 12.9,3 13.6,3.4 12.9,3.8 12.5,4.6 12.1,3.8 11.4,3.4 12.1,3 "/>
<polygon class="st0" points="8,1.7 8.7,3.1 10.2,3.4 9.1,4.5 9.4,6 8,5.3 6.6,6 6.9,4.5 5.7,3.4 7.3,3.1 "/>
<polygon class="st1" points="4.8,6.7 1.6,13.8 9.5,11.8 "/>
</svg>
