<?xml version="1.0" encoding="utf-8"?>
<!-- Generator: Adobe Illustrator 25.4.1, SVG Export Plug-In . SVG Version: 6.00 Build 0)  -->
<svg version="1.1" id="레이어_1" xmlns="http://www.w3.org/2000/svg" xmlns:xlink="http://www.w3.org/1999/xlink" x="0px"
	 y="0px" viewBox="0 0 14.4 15.4" style="enable-background:new 0 0 14.4 15.4;" xml:space="preserve">
<style type="text/css">
	.st0{fill:#666666;}
</style>
<path class="st0" d="M9.4,13.4H5c-1.2,0-2.2-1-2.2-2.2V4c0-0.3,0.2-0.5,0.5-0.5h7.7c0.3,0,0.5,0.2,0.5,0.5c0,0.1,0,0.1,0,0.2
	c0,0.1,0,0.1,0,0.2v6.9C11.6,12.4,10.6,13.4,9.4,13.4z M3.8,4.5v6.8c0,0.6,0.5,1.2,1.2,1.2c0,0,0,0,0,0h4.4c0.6,0,1.2-0.5,1.2-1.2
	V4.5H3.8z"/>
<path class="st0" d="M5.3,11c-0.3,0-0.5-0.2-0.5-0.5V5.6c0-0.3,0.2-0.5,0.5-0.5s0.5,0.2,0.5,0.5v4.8C5.8,10.8,5.6,11,5.3,11
	C5.3,11,5.3,11,5.3,11z"/>
<path class="st0" d="M7.2,11c-0.3,0-0.5-0.2-0.5-0.5V5.6c0-0.3,0.2-0.5,0.5-0.5s0.5,0.2,0.5,0.5v4.8C7.7,10.8,7.5,11,7.2,11
	C7.2,11,7.2,11,7.2,11z"/>
<path class="st0" d="M9,11c-0.3,0-0.5-0.2-0.5-0.5V5.6c0-0.3,0.2-0.5,0.5-0.5s0.5,0.2,0.5,0.5v4.8C9.5,10.8,9.3,11,9,11
	C9,11,9,11,9,11z"/>
<path class="st0" d="M9.5,14.2C9.3,14.2,9,14,9,13.7V13c0-0.3,0.2-0.5,0.5-0.5S10,12.8,10,13v0.6C10,14,9.8,14.2,9.5,14.2z"/>
<path class="st0" d="M5.2,14.2c-0.3,0-0.5-0.2-0.5-0.5V13c0-0.3,0.2-0.5,0.5-0.5c0.3,0,0.5,0.2,0.5,0.5v0.6
	C5.7,14,5.5,14.2,5.2,14.2z"/>
<path class="st0" d="M8.8,4.5C8.5,4.5,8.3,4.2,8.3,4V2.6C8.3,2.1,8.1,2,8,1.9H6.8c-0.1,0-0.2,0-0.2,0.1C6.5,2.1,6.5,2.2,6.5,2.3V4
	c0,0.3-0.2,0.5-0.5,0.5C5.8,4.5,5.5,4.3,5.5,4V2.3c0-0.4,0.1-0.7,0.3-1c0.3-0.3,0.6-0.4,1-0.4h1.2c0.8,0.1,1.3,0.8,1.2,1.6V4
	C9.3,4.3,9,4.5,8.8,4.5z"/>
</svg>
