<?xml version="1.0" encoding="utf-8"?>
<!-- Generator: Adobe Illustrator 25.4.1, SVG Export Plug-In . SVG Version: 6.00 Build 0)  -->
<svg version="1.1" id="레이어_1" xmlns="http://www.w3.org/2000/svg" xmlns:xlink="http://www.w3.org/1999/xlink" x="0px"
	 y="0px" viewBox="0 0 14.4 15.4" style="enable-background:new 0 0 14.4 15.4;" xml:space="preserve">
<style type="text/css">
	.st0{fill:#666666;}
</style>
<path class="st0" d="M7.6,14.5H7.1C5.5,14.6,4,14,2.8,12.9c-1.1-1.3-1.7-3-1.7-4.7V3.8c0-0.3,0.2-0.5,0.5-0.5c3.9,0,5.3-2.2,5.3-2.2
	C7.1,0.9,7.4,0.8,7.7,1c0,0,0.1,0.1,0.1,0.1c0,0.1,1.5,2.2,5.3,2.2c0.3,0,0.5,0.2,0.5,0.5v4.3c0,1.7-0.6,3.4-1.7,4.7
	C10.7,14,9.2,14.6,7.6,14.5z M2.1,4.3v3.9c0,1.5,0.5,2.9,1.4,4c0.9,0.9,2.2,1.4,3.5,1.3h0.5c1.3,0.1,2.6-0.4,3.5-1.3
	c0.9-1.1,1.5-2.5,1.4-4V4.3c-2,0-3.9-0.8-5.2-2.2C6,3.6,4.1,4.3,2.1,4.3z"/>
<path class="st0" d="M6.4,10.2c-0.1,0-0.3,0-0.3-0.1L4.4,8.4c-0.2-0.2-0.2-0.5,0-0.7s0.5-0.2,0.7,0L6.4,9l2.8-2.8
	c0.2-0.2,0.5-0.2,0.7,0c0,0,0,0,0,0C10.2,6.4,10.2,6.8,10,7c0,0,0,0,0,0l-3.2,3.1C6.7,10.2,6.6,10.3,6.4,10.2z"/>
</svg>
