<svg xmlns="http://www.w3.org/2000/svg" xmlns:xlink="http://www.w3.org/1999/xlink" viewBox="0 0 117.33 117.33"><defs><style>.cls-1{fill:#f7d8ba;}.cls-2{clip-path:url(#clip-path);}.cls-3{fill:#d3445b;}.cls-4{fill:#e8b499;}.cls-5{fill:#1e0b02;}.cls-10,.cls-6,.cls-8{fill:none;}.cls-6{stroke:#c47268;stroke-width:0.69px;}.cls-6,.cls-8{stroke-linecap:round;stroke-linejoin:round;}.cls-7,.cls-9{fill:#fff;}.cls-8{stroke:#1e0b02;stroke-width:0.96px;}.cls-9{opacity:0.23;}.cls-10{stroke:#fff;stroke-miterlimit:10;stroke-width:0.49px;}</style><clipPath id="clip-path"><circle class="cls-1" cx="58.76" cy="57.71" r="56.54" transform="translate(-10.65 102.03) rotate(-77.04)"/></clipPath></defs><g id="OBJECTS"><circle class="cls-1" cx="58.76" cy="57.71" r="56.54" transform="translate(-10.65 102.03) rotate(-77.04)"/><g class="cls-2"><path class="cls-3" d="M36.67,82.13l-2.4,30.66H14.81c2-4.76,4.41-10.49,6.6-16.11C26.34,84,35.7,82.28,36.6,82.14Z"/><path class="cls-3" d="M106.18,112.79h-20L83,81.78h0c.65.08,11,1.71,16.42,14.89C101.85,102.58,104.25,108.27,106.18,112.79Z"/><path class="cls-3" d="M88.21,112.79l-29.45,5.85-26.07-5.85.1-29a17.48,17.48,0,0,1,3.81-1.68A34.08,34.08,0,0,1,43,80.83l17.48,1.76,17.48-1.76a34.18,34.18,0,0,1,5.09,1h0a19.16,19.16,0,0,1,5,2Z"/><path class="cls-4" d="M36.67,82.13l20.6-5.42h7.11L83,81.78h0c-9.52,8.93-33.17,16.25-45.26.76Z"/><path class="cls-5" d="M90.49,63.27a13,13,0,0,1,.34-4.86,21.57,21.57,0,0,0-4.5-19.82c-3.8-4.59-4.75-11.38-4.75-11.38h0C78.8,18,69.34,11.64,60.74,11.64s-18,6-20.81,15.2h0s-1.26,7.28-4.78,11.75c-4.07,5.16-6.58,11.85-4.5,19.82A13,13,0,0,1,31,63.27a6.73,6.73,0,0,1-1.15,3.32H91.65A6.64,6.64,0,0,1,90.49,63.27Z"/><path class="cls-4" d="M50,45.79a6,6,0,1,1-6.21-5.88A6,6,0,0,1,50,45.79Z"/><path class="cls-6" d="M40.54,45.11s2.41-1.18,4.7,3"/><path class="cls-4" d="M72.12,46a6,6,0,1,0,6-6.05A6.05,6.05,0,0,0,72.12,46Z"/><path class="cls-6" d="M81.58,45s-2.44-1.1-4.61,3.14"/><circle class="cls-5" cx="60.9" cy="34.43" r="19"/><path class="cls-4" d="M66.92,58a14.47,14.47,0,0,1-5,3c-2.39.59-4.71-1.22-4.74-1.24L54.38,57.7,53.26,77.61l.31.33c4,4.36,9.89,4.42,14,.15l.6-.63Z"/><path class="cls-5" d="M52.49,55.07s3.36,11.63,9.35,11.52c4.93-.1,6.3-11,6.3-11Z"/><path class="cls-4" d="M77.41,34.64a69.73,69.73,0,0,1-1.87,16.22c-.94,3.93-3.61,6.68-7.4,8.91l-.69.41a13.69,13.69,0,0,1-13.28.2h0c-4.13-2.25-7-5.23-7.93-9.43a101.31,101.31,0,0,1-1.87-16.14S43,17.1,60.81,17.33,77.41,34.64,77.41,34.64Z"/><polyline class="cls-6" points="59.45 44.34 59.45 46.93 61.2 46.93"/><path d="M47.35,34.5l9.42-.85s-.84-2.44-4.65-2S47.35,34.5,47.35,34.5Z"/><path d="M73.25,34.5l-9.42-.85s.84-2.44,4.65-2S73.25,34.5,73.25,34.5Z"/><path class="cls-7" d="M55.18,49.32H65.47S65.08,52,60.14,52C56.09,52,55.18,49.32,55.18,49.32Z"/><path class="cls-8" d="M55.66,40.85s-2.43-2-4.57,0"/><path class="cls-8" d="M69.43,40.85a3.17,3.17,0,0,0-4.46,0"/><path class="cls-9" d="M51.1,34.34,58,43.71s-2.08,4-5.4,3.54l-7-9.15S47.52,34.08,51.1,34.34Z"/><path class="cls-9" d="M68.08,34.34,75,43.71s-2.09,4-5.4,3.54l-7-9.15S64.5,34.08,68.08,34.34Z"/><path class="cls-10" d="M58.55,40.85A6.75,6.75,0,1,1,51.8,34.1,6.75,6.75,0,0,1,58.55,40.85Z"/><path class="cls-10" d="M75.55,40.85A6.75,6.75,0,1,1,68.8,34.1,6.75,6.75,0,0,1,75.55,40.85Z"/><path class="cls-10" d="M58.55,40.85a5.27,5.27,0,0,1,3.5,0"/><path class="cls-5" d="M42.65,30.62s15.88-3,19.16-14.88C61.81,15.74,44.91,9.74,42.65,30.62Z"/><path class="cls-5" d="M77.41,30.62s-15.89-3-19.17-14.88C58.24,15.74,75.14,9.74,77.41,30.62Z"/></g></g></svg>