<svg xmlns="http://www.w3.org/2000/svg" xmlns:xlink="http://www.w3.org/1999/xlink" viewBox="0 0 600 400"><defs><style>.cls-1,.cls-11,.cls-2,.cls-25,.cls-3,.cls-9{fill:none;}.cls-2,.cls-25,.cls-3{stroke:#fff;}.cls-11,.cls-2,.cls-25,.cls-3,.cls-9{stroke-linecap:round;}.cls-11,.cls-2,.cls-3,.cls-9{stroke-linejoin:round;}.cls-2,.cls-3{stroke-width:2px;}.cls-3{stroke-dasharray:2 5.01;}.cls-4{fill:#fff;}.cls-5{clip-path:url(#clip-path);}.cls-6{fill:#1b86bc;}.cls-7{fill:#209ae5;}.cls-8{fill:#9970ae;}.cls-9{stroke:#54533e;}.cls-11,.cls-9{stroke-width:4px;}.cls-10{fill:#a9d06d;}.cls-11{stroke:#77755d;}.cls-12{fill:#88ccc3;}.cls-13{fill:#45b7cb;}.cls-14{fill:#6aa069;}.cls-15{fill:#8989c2;}.cls-16{fill:#1f5574;}.cls-17{fill:#418099;}.cls-18{fill:#c7cfd3;}.cls-19{fill:#b1b8ba;}.cls-20{fill:#fbb040;}.cls-21{fill:#f1f2f2;}.cls-22{fill:#333;}.cls-23{fill:#c1665d;}.cls-24{fill:#fcc066;}.cls-25{stroke-miterlimit:10;stroke-width:3px;}</style><clipPath id="clip-path"><path class="cls-1" d="M389.46,134.29c-27-1.32-109,12.11-123.93,57s47.93,41,129.91,63.83,109.24-16.64,85.06-67.1C460.85,147,420.23,135.8,389.46,134.29Z"/></clipPath></defs><g id="레이어_5" data-name="레이어 5"><path class="cls-2" d="M112.74,66.12s.21.28.65.76"/><path class="cls-3" d="M117.09,70.25c9.78,7.74,37.54,22.59,97.42,9.89C296.92,62.68,433,33,497.37,100.71c59.76,62.86,42.29,122.58,7.43,159.43-34.24,36.21-117.14,57.94-203.43,31.26C220.73,266.46,167,370.14,101.59,354.89"/><path class="cls-2" d="M99.15,354.27l-1-.28"/><circle class="cls-4" cx="112.74" cy="63.67" r="6.42"/><circle class="cls-4" cx="215.6" cy="79.85" r="6.42"/><circle class="cls-4" cx="382.57" cy="58.4" r="6.42"/><circle class="cls-4" cx="507.29" cy="256.75" r="6.42"/><circle class="cls-4" cx="331.43" cy="298.22" r="6.42"/><circle class="cls-4" cx="187.43" cy="324.9" r="6.42"/><circle class="cls-4" cx="98.19" cy="353" r="6.42"/></g><g id="레이어_1" data-name="레이어 1"><g class="cls-5"><path class="cls-6" d="M389.46,134.29c-27-1.32-109,12.11-123.93,57s47.93,41,129.91,63.83,109.24-16.64,85.06-67.1C460.85,147,420.23,135.8,389.46,134.29Z"/><path class="cls-7" d="M390.37,139.15c-27-1.33-109,12.1-123.93,57s47.93,41,129.9,63.83,109.24-16.63,85.07-67.1C461.76,151.89,421.14,140.65,390.37,139.15Z"/></g><path class="cls-8" d="M432.11,60.26c-9.65,16.56,9.49,32.6,20.77,34.69,25.53,4.74,20.77-15.53,20.77-34.69s-9.07-37.8-20.77-34.68C441.79,28.52,440.65,45.61,432.11,60.26Z"/><line class="cls-9" x1="457.36" y1="63.04" x2="457.36" y2="111.57"/><path class="cls-9" d="M446.3,75.38s1.45,8.87,10.88,8.87"/><path class="cls-10" d="M490.79,83.35c5.16,8.85-5,18.54-11.1,18.54s-11.09-8.3-11.09-18.54,5-18.54,11.09-18.54S486.23,75.52,490.79,83.35Z"/><line class="cls-11" x1="479.4" y1="87.46" x2="479.4" y2="112.22"/><path class="cls-12" d="M41.83,93.43C32.18,110,51.32,126,62.59,128.11c25.54,4.75,20.77-15.53,20.77-34.68s-9.07-37.8-20.77-34.69C51.51,61.69,50.37,78.77,41.83,93.43Z"/><line class="cls-11" x1="67.08" y1="96.2" x2="67.08" y2="144.73"/><path class="cls-11" d="M56,108.54s1.45,8.87,10.88,8.87"/><path class="cls-13" d="M102.49,115.34c6.64,11.39-6.4,23.87-14.29,23.87s-14.29-10.68-14.29-23.87,6.4-23.87,14.29-23.87S96.61,105.25,102.49,115.34Z"/><line class="cls-11" x1="89.11" y1="120.62" x2="89.11" y2="145.38"/><path class="cls-14" d="M322.12,50.53c9.36,16.06-9.2,31.62-20.14,33.65-24.76,4.59-20.14-15.07-20.14-33.65S290.63,13.87,302,16.89C312.73,19.75,313.84,36.32,322.12,50.53Z"/><line class="cls-9" x1="303.26" y1="53.22" x2="303.26" y2="100.29"/><path class="cls-9" d="M292.53,65.19s1.41,8.6,10.56,8.6"/><path class="cls-15" d="M339.08,80.73c6.46,11.09-6.23,23.23-13.91,23.23s-13.91-10.4-13.91-23.23,6.23-23.23,13.91-23.23S333.36,70.92,339.08,80.73Z"/><line class="cls-9" x1="325.1" y1="80.73" x2="325.1" y2="110.63"/><path class="cls-10" d="M289.27,95.85c.39,15.42-7.48,27.93-16.72,27.93s-16.42-5.5-18.65-20.76C251.12,84,265.27,67.26,275,75.16,282.15,81,289,84.57,289.27,95.85Z"/><line class="cls-11" x1="272.01" y1="106.68" x2="272.01" y2="131.86"/><path class="cls-8" d="M256.57,287.9c-9.36,16.06,9.21,31.62,20.15,33.65,24.76,4.59,20.14-15.07,20.14-33.65s-8.8-36.66-20.14-33.64C266,257.12,264.86,273.69,256.57,287.9Z"/><line class="cls-9" x1="275.43" y1="290.59" x2="275.43" y2="337.66"/><path class="cls-9" d="M286.16,302.56s-1.4,8.6-10.55,8.6"/><path class="cls-12" d="M239.61,318.1c-6.46,11.09,6.23,23.23,13.91,23.23s13.91-10.4,13.91-23.23-6.23-23.23-13.91-23.23S245.34,308.29,239.61,318.1Z"/><line class="cls-11" x1="253.6" y1="318.1" x2="253.6" y2="348"/><path class="cls-14" d="M325.14,333.22c.38,15.42-7.49,27.93-16.72,27.93s-16.43-5.5-18.66-20.76c-2.77-19,11.38-35.76,21.09-27.86C318,318.36,324.86,321.94,325.14,333.22Z"/><line class="cls-11" x1="307.87" y1="344.05" x2="307.87" y2="369.23"/><path class="cls-16" d="M441.23,103.53a3.87,3.87,0,0,0-3.65-3.86,5.44,5.44,0,0,0-10.07.13,3.94,3.94,0,0,0-1-.15,3.88,3.88,0,0,0,0,7.76h11.27v0A3.88,3.88,0,0,0,441.23,103.53Z"/><path class="cls-16" d="M181,260.42a3.89,3.89,0,0,0-3.65-3.87,5.45,5.45,0,0,0-10.07.14,3.88,3.88,0,1,0-1,7.61h11.27v0A3.88,3.88,0,0,0,181,260.42Z"/><path class="cls-17" d="M235.87,361.59a3.86,3.86,0,0,0-3.65-3.86,5.44,5.44,0,0,0-10.07.13,3.88,3.88,0,1,0-1,7.61h11.27v0A3.88,3.88,0,0,0,235.87,361.59Z"/><path class="cls-16" d="M251.75,133.57a3.88,3.88,0,0,0-3.65-3.87,5.45,5.45,0,0,0-10.07.13,3.88,3.88,0,1,0-1,7.61h11.27A3.88,3.88,0,0,0,251.75,133.57Z"/><path class="cls-16" d="M258.43,365.64a6.28,6.28,0,0,0-5.92-6.27,8.83,8.83,0,0,0-16.32.22,6.12,6.12,0,0,0-1.67-.23,6.29,6.29,0,1,0,0,12.57h18.27v0A6.28,6.28,0,0,0,258.43,365.64Z"/><path class="cls-17" d="M460.48,111.59a6.37,6.37,0,0,0-6-6.34,8.93,8.93,0,0,0-16.51.22,6.27,6.27,0,0,0-1.69-.23,6.36,6.36,0,1,0,0,12.71h18.47v0A6.36,6.36,0,0,0,460.48,111.59Z"/><path class="cls-17" d="M93.58,290.85a5.47,5.47,0,0,0-5.15-5.45,7.68,7.68,0,0,0-14.2.19,5.35,5.35,0,0,0-1.45-.21,5.47,5.47,0,0,0,0,10.94H88.67v0A5.47,5.47,0,0,0,93.58,290.85Z"/><path class="cls-18" d="M352.61,102.85c.53,3.27-2.21,3.27-4.93,3.27s-5.51.11-4.94-3.27c.3-1.78,2.21-3.26,4.94-3.26S352.32,101.07,352.61,102.85Z"/><path class="cls-19" d="M346.32,105.6c.45,2.74-1.86,2.74-4.15,2.74s-4.63.1-4.15-2.74c.25-1.5,1.86-2.75,4.15-2.75S346.08,104.1,346.32,105.6Z"/><path class="cls-18" d="M56,144.27c.53,3.26-2.21,3.26-4.94,3.26s-5.5.11-4.93-3.26c.3-1.78,2.21-3.27,4.93-3.27S55.71,142.49,56,144.27Z"/><path class="cls-19" d="M49.7,147c.45,2.75-1.85,2.75-4.15,2.75s-4.62.09-4.15-2.75c.26-1.49,1.86-2.74,4.15-2.74S49.46,145.52,49.7,147Z"/><path class="cls-13" d="M463.11,287.49c9.69,16.63-9.53,32.74-20.86,34.84-25.64,4.76-20.85-15.6-20.85-34.84s9.1-38,20.85-34.83C453.39,255.62,454.53,272.78,463.11,287.49Z"/><line class="cls-11" x1="443.59" y1="290.28" x2="443.59" y2="339.01"/><path class="cls-11" d="M432.47,302.67s1.46,8.91,10.93,8.91"/><path class="cls-10" d="M480.11,315.4c5.51,9.46-5.32,19.83-11.87,19.83s-11.87-8.88-11.87-19.83,5.31-19.82,11.87-19.82S475.22,307,480.11,315.4Z"/><line class="cls-9" x1="467.85" y1="315.97" x2="467.85" y2="344.12"/><path class="cls-17" d="M432.47,348.6a6.35,6.35,0,0,0-6-6.34,8.92,8.92,0,0,0-16.5.22,6.27,6.27,0,0,0-1.69-.24,6.36,6.36,0,0,0,0,12.72h18.47v0A6.37,6.37,0,0,0,432.47,348.6Z"/><path class="cls-18" d="M437.23,353.52c.53,3.26-2.21,3.26-4.94,3.26s-5.5.12-4.93-3.26c.3-1.78,2.21-3.27,4.93-3.27S436.94,351.74,437.23,353.52Z"/><path class="cls-19" d="M430.93,356.26c.45,2.75-1.85,2.75-4.15,2.75s-4.62.09-4.14-2.75c.25-1.49,1.85-2.74,4.14-2.74S430.69,354.77,430.93,356.26Z"/><path class="cls-10" d="M151.41,229.87c9.41,16.15-9.26,31.8-20.26,33.84-24.91,4.62-20.26-15.15-20.26-33.84S119.73,193,131.15,196C142,198.9,143.08,215.57,151.41,229.87Z"/><line class="cls-11" x1="132.44" y1="232.57" x2="132.44" y2="279.92"/><path class="cls-11" d="M121.64,244.61s1.42,8.66,10.62,8.66"/><path class="cls-13" d="M118.42,259.37c.29,11.62-5.64,21.05-12.61,21.05s-12.38-4.14-14.06-15.65c-2.09-14.32,8.57-27,15.9-21C113,248.17,118.21,250.87,118.42,259.37Z"/><line class="cls-11" x1="105.4" y1="267.53" x2="105.4" y2="286.52"/></g><g id="레이어_4" data-name="레이어 4"><path class="cls-20" d="M309.15,176.72a6.55,6.55,0,1,1-7.16-5.86A6.55,6.55,0,0,1,309.15,176.72Z"/><path class="cls-21" d="M301.49,176.27a1.28,1.28,0,1,1-1.39-1.14A1.27,1.27,0,0,1,301.49,176.27Z"/><path class="cls-22" d="M301.17,176.29a1,1,0,1,1-2,.2,1,1,0,0,1,2-.2Z"/><path class="cls-20" d="M320.4,183c-.17-2.83-2.5,1.35-5.43,1.17-1.68-.1-3.34-1.32-6-1.32a9.78,9.78,0,0,0-3.78.75c-1.66-1.37-2.52-2.47-4.84-2.24a8.52,8.52,0,0,0-7.53,9.19c.28,4.69,5.19,11.47,16.55,8.87C316.57,197.76,320.89,191,320.4,183Z"/><path class="cls-20" d="M297,180.76c.29,1.14.17,1.61-1.18,2.43,0,0,3.36,1.66,4.25,1.18S296.71,179.5,297,180.76Z"/><path class="cls-23" d="M296.42,175.3s2.56,2.73.61,5.46c0,0-6.18.33-6.18-4.31,0-.5,1.14.08,3.29,0A2.79,2.79,0,0,0,296.42,175.3Z"/><path class="cls-20" d="M306.94,181.45s-1.86,2.27,1.13,2.27c0,0-3.32,1.43-3.35.08S306.94,181.45,306.94,181.45Z"/><path class="cls-24" d="M315,187.2a2.45,2.45,0,0,1-.79,1.66c-1.32,1.58-3.34,2.08-6.07,3.09-.76.28-.67.93,1.3.29,2.93-.94,3.06-.7,2.87-.46-1.08,1.38-3.67,2.38-5.33,2.57a4.19,4.19,0,0,1-4.76-3.3,4.1,4.1,0,0,1,3.31-4.76c2.24-.4,3.36.77,5.34,1.09C313.47,187.8,314.93,186.5,315,187.2Z"/><path class="cls-21" d="M300.36,176.09a.42.42,0,0,1-.38.46.42.42,0,0,1-.08-.84A.42.42,0,0,1,300.36,176.09Z"/><path class="cls-20" d="M347.75,190.17a3,3,0,1,1-3.28-2.69A3,3,0,0,1,347.75,190.17Z"/><path class="cls-21" d="M344.24,190a.58.58,0,0,1-.52.64.59.59,0,0,1-.64-.53.58.58,0,0,1,.53-.63A.57.57,0,0,1,344.24,190Z"/><path class="cls-22" d="M344.1,190a.47.47,0,0,1-.42.51.48.48,0,0,1-.51-.42.47.47,0,0,1,.93-.09Z"/><path class="cls-20" d="M352.9,193c-.08-1.3-1.15.61-2.49.53-.77,0-1.53-.61-2.76-.61a4.39,4.39,0,0,0-1.73.35c-.76-.63-1.15-1.13-2.21-1a3.91,3.91,0,0,0-3.45,4.21c.13,2.14,2.38,5.24,7.58,4.06C351.14,199.79,353.12,196.72,352.9,193Z"/><path class="cls-20" d="M342.21,192c.13.52.07.73-.55,1.1,0,0,1.54.76,1.95.55S342.06,191.44,342.21,192Z"/><path class="cls-23" d="M341.93,189.52a2.07,2.07,0,0,1,.28,2.5s-2.83.15-2.83-2c0-.23.52,0,1.5,0A1.3,1.3,0,0,0,341.93,189.52Z"/><path class="cls-20" d="M346.74,192.33s-.86,1,.51,1c0,0-1.51.65-1.53,0S346.74,192.33,346.74,192.33Z"/><path class="cls-24" d="M350.43,195a1.14,1.14,0,0,1-.36.76c-.6.72-1.53.95-2.78,1.41-.34.13-.3.43.6.14,1.34-.43,1.4-.32,1.31-.21a4.16,4.16,0,0,1-2.44,1.17,1.91,1.91,0,0,1-2.17-1.51,1.88,1.88,0,0,1,1.51-2.18c1-.18,1.54.36,2.44.5C349.72,195.23,350.39,194.64,350.43,195Z"/><path class="cls-21" d="M343.73,189.88a.2.2,0,0,1-.17.21.21.21,0,0,1-.22-.17.19.19,0,0,1,.18-.21A.19.19,0,0,1,343.73,189.88Z"/><path class="cls-20" d="M366.84,193.84a3,3,0,1,1-3.27-2.68A3,3,0,0,1,366.84,193.84Z"/><path class="cls-21" d="M363.34,193.63a.58.58,0,1,1-.64-.52A.58.58,0,0,1,363.34,193.63Z"/><path class="cls-22" d="M363.19,193.65a.46.46,0,0,1-.92.09.46.46,0,0,1,.42-.51A.45.45,0,0,1,363.19,193.65Z"/><path class="cls-20" d="M372,196.71c-.08-1.3-1.15.62-2.49.54-.76-.05-1.52-.61-2.75-.61A4.57,4.57,0,0,0,365,197c-.76-.62-1.16-1.13-2.22-1a3.89,3.89,0,0,0-3.44,4.2c.13,2.15,2.37,5.25,7.57,4.06C370.23,203.47,372.21,200.39,372,196.71Z"/><path class="cls-20" d="M361.3,195.69c.13.52.08.73-.54,1.11,0,0,1.54.76,1.94.54S361.15,195.11,361.3,195.69Z"/><path class="cls-23" d="M361,193.19a2.06,2.06,0,0,1,.28,2.5s-2.83.15-2.83-2c0-.23.52,0,1.51,0A1.26,1.26,0,0,0,361,193.19Z"/><path class="cls-20" d="M365.83,196s-.85,1,.52,1c0,0-1.52.66-1.53,0S365.83,196,365.83,196Z"/><path class="cls-24" d="M369.53,198.63a1.12,1.12,0,0,1-.36.76c-.61.73-1.53,1-2.78,1.42-.35.13-.31.42.6.13,1.34-.43,1.4-.32,1.31-.21a4.2,4.2,0,0,1-2.44,1.18,1.93,1.93,0,0,1-2.18-1.52,1.88,1.88,0,0,1,1.52-2.17c1-.19,1.53.35,2.44.5C368.82,198.91,369.49,198.31,369.53,198.63Z"/><path class="cls-21" d="M362.82,193.55a.19.19,0,0,1-.38,0,.2.2,0,0,1,.17-.21A.19.19,0,0,1,362.82,193.55Z"/></g><g id="레이어_3" data-name="레이어 3"><path class="cls-25" d="M413.13,170.46c-2.3,0-2.3-2-4.6-2s-2.3,2-4.6,2-2.29-2-4.59-2-2.3,2-4.61,2-2.3-2-4.6-2-2.3,2-4.6,2"/><path class="cls-25" d="M455.22,223.54c-2.3,0-2.3-2-4.6-2s-2.3,2-4.6,2-2.29-2-4.59-2-2.3,2-4.6,2-2.31-2-4.61-2-2.3,2-4.6,2"/><path class="cls-25" d="M327.64,201.24c-2.54,0-2.54-2-5.09-2s-2.54,2-5.09,2-2.54-2-5.09-2-2.55,2-5.09,2-2.55-2-5.1-2-2.55,2-5.1,2"/><path class="cls-25" d="M341.44,211.91c-2.29,0-2.29-2-4.59-2s-2.3,2-4.6,2-2.3-2-4.6-2-2.3,2-4.6,2-2.3-2-4.6-2-2.31,2-4.61,2"/></g></svg>