<svg xmlns="http://www.w3.org/2000/svg" viewBox="0 0 600 400"><defs><style>.cls-1{fill:#fff;}.cls-18,.cls-2,.cls-4,.cls-6{fill:none;}.cls-2{stroke:#fff;stroke-width:2px;stroke-dasharray:2 5;}.cls-2,.cls-4,.cls-6{stroke-linecap:round;stroke-linejoin:round;}.cls-3{fill:#9970ae;}.cls-4{stroke:#54533e;}.cls-4,.cls-6{stroke-width:4px;}.cls-5{fill:#a9d06d;}.cls-6{stroke:#77755d;}.cls-7{fill:#88ccc3;}.cls-8{fill:#45b7cb;}.cls-9{fill:#6aa069;}.cls-10{fill:#8989c2;}.cls-11{fill:#1f5574;}.cls-12{fill:#418099;}.cls-13{fill:#c7cfd3;}.cls-14{fill:#b1b8ba;}.cls-15{fill:#cecece;}.cls-16{fill:#542c2c;}.cls-17{fill:#9b5353;}.cls-18{stroke:#542c2c;stroke-miterlimit:10;}.cls-19{fill:#adadad;}.cls-20{fill:#707070;}.cls-21{fill:#8c8c8c;}.cls-22{fill:#999;}.cls-23{fill:#aaa;}</style></defs><g id="레이어_5" data-name="레이어 5"><circle class="cls-1" cx="110.54" cy="57.25" r="6.42"/><circle class="cls-1" cx="430.99" cy="91.47" r="6.42"/><circle class="cls-1" cx="382.57" cy="189.27" r="6.42"/><circle class="cls-1" cx="179.81" cy="300.4" r="6.42"/><circle class="cls-1" cx="332.65" cy="356.78" r="6.42"/><circle class="cls-1" cx="539.53" cy="317.25" r="6.42"/><path class="cls-2" d="M110.54,58.4S468,32.29,460.48,139.21,139.83,136.82,171.7,279.92c21.87,98.22,277.3,98.14,369.87,38.18"/></g><g id="레이어_1" data-name="레이어 1"><path class="cls-3" d="M485.83,64.05c-9.65,16.55,9.49,32.6,20.76,34.69,25.54,4.74,20.77-15.53,20.77-34.69s-9.07-37.8-20.77-34.69C495.51,32.31,494.37,49.39,485.83,64.05Z"/><line class="cls-4" x1="511.08" y1="66.82" x2="511.08" y2="115.35"/><path class="cls-4" d="M500,79.17S501.46,88,510.89,88"/><path class="cls-5" d="M544.51,87.14c5.15,8.84-5,18.53-11.1,18.53s-11.1-8.29-11.1-18.53,5-18.54,11.1-18.54S539.94,79.31,544.51,87.14Z"/><line class="cls-6" x1="533.11" y1="91.25" x2="533.11" y2="116"/><path class="cls-7" d="M31.52,71.39C21.88,87.94,41,104,52.29,106.08c25.54,4.74,20.77-15.53,20.77-34.69S64,33.59,52.29,36.7C41.21,39.65,40.07,56.73,31.52,71.39Z"/><line class="cls-6" x1="56.78" y1="74.16" x2="56.78" y2="122.69"/><path class="cls-6" d="M45.71,86.5s1.45,8.87,10.88,8.87"/><path class="cls-8" d="M92.19,93.3c6.64,11.39-6.4,23.88-14.29,23.88S63.6,106.49,63.6,93.3,70,69.43,77.9,69.43,86.31,83.22,92.19,93.3Z"/><line class="cls-6" x1="78.81" y1="98.59" x2="78.81" y2="123.34"/><path class="cls-9" d="M307.72,48.86c9.36,16.06-9.2,31.62-20.14,33.65-24.77,4.6-20.15-15.07-20.15-33.65s8.8-36.66,20.15-33.64C298.33,18.08,299.44,34.65,307.72,48.86Z"/><line class="cls-4" x1="288.86" y1="51.55" x2="288.86" y2="98.62"/><path class="cls-4" d="M278.13,63.52s1.4,8.6,10.55,8.6"/><path class="cls-10" d="M324.68,79.06c6.46,11.09-6.23,23.23-13.91,23.23s-13.91-10.4-13.91-23.23,6.23-23.23,13.91-23.23S319,69.25,324.68,79.06Z"/><line class="cls-4" x1="310.7" y1="79.06" x2="310.7" y2="108.96"/><path class="cls-5" d="M274.87,94.18c.38,15.42-7.48,27.93-16.72,27.93s-16.42-5.5-18.65-20.76c-2.78-19,11.37-35.76,21.08-27.86C267.75,79.33,274.6,82.9,274.87,94.18Z"/><line class="cls-6" x1="257.61" y1="105.01" x2="257.61" y2="130.19"/><path class="cls-11" d="M494.94,107.32a3.87,3.87,0,0,0-3.65-3.87,5.45,5.45,0,0,0-10.07.13,3.88,3.88,0,1,0-1,7.62h11.27v0A3.88,3.88,0,0,0,494.94,107.32Z"/><path class="cls-11" d="M256,139.19a3.88,3.88,0,0,0-3.66-3.87,5.44,5.44,0,0,0-10.06.13,3.94,3.94,0,0,0-1-.14,3.88,3.88,0,1,0,0,7.76h11.26v0A3.88,3.88,0,0,0,256,139.19Z"/><path class="cls-12" d="M514.19,115.38a6.35,6.35,0,0,0-6-6.34,8.93,8.93,0,0,0-16.51.22A6.2,6.2,0,0,0,490,109a6.36,6.36,0,0,0,0,12.72h18.47v0A6.37,6.37,0,0,0,514.19,115.38Z"/><path class="cls-12" d="M61.75,312a5.46,5.46,0,0,0-5.15-5.45,7.68,7.68,0,0,0-14.2.18,5.47,5.47,0,1,0-1.46,10.74h15.9v0A5.48,5.48,0,0,0,61.75,312Z"/><path class="cls-13" d="M553.24,126.59c.54,3.26-2.2,3.26-4.93,3.26s-5.5.12-4.94-3.26c.3-1.78,2.21-3.27,4.94-3.27S553,124.81,553.24,126.59Z"/><path class="cls-14" d="M547,129.33c.45,2.75-1.86,2.75-4.15,2.75s-4.63.09-4.15-2.75c.25-1.49,1.86-2.74,4.15-2.74S546.71,127.84,547,129.33Z"/><path class="cls-13" d="M47.62,122.23c.53,3.26-2.21,3.26-4.94,3.26s-5.5.12-4.93-3.26c.3-1.78,2.21-3.27,4.93-3.27S47.33,120.45,47.62,122.23Z"/><path class="cls-14" d="M41.32,125c.45,2.75-1.86,2.75-4.15,2.75s-4.63.09-4.15-2.75c.26-1.49,1.86-2.74,4.15-2.74S41.08,123.48,41.32,125Z"/><path class="cls-8" d="M486,254.22c9.69,16.63-9.53,32.74-20.86,34.84-25.64,4.76-20.85-15.6-20.85-34.84s9.1-37.95,20.85-34.83C476.24,222.35,477.39,239.51,486,254.22Z"/><line class="cls-6" x1="466.44" y1="257.01" x2="466.44" y2="305.74"/><path class="cls-6" d="M455.33,269.4s1.45,8.91,10.93,8.91"/><path class="cls-5" d="M503,282.13c5.52,9.46-5.31,19.83-11.87,19.83s-11.87-8.88-11.87-19.83,5.32-19.82,11.87-19.82S498.08,273.76,503,282.13Z"/><line class="cls-4" x1="490.71" y1="282.7" x2="490.71" y2="310.85"/><path class="cls-12" d="M455.33,315.33a6.35,6.35,0,0,0-6-6.34,8.93,8.93,0,0,0-16.5.22,6.36,6.36,0,1,0-1.69,12.48h18.47v0A6.37,6.37,0,0,0,455.33,315.33Z"/><path class="cls-13" d="M460.09,320.25c.53,3.26-2.21,3.26-4.94,3.26s-5.5.12-4.93-3.26c.3-1.78,2.2-3.27,4.93-3.27S459.8,318.47,460.09,320.25Z"/><path class="cls-14" d="M453.79,323c.45,2.75-1.86,2.75-4.15,2.75s-4.63.09-4.15-2.75c.25-1.49,1.86-2.74,4.15-2.74S453.55,321.5,453.79,323Z"/><path class="cls-5" d="M119.58,251.05c9.41,16.15-9.26,31.8-20.27,33.84-24.9,4.63-20.26-15.15-20.26-33.84s8.85-36.87,20.26-33.84C110.13,220.09,111.24,236.76,119.58,251.05Z"/><line class="cls-6" x1="100.61" y1="253.76" x2="100.61" y2="301.1"/><path class="cls-6" d="M89.81,265.8s1.41,8.65,10.62,8.65"/><path class="cls-8" d="M86.59,280.55c.28,11.63-5.65,21.06-12.61,21.06S61.6,297.47,59.91,286c-2.09-14.33,8.58-27,15.9-21C81.21,269.35,86.38,272.05,86.59,280.55Z"/><line class="cls-6" x1="73.57" y1="288.72" x2="73.57" y2="307.71"/><path class="cls-8" d="M421.73,269C422,280.58,416.09,290,409.12,290s-12.38-4.14-14.06-15.65c-2.09-14.32,8.57-27,15.9-21C416.36,257.75,421.52,260.45,421.73,269Z"/><line class="cls-6" x1="408.71" y1="277.12" x2="408.71" y2="296.11"/><rect class="cls-15" x="283.41" y="104.31" width="70.92" height="44.14"/><rect class="cls-16" x="283.41" y="99.17" width="80.02" height="5.13"/><rect class="cls-17" x="293.03" y="113.07" width="67.48" height="35.43"/><line class="cls-18" x1="293.03" y1="122.12" x2="360.51" y2="122.12"/><line class="cls-18" x1="293.03" y1="126.38" x2="360.51" y2="126.38"/><line class="cls-18" x1="293.03" y1="130.63" x2="360.51" y2="130.63"/><line class="cls-18" x1="293.03" y1="134.88" x2="360.51" y2="134.88"/><line class="cls-18" x1="293.03" y1="139.14" x2="360.51" y2="139.14"/><line class="cls-18" x1="293.03" y1="143.39" x2="360.51" y2="143.39"/><rect class="cls-15" x="326.38" y="104.31" width="8.19" height="44.17"/><rect class="cls-19" x="292.98" y="123.9" width="33.37" height="24.6"/><rect class="cls-20" x="305.9" y="131.74" width="8.19" height="16.71"/><rect class="cls-15" x="312.45" y="138.67" width="0.79" height="3.4" rx="0.39"/><path class="cls-11" d="M71.5,317.7a3.87,3.87,0,0,0-3.66-3.86,5.44,5.44,0,0,0-10.06.13,3.94,3.94,0,0,0-1-.15,3.88,3.88,0,0,0,0,7.76H68v0A3.88,3.88,0,0,0,71.5,317.7Z"/><path class="cls-3" d="M287.53,214.62c-9.36,16,9.2,31.61,20.14,33.65,24.77,4.59,20.15-15.07,20.15-33.65S319,178,307.67,181C296.92,183.84,295.81,200.41,287.53,214.62Z"/><line class="cls-4" x1="306.39" y1="217.31" x2="306.39" y2="264.38"/><path class="cls-4" d="M317.12,229.28s-1.4,8.6-10.55,8.6"/><path class="cls-7" d="M270.57,244.82c-6.46,11.09,6.23,23.23,13.91,23.23s13.91-10.4,13.91-23.23-6.23-23.23-13.91-23.23S276.29,235,270.57,244.82Z"/><line class="cls-6" x1="284.55" y1="244.82" x2="284.55" y2="274.72"/><path class="cls-9" d="M356.09,259.94c.38,15.42-7.48,27.92-16.72,27.92S323,282.37,320.72,267.1c-2.78-19,11.37-35.76,21.08-27.85C349,245.08,355.81,248.66,356.09,259.94Z"/><line class="cls-6" x1="338.83" y1="270.77" x2="338.83" y2="295.95"/><path class="cls-12" d="M281.44,295.39a3.88,3.88,0,0,0-3.65-3.87,5.45,5.45,0,0,0-10.07.13,3.88,3.88,0,1,0-1,7.62H278v0A3.88,3.88,0,0,0,281.44,295.39Z"/><path class="cls-11" d="M304,299.44a6.28,6.28,0,0,0-5.92-6.27,8.83,8.83,0,0,0-16.32.21,6.54,6.54,0,0,0-1.67-.23,6.29,6.29,0,1,0,0,12.58h18.27v0A6.29,6.29,0,0,0,304,299.44Z"/><path class="cls-21" d="M127.91,270.7s-2.11-6.2,2.08-6.2,2.15,6.2,2.15,6.2Z"/><rect class="cls-22" x="115.39" y="321.29" width="29.21" height="21.14"/><rect class="cls-22" x="118.14" y="306.02" width="23.71" height="23.17"/><rect class="cls-22" x="117.65" y="298.32" width="24.2" height="3.35"/><path class="cls-20" d="M148.79,346.72H111.2v-.17a4.16,4.16,0,0,1,4.16-4.16H144.2a4.6,4.6,0,0,1,4.59,4.59Z"/><polygon class="cls-23" points="148.79 338.49 111.2 338.49 113.39 336.45 146.28 336.45 148.79 338.49"/><polygon class="cls-23" points="147.53 334.4 112.45 334.4 114.5 332.37 145.19 332.37 147.53 334.4"/><rect class="cls-23" x="111.2" y="338.48" width="37.59" height="0.89"/><rect class="cls-23" x="112.45" y="334.4" width="35.08" height="0.89"/><polygon class="cls-23" points="148.79 325.37 111.2 325.37 113.39 323.34 146.28 323.34 148.79 325.37"/><polygon class="cls-23" points="146.08 321.29 113.9 321.29 115.78 319.26 143.94 319.26 146.08 321.29"/><rect class="cls-23" x="111.2" y="325.37" width="37.59" height="0.89"/><rect class="cls-23" x="113.9" y="321.29" width="32.18" height="0.89"/><polygon class="cls-23" points="145.8 302.69 114.18 302.69 116.03 300.65 143.69 300.65 145.8 302.69"/><polygon class="cls-21" points="116.52 304.43 143.47 304.43 141.9 306.46 118.32 306.46 116.52 304.43"/><polygon class="cls-22" points="114.93 303.41 145.06 303.41 143.3 305.44 116.94 305.44 114.93 303.41"/><rect class="cls-23" x="114.18" y="302.69" width="31.62" height="0.89"/><polygon class="cls-23" points="145.8 294.51 114.18 294.51 116.03 292.47 143.69 292.47 145.8 294.51"/><polygon class="cls-21" points="116.52 296.24 143.47 296.24 141.9 298.27 118.32 298.27 116.52 296.24"/><polygon class="cls-22" points="114.93 295.23 145.06 295.23 143.3 297.26 116.94 297.26 114.93 295.23"/><rect class="cls-23" x="114.18" y="294.51" width="31.62" height="0.89"/><rect class="cls-22" x="119.98" y="289.13" width="19.62" height="3.35"/><polygon class="cls-23" points="142.81 285.31 117.18 285.31 118.67 283.28 141.1 283.28 142.81 285.31"/><polygon class="cls-21" points="119.07 287.05 140.92 287.05 139.65 289.08 120.53 289.08 119.07 287.05"/><polygon class="cls-22" points="117.78 286.04 142.21 286.04 140.78 288.07 119.41 288.07 117.78 286.04"/><rect class="cls-23" x="117.18" y="285.31" width="25.63" height="0.89"/><rect class="cls-22" x="119.98" y="279.9" width="19.62" height="3.35"/><path class="cls-22" d="M126.08,270.7h7.43a3.35,3.35,0,0,1,3.35,3.35v0a0,0,0,0,1,0,0H122.73a0,0,0,0,1,0,0v0A3.35,3.35,0,0,1,126.08,270.7Z"/><polygon class="cls-23" points="142.81 276.08 117.18 276.08 118.67 274.05 141.1 274.05 142.81 276.08"/><polygon class="cls-21" points="119.07 277.82 140.92 277.82 139.65 279.85 120.53 279.85 119.07 277.82"/><polygon class="cls-22" points="117.78 276.81 142.21 276.81 140.78 278.84 119.41 278.84 117.78 276.81"/><rect class="cls-23" x="117.18" y="276.08" width="25.63" height="0.89"/><path class="cls-22" d="M127.29,270.7s-5.57-4.86-1.53-5.67,3.34,5.67,3.34,5.67Z"/><path class="cls-22" d="M132.72,270.7s5.57-4.86,1.52-5.67-3.33,5.67-3.33,5.67Z"/></g></svg>