<svg xmlns="http://www.w3.org/2000/svg" viewBox="0 0 600 400"><defs><style>.cls-1{fill:#fff;}.cls-2,.cls-4,.cls-7{fill:none;stroke-linecap:round;stroke-linejoin:round;}.cls-2{stroke:#fff;stroke-width:2px;stroke-dasharray:2 5;}.cls-3{fill:#88ccc3;}.cls-4{stroke:#77755d;}.cls-4,.cls-7{stroke-width:4px;}.cls-5{fill:#45b7cb;}.cls-6{fill:#6aa069;}.cls-7{stroke:#54533e;}.cls-8{fill:#8989c2;}.cls-9{fill:#a9d06d;}.cls-10{fill:#9970ae;}.cls-11{fill:#1f5574;}.cls-12{fill:#418099;}.cls-13{fill:#c7cfd3;}.cls-14{fill:#b1b8ba;}.cls-15{fill:#f0f0f0;}.cls-16{fill:#9d9d9c;}.cls-17{fill:#ffbbc0;}.cls-18{fill:#c6c6c6;}.cls-19{fill:#f6f6f6;}.cls-20{fill:#1d1d1b;}.cls-21{fill:#b2b2b2;}</style></defs><g id="레이어_5" data-name="레이어 5"><circle class="cls-1" cx="112.74" cy="63.67" r="6.42"/><circle class="cls-1" cx="194.19" cy="119.68" r="6.42"/><circle class="cls-1" cx="188.69" cy="239.9" r="6.42"/><circle class="cls-1" cx="331.96" cy="353" r="6.42"/><circle class="cls-1" cx="436.96" cy="346.58" r="6.42"/><circle class="cls-1" cx="546.02" cy="169.99" r="6.42"/><circle class="cls-1" cx="432.29" cy="63.67" r="6.42"/><path class="cls-2" d="M112.74,63.67S215.29,50.36,190.9,170.82s66.37,214.56,250.33,173.23S552.87,81,432.81,63.67"/></g><g id="레이어_1" data-name="레이어 1"><path class="cls-3" d="M31.52,123.67c-9.64,16.56,9.5,32.6,20.77,34.69,25.54,4.74,20.77-15.53,20.77-34.69S64,85.87,52.29,89C41.21,91.93,40.07,109,31.52,123.67Z"/><line class="cls-4" x1="56.78" y1="126.45" x2="56.78" y2="174.98"/><path class="cls-4" d="M45.71,138.79s1.45,8.87,10.88,8.87"/><path class="cls-5" d="M92.19,145.59c6.64,11.39-6.4,23.87-14.29,23.87s-14.3-10.69-14.3-23.87,6.4-23.87,14.3-23.87S86.31,135.5,92.19,145.59Z"/><line class="cls-4" x1="78.81" y1="150.87" x2="78.81" y2="175.63"/><path class="cls-6" d="M320.07,46.69c9.36,16.05-9.2,31.61-20.14,33.65-24.76,4.59-20.14-15.07-20.14-33.65S288.58,10,299.93,13.05C310.68,15.91,311.79,32.48,320.07,46.69Z"/><line class="cls-7" x1="301.22" y1="49.38" x2="301.22" y2="96.45"/><path class="cls-7" d="M290.48,61.35S291.89,70,301,70"/><path class="cls-8" d="M337,76.89c6.46,11.09-6.22,23.23-13.91,23.23s-13.91-10.4-13.91-23.23,6.23-23.23,13.91-23.23S331.31,67.08,337,76.89Z"/><line class="cls-7" x1="323.05" y1="76.89" x2="323.05" y2="106.79"/><path class="cls-9" d="M287.23,92c.38,15.42-7.49,27.92-16.73,27.92s-16.42-5.49-18.65-20.76c-2.77-19,11.38-35.76,21.09-27.85C280.1,77.15,287,80.73,287.23,92Z"/><line class="cls-4" x1="269.96" y1="102.84" x2="269.96" y2="128.02"/><path class="cls-10" d="M207.43,285.5c-9.36,16.06,9.2,31.62,20.14,33.65,24.76,4.59,20.14-15.07,20.14-33.65s-8.79-36.66-20.14-33.64C216.82,254.72,215.71,271.29,207.43,285.5Z"/><line class="cls-7" x1="226.28" y1="288.19" x2="226.28" y2="335.26"/><path class="cls-7" d="M237,300.16s-1.41,8.6-10.56,8.6"/><path class="cls-3" d="M190.47,315.7c-6.46,11.09,6.22,23.23,13.91,23.23s13.9-10.4,13.9-23.23-6.22-23.23-13.9-23.23S196.19,305.89,190.47,315.7Z"/><line class="cls-4" x1="204.45" y1="315.7" x2="204.45" y2="345.6"/><path class="cls-6" d="M276,330.82c.38,15.42-7.49,27.93-16.72,27.93s-16.43-5.5-18.66-20.76c-2.77-19,11.38-35.76,21.09-27.86C268.86,316,275.71,319.54,276,330.82Z"/><line class="cls-4" x1="258.73" y1="341.65" x2="258.73" y2="366.83"/><path class="cls-11" d="M145.05,294.58a3.87,3.87,0,0,0-3.65-3.87,5.45,5.45,0,0,0-10.07.13,3.88,3.88,0,1,0-1,7.62h11.27v0A3.88,3.88,0,0,0,145.05,294.58Z"/><path class="cls-12" d="M186.72,359.19a3.86,3.86,0,0,0-3.65-3.86,5.44,5.44,0,0,0-10.07.13,3.82,3.82,0,0,0-1-.15,3.88,3.88,0,0,0,0,7.76h11.27v0A3.88,3.88,0,0,0,186.72,359.19Z"/><path class="cls-11" d="M249.7,129.72a3.88,3.88,0,0,0-3.65-3.86A5.44,5.44,0,0,0,236,126a3.88,3.88,0,1,0-1,7.61h11.27v0A3.88,3.88,0,0,0,249.7,129.72Z"/><path class="cls-11" d="M209.29,363.24a6.28,6.28,0,0,0-5.92-6.27,8.84,8.84,0,0,0-16.33.22,6.12,6.12,0,0,0-1.67-.23,6.29,6.29,0,0,0,0,12.57h18.27v0A6.29,6.29,0,0,0,209.29,363.24Z"/><path class="cls-12" d="M77.6,298.11a5.46,5.46,0,0,0-5.15-5.45,7.68,7.68,0,0,0-14.2.18,5.85,5.85,0,0,0-1.46-.2,5.47,5.47,0,0,0,0,10.94h15.9v0A5.48,5.48,0,0,0,77.6,298.11Z"/><path class="cls-13" d="M350.56,99c.54,3.27-2.21,3.26-4.93,3.26s-5.5.12-4.94-3.26c.3-1.78,2.21-3.26,4.94-3.26S350.27,97.23,350.56,99Z"/><path class="cls-14" d="M344.27,101.76c.45,2.74-1.86,2.74-4.15,2.74s-4.63.1-4.15-2.74c.25-1.5,1.86-2.75,4.15-2.75S344,100.26,344.27,101.76Z"/><path class="cls-13" d="M45.7,174.51c.53,3.27-2.21,3.27-4.94,3.27s-5.5.11-4.93-3.27c.3-1.77,2.21-3.26,4.93-3.26S45.41,172.74,45.7,174.51Z"/><path class="cls-14" d="M39.4,177.26c.45,2.75-1.86,2.74-4.15,2.74s-4.63.1-4.15-2.74c.26-1.49,1.86-2.74,4.15-2.74S39.16,175.76,39.4,177.26Z"/><path class="cls-5" d="M527.51,299.94c9.69,16.62-9.53,32.73-20.86,34.83-25.64,4.76-20.86-15.6-20.86-34.83s9.11-38,20.86-34.84C517.78,268.06,518.93,285.22,527.51,299.94Z"/><line class="cls-4" x1="507.98" y1="302.72" x2="507.98" y2="351.45"/><path class="cls-4" d="M496.87,315.11S498.32,324,507.8,324"/><path class="cls-9" d="M544.5,327.84c5.51,9.46-5.31,19.83-11.87,19.83s-11.87-8.88-11.87-19.83S526.08,308,532.63,308,539.62,319.47,544.5,327.84Z"/><line class="cls-7" x1="532.25" y1="328.41" x2="532.25" y2="356.56"/><path class="cls-12" d="M496.87,361a6.35,6.35,0,0,0-6-6.34,8.93,8.93,0,0,0-16.51.22,6.2,6.2,0,0,0-1.68-.24,6.36,6.36,0,0,0,0,12.72h18.47v0A6.37,6.37,0,0,0,496.87,361Z"/><path class="cls-13" d="M501.62,366c.54,3.26-2.21,3.26-4.93,3.26s-5.51.12-4.94-3.26c.3-1.78,2.21-3.27,4.94-3.27S501.33,364.18,501.62,366Z"/><path class="cls-14" d="M495.33,368.7c.45,2.75-1.86,2.75-4.15,2.75s-4.63.09-4.15-2.75c.25-1.49,1.86-2.74,4.15-2.74S495.09,367.21,495.33,368.7Z"/><path class="cls-9" d="M135.43,237.12c9.41,16.15-9.26,31.8-20.26,33.85-24.91,4.62-20.27-15.16-20.27-33.85s8.85-36.87,20.27-33.84C126,206.16,127.09,222.83,135.43,237.12Z"/><line class="cls-4" x1="116.46" y1="239.83" x2="116.46" y2="287.17"/><path class="cls-4" d="M105.66,251.87s1.41,8.65,10.62,8.65"/><path class="cls-5" d="M102.44,266.62c.28,11.63-5.65,21.06-12.61,21.06S77.45,283.54,75.76,272c-2.09-14.32,8.58-27,15.9-21C97.06,255.43,102.23,258.12,102.44,266.62Z"/><line class="cls-4" x1="89.42" y1="274.79" x2="89.42" y2="293.78"/><path class="cls-15" d="M317.87,261a6.72,6.72,0,0,1-7.76,8.76,6.84,6.84,0,0,1-1.87-.72,3.66,3.66,0,0,1-2.58,3.17,3.58,3.58,0,0,1-1,.15,3.64,3.64,0,0,1-3.38-2.26,7.41,7.41,0,0,1-6.13,3.26,7.29,7.29,0,0,1-3.27-.77,7.48,7.48,0,0,1-2.69-2.27,5.22,5.22,0,0,1-1.77.42h-.3a5.19,5.19,0,0,1-5-3.84,7.3,7.3,0,0,1-.94.07,6.59,6.59,0,0,1-5.88-9.6,3.63,3.63,0,0,1-.61-6.78,4.9,4.9,0,0,1-.12-1.08,5.36,5.36,0,0,1,5.36-5.36,5.23,5.23,0,0,1,1.94.37c0-.11,0-.21,0-.31a4.22,4.22,0,0,1,7.91-2.07,6.69,6.69,0,0,1,9,.9,4.22,4.22,0,0,1,3.2-1.49,4.12,4.12,0,0,1,1.06.16,4.2,4.2,0,0,1,6.37-.6,5.12,5.12,0,0,1,8.28,2.8,3.62,3.62,0,0,1,2.26,6.07,6.6,6.6,0,0,1-2,11Z"/><path class="cls-16" d="M289.42,232a9.15,9.15,0,0,0-1.27,4.67,11,11,0,0,1-1,.54,14.34,14.34,0,0,1-6.77,1.62,7.91,7.91,0,0,1-1-.09h0c-3.19-.52-3-2.82-.26-2.82C284.16,236.05,289.12,232.25,289.42,232Z"/><path class="cls-17" d="M288.15,236.68v2.51c-4.46,1.2-8.11-.36-7.73-.35a14.34,14.34,0,0,0,6.77-1.62Z"/><path class="cls-16" d="M305.18,232a9.15,9.15,0,0,1,1.27,4.67,11,11,0,0,0,1,.54,14.46,14.46,0,0,0,6.77,1.62,7.81,7.81,0,0,0,1-.1h0c3.19-.52,3-2.82.26-2.83C310.44,236,305.48,232.19,305.18,232Z"/><path class="cls-17" d="M306.45,236.63v2.51c4.46,1.19,8.11-.36,7.73-.35a14.46,14.46,0,0,1-6.77-1.62Z"/><path class="cls-18" d="M306.53,236.68v5a9.19,9.19,0,0,1-18.38,0v-5a9.19,9.19,0,1,1,18.38,0Z"/><path class="cls-19" d="M306.12,230.78a2.12,2.12,0,0,0-.82-1.59,1.85,1.85,0,0,0-1.89-.4,2.37,2.37,0,0,0-.79-2.54,2.54,2.54,0,0,0-1.83-.84A2.68,2.68,0,0,0,298.4,227s0,0,0,0a2.08,2.08,0,0,0-4.1.52,3.49,3.49,0,0,0-2.34-.59,2.88,2.88,0,0,0-2.34,1.89,4.07,4.07,0,0,0,0,2.6,1.46,1.46,0,0,0,0,2.92,2.4,2.4,0,0,0,1.23-.69s0,0,0,0a2,2,0,0,0,2.19,2.13,2.2,2.2,0,0,0,1.8-.93,2.15,2.15,0,0,0,2.57-.26,2.88,2.88,0,0,0,2.21,1,2.92,2.92,0,0,0,1.47-.41,2.15,2.15,0,0,0,2,.5,2.19,2.19,0,0,0,1.49-2.94A2.1,2.1,0,0,0,306.12,230.78Z"/><ellipse class="cls-20" cx="294.14" cy="238.76" rx="0.52" ry="0.89"/><ellipse class="cls-20" cx="300.51" cy="238.76" rx="0.52" ry="0.89"/><path class="cls-21" d="M299.33,245.07c-.22.43-.61.68-.86.55s-.29-.59-.07-1,.62-.68.87-.55S299.56,244.63,299.33,245.07Z"/><path class="cls-21" d="M295.41,245.07c.22.43.61.68.87.55s.28-.59.06-1-.61-.68-.87-.55S295.19,244.63,295.41,245.07Z"/><path class="cls-18" d="M291.84,272.56v5c0,.61-.5,1-.9.68l-1-.79a.46.46,0,0,0-.6,0l-1,.79c-.4.3-.9-.07-.9-.68v-6.84a5.22,5.22,0,0,0,1.77-.42A7.48,7.48,0,0,0,291.84,272.56Z"/><path class="cls-16" d="M287.38,276h4.46v1.6c0,.6-.5,1-.9.68l-1-.79a.46.46,0,0,0-.6,0l-1,.79c-.4.3-.9-.08-.9-.68Z"/><path class="cls-18" d="M310.11,269.73v7.82c0,.61-.49,1-.89.68l-1-.79a.46.46,0,0,0-.6,0l-1,.79c-.4.3-.9-.07-.9-.68v-5.37a3.66,3.66,0,0,0,2.58-3.17A6.84,6.84,0,0,0,310.11,269.73Z"/><path class="cls-16" d="M310.11,276v1.6c0,.6-.49,1-.89.68l-1-.79a.46.46,0,0,0-.6,0l-1,.79c-.4.3-.9-.08-.9-.68V276Z"/><path class="cls-15" d="M354.05,161.51a6.1,6.1,0,0,1-5.77,8.11,6.15,6.15,0,0,1-3-.79,3.31,3.31,0,0,1-6.37,1,6.73,6.73,0,0,1-5.58,3,6.64,6.64,0,0,1-3-.7,6.73,6.73,0,0,1-2.45-2.07,4.81,4.81,0,0,1-1.61.39H326a4.72,4.72,0,0,1-4.56-3.49,6,6,0,0,1-6.21-8.68,3.31,3.31,0,0,1-.56-6.18,4.59,4.59,0,0,1-.1-1,4.87,4.87,0,0,1,4.88-4.88,4.71,4.71,0,0,1,1.76.34,2.85,2.85,0,0,1,0-.29,3.84,3.84,0,0,1,7.2-1.88,6.1,6.1,0,0,1,8.19.82,3.78,3.78,0,0,1,3.88-1.22,3.84,3.84,0,0,1,5.8-.54A4.67,4.67,0,0,1,353.8,146a3.3,3.3,0,0,1,2.06,5.53,6,6,0,0,1-1.81,10Z"/><path class="cls-16" d="M328.13,135.13a8.43,8.43,0,0,0-1.15,4.26s-.32.2-.87.49a13.22,13.22,0,0,1-6.17,1.47,8.88,8.88,0,0,1-.95-.08h0c-2.9-.47-2.77-2.56-.23-2.57C323.35,138.81,327.86,135.35,328.13,135.13Z"/><path class="cls-17" d="M327,139.39v2.28a10.54,10.54,0,0,1-7-.32,13.22,13.22,0,0,0,6.17-1.47Z"/><path class="cls-16" d="M342.49,135.09a8.28,8.28,0,0,1,1.16,4.25s.31.2.87.49a13.1,13.1,0,0,0,6.17,1.47,6.6,6.6,0,0,0,.94-.08h0c2.9-.47,2.77-2.56.24-2.57C347.28,138.76,342.77,135.3,342.49,135.09Z"/><path class="cls-17" d="M343.65,139.34v2.28c4.05,1.09,7.38-.32,7-.32a13.1,13.1,0,0,1-6.17-1.47Z"/><path class="cls-18" d="M343.72,139.39V144A8.37,8.37,0,1,1,327,144v-4.56a8.33,8.33,0,0,1,8.37-8.37,8.36,8.36,0,0,1,8.37,8.37Z"/><path class="cls-19" d="M343.34,134a1.92,1.92,0,0,0-.74-1.45,1.72,1.72,0,0,0-1.72-.37,2.15,2.15,0,0,0-.72-2.3,2.3,2.3,0,0,0-1.67-.77,2.42,2.42,0,0,0-2.17,1.42s0,0,0,0a1.9,1.9,0,0,0-3.74.48,3.17,3.17,0,0,0-2.13-.54,2.61,2.61,0,0,0-2.13,1.72,3.71,3.71,0,0,0,0,2.37,1.33,1.33,0,0,0,0,2.66,2.18,2.18,0,0,0,1.12-.63s0,0,0,0a1.81,1.81,0,0,0,2,1.94,2,2,0,0,0,1.64-.85,2,2,0,0,0,1,.28,2,2,0,0,0,1.33-.52,2.64,2.64,0,0,0,2,.95,2.6,2.6,0,0,0,1.33-.37,2,2,0,0,0,3.19-.78,1.91,1.91,0,0,0,0-1.45A1.88,1.88,0,0,0,343.34,134Z"/><ellipse class="cls-20" cx="332.43" cy="141.27" rx="0.48" ry="0.81"/><ellipse class="cls-20" cx="338.24" cy="141.27" rx="0.48" ry="0.81"/><path class="cls-21" d="M337.17,147c-.21.4-.56.63-.8.51s-.25-.54-.05-.94.56-.62.79-.5S337.37,146.62,337.17,147Z"/><path class="cls-21" d="M333.59,147c.2.4.56.63.79.51s.26-.54.06-.94-.56-.62-.79-.5S333.39,146.62,333.59,147Z"/><path class="cls-18" d="M330.34,172.06v4.55c0,.55-.46.89-.82.61l-.94-.72a.42.42,0,0,0-.54,0l-.94.72c-.37.28-.82-.06-.82-.61v-6.23a4.81,4.81,0,0,0,1.61-.39A6.73,6.73,0,0,0,330.34,172.06Z"/><path class="cls-16" d="M326.28,175.15h4.06v1.46c0,.55-.46.89-.82.61l-.94-.72a.42.42,0,0,0-.54,0l-.94.72c-.37.28-.82-.06-.82-.61Z"/><path class="cls-18" d="M347,169.48v7.13c0,.55-.45.89-.81.61l-.94-.72a.44.44,0,0,0-.55,0l-.94.72c-.36.28-.81-.06-.81-.61v-4.89a3.32,3.32,0,0,0,2.34-2.89A6.1,6.1,0,0,0,347,169.48Z"/><path class="cls-16" d="M347,175.15v1.46c0,.55-.45.89-.81.61l-.94-.72a.44.44,0,0,0-.55,0l-.94.72c-.36.28-.81-.06-.81-.61v-1.46Z"/><path class="cls-15" d="M279.44,220.9A7.83,7.83,0,0,1,272,231.32a7.61,7.61,0,0,1-1.66-.18,7.43,7.43,0,0,1-2.2-.84,4.26,4.26,0,0,1-3,3.71,4.14,4.14,0,0,1-1.22.18,4.27,4.27,0,0,1-4-2.65,8.65,8.65,0,0,1-11,2.92,8.72,8.72,0,0,1-3.15-2.66,6,6,0,0,1-2.07.49h-.35a6.06,6.06,0,0,1-5.85-4.49,7.9,7.9,0,0,1-1.1.09,7.73,7.73,0,0,1-7.73-7.73,7.64,7.64,0,0,1,.85-3.5,4.25,4.25,0,0,1-.72-7.94,6,6,0,0,1-.13-1.27,6.27,6.27,0,0,1,6.27-6.27,6.07,6.07,0,0,1,2.26.44c0-.13,0-.25,0-.37a4.94,4.94,0,0,1,9.25-2.41A7.82,7.82,0,0,1,257,199.9a4.91,4.91,0,0,1,3.74-1.74,5,5,0,0,1,1.24.17,4.92,4.92,0,0,1,7.46-.69,6,6,0,0,1,9.69,3.27,4.25,4.25,0,0,1,2.65,7.11,7.73,7.73,0,0,1-2.33,12.88Z"/><path class="cls-16" d="M246.14,187a10.66,10.66,0,0,0-1.48,5.46,11,11,0,0,1-1.12.63,16.91,16.91,0,0,1-7.93,1.9,8.62,8.62,0,0,1-1.21-.11h0c-3.72-.61-3.56-3.3-.3-3.31C240,191.74,245.79,187.29,246.14,187Z"/><path class="cls-17" d="M244.66,192.48v2.94c-5.21,1.39-9.49-.42-9-.41a16.91,16.91,0,0,0,7.93-1.9Z"/><path class="cls-16" d="M264.59,187a10.66,10.66,0,0,1,1.49,5.46s.4.26,1.11.63a16.84,16.84,0,0,0,7.93,1.89,8.62,8.62,0,0,0,1.21-.11h0c3.72-.6,3.56-3.29.3-3.3C270.74,191.68,264.94,187.23,264.59,187Z"/><path class="cls-17" d="M266.07,192.42v2.93c5.21,1.4,9.48-.42,9-.41a16.84,16.84,0,0,1-7.93-1.89Z"/><path class="cls-18" d="M266.16,192.48v5.87a10.75,10.75,0,0,1-21.5,0v-5.87a10.66,10.66,0,0,1,1.48-5.46,10.75,10.75,0,0,1,20,5.46Z"/><path class="cls-19" d="M265.68,185.58a2.4,2.4,0,0,0-1-1.86,2.14,2.14,0,0,0-2.2-.48,2.79,2.79,0,0,0-.93-3,3,3,0,0,0-2.14-1,3.11,3.11,0,0,0-2.79,1.83s0,0,0,0a2.44,2.44,0,0,0-4.8.61,4,4,0,0,0-2.73-.69,3.32,3.32,0,0,0-2.74,2.21,4.76,4.76,0,0,0,0,3,1.71,1.71,0,0,0,0,3.42,2.72,2.72,0,0,0,1.43-.82s0,0,0,0a2.32,2.32,0,0,0,2.57,2.5,2.58,2.58,0,0,0,2.1-1.1,2.49,2.49,0,0,0,1.3.36,2.55,2.55,0,0,0,1.71-.66,3.33,3.33,0,0,0,4.3.74,2.56,2.56,0,0,0,4.08-2.86A2.44,2.44,0,0,0,265.68,185.58Z"/><ellipse class="cls-20" cx="251.67" cy="194.91" rx="0.61" ry="1.04"/><ellipse class="cls-20" cx="259.12" cy="194.91" rx="0.61" ry="1.04"/><path class="cls-21" d="M257.75,202.29c-.26.51-.72.8-1,.65s-.33-.69-.07-1.21.71-.8,1-.64S258,201.78,257.75,202.29Z"/><path class="cls-21" d="M253.15,202.29c.27.51.72.8,1,.65s.33-.69.07-1.21-.71-.8-1-.64S252.89,201.78,253.15,202.29Z"/><path class="cls-18" d="M249,234.46v5.84c0,.7-.59,1.15-1,.79l-1.21-.93a.57.57,0,0,0-.7,0l-1.21.93c-.47.36-1.05-.09-1.05-.79v-8a6,6,0,0,0,2.07-.49A8.72,8.72,0,0,0,249,234.46Z"/><path class="cls-16" d="M243.76,238.43H249v1.87c0,.7-.59,1.14-1,.79l-1.21-.93a.57.57,0,0,0-.7,0l-1.21.93c-.47.35-1.05-.09-1.05-.79Z"/><path class="cls-18" d="M270.36,231.14v9.16c0,.7-.58,1.15-1.05.79l-1.2-.93a.59.59,0,0,0-.71,0l-1.2.93c-.47.36-1.05-.09-1.05-.79V234a4.26,4.26,0,0,0,3-3.71A7.43,7.43,0,0,0,270.36,231.14Z"/><path class="cls-16" d="M270.36,238.43v1.87c0,.7-.58,1.14-1.05.79l-1.2-.93a.59.59,0,0,0-.71,0l-1.2.93c-.47.35-1.05-.09-1.05-.79v-1.87Z"/><path class="cls-10" d="M380.48,84.25c-7,12.06,6.91,23.74,15.13,25.27,18.6,3.45,15.13-11.32,15.13-25.27S404.13,56.71,395.61,59C387.53,61.12,386.7,73.57,380.48,84.25Z"/><line class="cls-7" x1="398.87" y1="86.27" x2="398.87" y2="121.62"/><path class="cls-7" d="M390.81,95.26a7.88,7.88,0,0,0,7.93,6.46"/><path class="cls-9" d="M423.23,101.07c3.75,6.44-3.62,13.5-8.09,13.5s-8.08-6-8.08-13.5,3.62-13.51,8.08-13.51S419.9,95.36,423.23,101.07Z"/><line class="cls-4" x1="414.93" y1="104.06" x2="414.93" y2="122.1"/><path class="cls-11" d="M387.12,115.77a2.83,2.83,0,0,0-2.66-2.82,4,4,0,0,0-7.34.1,2.67,2.67,0,0,0-.75-.11,2.83,2.83,0,0,0,0,5.66h8.21v0A2.82,2.82,0,0,0,387.12,115.77Z"/><path class="cls-12" d="M401.14,121.64a4.63,4.63,0,0,0-4.36-4.62,6.51,6.51,0,0,0-12,.16,4.51,4.51,0,0,0-1.23-.17,4.64,4.64,0,0,0,0,9.27H397v0A4.63,4.63,0,0,0,401.14,121.64Z"/><path class="cls-5" d="M417,232a18.37,18.37,0,0,1-18.53-18.79c.82-36.32,8.17-113,55.09-123.19,47.32-10.27,68.07,77.84,75.2,119.66a18.37,18.37,0,0,1-17.93,21.44Z"/><path class="cls-9" d="M366.51,270.77A16.42,16.42,0,0,1,349.94,254c.73-32.48,7.3-101.06,49.27-110.17,42.32-9.2,60.88,69.61,67.25,107a16.42,16.42,0,0,1-16,19.18Z"/></g></svg>