<svg id="icon" xmlns="http://www.w3.org/2000/svg" viewBox="0 0 65.9 38.67"><defs><style>.cls-1{fill:none;stroke:#fff;stroke-miterlimit:10;}.cls-2{fill:#fff;}</style></defs><path class="cls-1" d="M18.88,5.77c-4.17-.12-12-.18-15.81,5.33C1.8,13,17.42,13.33,14.69,14.41s-9.78.31-8.64,2.22,15,1.14,23.81,2.22,18-.25,13.53,6.29,8.31,10.79,14.16,9,6-4.7,3.11-4.76-9.78-.25-7-6S57,13,46.69,9.77,25.9,6,18.88,5.77Z"/><path class="cls-1" d="M20.91,5.74S23.2,2.46,32.74,3.3c11.54,1,24.92,6.5,26.14,11,1.46,5.46-2.07,9.15-5.58,12.73"/><path class="cls-1" d="M23.25,18.35s21.63,3.11,20.63,6"/><circle class="cls-2" cx="13.44" cy="10.07" r="1.1"/><path class="cls-2" d="M27.16,8.53c-.51.22-1.74,1.47-.69,2.09S29.11,7.64,27.16,8.53Z"/><path class="cls-2" d="M31.47,8.89c-.51-.2-2.27-.2-2,1S33.47,9.66,31.47,8.89Z"/><path class="cls-2" d="M48.53,11.94c-.23-.31-1.26-1-1.54-.18S49.4,13.17,48.53,11.94Z"/><path class="cls-2" d="M53,14.6c-.12-.36-.91-1.32-1.42-.63S53.45,16,53,14.6Z"/><path class="cls-2" d="M34.57,8.58c-.55.07-2.1.9-1.28,1.8S36.69,8.31,34.57,8.58Z"/><path class="cls-2" d="M45.33,12.23c-.42-.12-1.8,0-1.47.9S47,12.69,45.33,12.23Z"/><path class="cls-2" d="M23.56,7.34c-.52-.09-2.09-.53-2,.54S24,10.57,25.37,9.07,24.18,7.43,23.56,7.34Z"/><path class="cls-2" d="M41.69,9.84c-.52-.08-2.09-.52-2,.55s2.43,2.69,3.83,1.19S42.31,9.94,41.69,9.84Z"/><circle class="cls-2" cx="29.16" cy="8.22" r="0.55"/><circle class="cls-2" cx="46.97" cy="13.69" r="0.4"/><ellipse class="cls-2" cx="45.29" cy="11.11" rx="0.55" ry="0.42"/><ellipse class="cls-2" cx="36.02" cy="10.93" rx="0.36" ry="0.55" transform="translate(-0.64 19.47) rotate(-30)"/><ellipse class="cls-2" cx="32.48" cy="8.22" rx="0.36" ry="0.55" transform="translate(0.24 17.34) rotate(-30)"/><path class="cls-2" d="M39,10c-.1-.41-.58-1.43-1.4-1s-.17,1.52.65,1.69S39,10.22,39,10Z"/><path class="cls-2" d="M49.82,14.71c.43-.21,1.43-1,.69-1.79s-1.73.2-1.7,1.16S49.55,14.85,49.82,14.71Z"/></svg>