<svg id="icon" xmlns="http://www.w3.org/2000/svg" viewBox="0 0 50.67 48"><defs><style>.cls-1{fill:none;stroke:#fff;stroke-linecap:round;stroke-linejoin:round;}.cls-2{fill:#fff;}</style></defs><path class="cls-1" d="M35.21,28.5c0-.16,0-.32,0-.48a56.68,56.68,0,0,1,2.11-14.15H20.57S9,14.93,9,22.93l8.38,6.57H4.84s1,14.86,13.71,14.86c8.12,0,12.67-3.77,14.89-8.34"/><path class="cls-1" d="M37.33,13.87l8.72-7.42s4.66,5,0,14.43Z"/><line class="cls-1" x1="37.33" y1="13.87" x2="47.99" y2="11.12"/><line class="cls-1" x1="37.74" y1="13.87" x2="47.59" y2="16.83"/><circle class="cls-1" cx="6.51" cy="15.35" r="1.2"/><circle class="cls-2" cx="16.75" cy="20.88" r="1.2"/><polyline class="cls-1" points="6.75 29.5 6.75 25.41 10.94 29.5"/><path class="cls-1" d="M31.22,28.5v7.76s7.91.38,7.91-7.76Z"/><path class="cls-1" d="M6.51,14.15V7.5s-.19-5.14,5.76-5.14S17.6,7.55,17.6,7.55v6.6"/></svg>