<svg id="icon" xmlns="http://www.w3.org/2000/svg" viewBox="0 0 50.4 37.9"><defs><style>.cls-1{fill:none;stroke:#fff;stroke-linecap:round;stroke-linejoin:round;}</style></defs><path class="cls-1" d="M14.26,20.8l-5.76.13s-4.19,1.71-2.29,5.33,4.29,9.43,17.52,8.29,20.38-4.37,23.53-10.67c.67-1.33-3.43-4.29-9.53-3.62"/><line class="cls-1" x1="5.89" y1="25.51" x2="46.12" y2="25.51"/><path class="cls-1" d="M8.13,21.1S.69,20.78,3.5,15.45,34.16-1.88,40.35,5.74c4.53,5.57-.57,10.8-3.64,13.2"/><path class="cls-1" d="M11.74,20.85s-5.1-.68-3.43-3.49S26.16,8.69,30,9.5s4,5.05,3.15,7"/><path class="cls-1" d="M13,25.51s.57-8.15,6.91-9.44,18.61-1,19.38,9.44"/><path class="cls-1" d="M26.16,18.83s7-.66,8.72,4.19"/></svg>