<svg id="icon" xmlns="http://www.w3.org/2000/svg" viewBox="0 0 52.19 39.24"><defs><style>.cls-1{fill:none;stroke:#fff;stroke-linecap:round;stroke-linejoin:round;}.cls-2{fill:#fff;}</style></defs><path class="cls-1" d="M37.85,6.43c3.23.23,10.92,0,11,7.26s-8.07,6.4-11.18,5.84c-3.92-.71-8.91-2.09-15.55-3.49-6.92-1.46-14,.76-13.72,7.74s15.05,4.49,18.73,5.9S25.91,36,21.85,35.21s-3.36-2.16-6.92-3.11S.74,30.93,5.09,16C8.71,3.66,29.42,5.84,37.85,6.43Z"/><path class="cls-1" d="M35.13,6.23S29.53.16,28,5.91"/><path class="cls-1" d="M27.55,17.24s-3.32,6.55,9,2.06"/><line class="cls-1" x1="28.77" y1="4.25" x2="31.84" y2="5.9"/><line class="cls-1" x1="27.15" y1="19.05" x2="32.98" y2="18.51"/><circle class="cls-2" cx="42.17" cy="11.71" r="0.6"/><circle class="cls-2" cx="42.17" cy="15.37" r="0.6"/></svg>