<svg id="icon" xmlns="http://www.w3.org/2000/svg" viewBox="0 0 28.09 42.16"><defs><style>.cls-1,.cls-2{fill:none;stroke:#fff;}.cls-1{stroke-miterlimit:10;}.cls-2{stroke-linecap:round;stroke-linejoin:round;}</style></defs><path class="cls-1" d="M20.65,36.23c.54-5.38,1.46-16.38.7-21.59S20,4.73,11.07,5.12.21,15.53,6.18,24.48s10.2,13.69,12.51,14.41C20.34,39.41,20.46,38.13,20.65,36.23Z"/><line class="cls-2" x1="16.05" y1="28.07" x2="18.38" y2="34.26"/><path class="cls-2" d="M13.73,5.17s1-1.53,4.42-1,9.14,4,7.62,14.19A87.78,87.78,0,0,1,20.55,37.2"/><path class="cls-2" d="M6.3,14.73c0,2,.67,4.65,2.94,8"/><path class="cls-2" d="M8.91,9.5a6,6,0,0,0-2.2,2.92"/></svg>