<svg id="icon" xmlns="http://www.w3.org/2000/svg" viewBox="0 0 34.39 36.26"><defs><style>.cls-1{fill:none;stroke:#fff;stroke-miterlimit:10;}.cls-2{fill:#fff;}</style></defs><path class="cls-1" d="M24.92,30.35l-3.29-3.13a.68.68,0,0,0-1.15.48l-.05,4.54a.68.68,0,0,1-1.3.26l-1.74-4.2a.68.68,0,0,0-1.25,0l-1.88,4.13a.68.68,0,0,1-1.3-.3l.12-4.54A.68.68,0,0,0,12,27l-3.4,3a.68.68,0,0,1-1.07-.8l2-4.1a.68.68,0,0,0-.82-.94L4.29,25.56a.67.67,0,0,1-.64-1.16L7.1,21.45a.68.68,0,0,0-.36-1.19l-4.51-.52a.68.68,0,0,1-.12-1.33l4.36-1.29a.68.68,0,0,0,.15-1.24l-3.91-2.3a.68.68,0,0,1,.44-1.26l4.5.59a.68.68,0,0,0,.64-1.07L5.66,8.14a.68.68,0,0,1,.91-1l3.87,2.38a.68.68,0,0,0,1-.72l-.9-4.45a.68.68,0,0,1,1.23-.52l2.57,3.75a.68.68,0,0,0,1.22-.24l1-4.43A.68.68,0,0,1,17.9,3l.83,4.47a.68.68,0,0,0,1.21.28l2.71-3.65a.68.68,0,0,1,1.2.57L22.79,9a.68.68,0,0,0,1,.75l3.95-2.23a.68.68,0,0,1,.87,1l-2.76,3.6a.68.68,0,0,0,.6,1.09L31,12.83a.68.68,0,0,1,.39,1.27l-4,2.17a.68.68,0,0,0,.1,1.24L31.78,19a.68.68,0,0,1-.17,1.32l-4.52.35a.68.68,0,0,0-.41,1.18L30,24.88A.68.68,0,0,1,29.34,26L25.06,24.5a.68.68,0,0,0-.85.92L26,29.58A.68.68,0,0,1,24.92,30.35Z"/><circle class="cls-2" cx="14.58" cy="16.13" r="1.15"/><circle class="cls-2" cx="20.03" cy="16.13" r="1.15"/></svg>