<svg id="icon" xmlns="http://www.w3.org/2000/svg" viewBox="0 0 36.95 40.63"><defs><style>.cls-1{fill:none;stroke:#fff;stroke-linecap:round;stroke-linejoin:round;}.cls-2{fill:#fff;}</style></defs><path class="cls-1" d="M33.37,6.16a1.18,1.18,0,0,0-.9-.9c-1.82-.43-6.95-1-12,4L11.73,18a2.29,2.29,0,0,0,0,3.23L14,23.54l1.1,1.1,2.27,2.28a2.29,2.29,0,0,0,3.23,0l8.76-8.76C34.4,13.13,33.8,8,33.37,6.16Z"/><path class="cls-1" d="M30.75,5s-16.66-3-12.9,6.91"/><path class="cls-1" d="M33.66,7.92s3,16.66-6.91,12.9"/><path class="cls-1" d="M7.16,19.5,5.43,21.23a2.06,2.06,0,0,0,0,2.75"/><path class="cls-1" d="M5.43,24a2.06,2.06,0,0,0,2.75,0l1.73-1.73"/><path class="cls-1" d="M4.88,26.25,3.15,28a2.06,2.06,0,0,0,0,2.75"/><path class="cls-1" d="M3.15,30.72a2,2,0,0,0,2.75,0l6.24-6.24"/><path class="cls-1" d="M19.17,31.52l-1.73,1.73a2.05,2.05,0,0,1-2.75,0"/><path class="cls-1" d="M14.69,33.25a2.06,2.06,0,0,1,0-2.75l1.73-1.73"/><path class="cls-1" d="M12.43,33.8,10.7,35.53a2.06,2.06,0,0,1-2.75,0"/><path class="cls-1" d="M8,35.53a2.05,2.05,0,0,1,0-2.75l6.24-6.24"/><circle class="cls-2" cx="15.77" cy="20.31" r="0.77"/><circle class="cls-2" cx="18.44" cy="22.98" r="0.77"/></svg>