<svg id="icon" xmlns="http://www.w3.org/2000/svg" viewBox="0 0 29.59 25.78"><defs><style>.cls-1{fill:none;stroke:#fff;stroke-linecap:round;stroke-linejoin:round;}</style></defs><path class="cls-1" d="M5.88,7a5.23,5.23,0,0,1,3.77,0c2.15.81,4.86,1.59,4.86,1.59a3.54,3.54,0,0,1,2.7,3.36v6.5s0,2.56-1.61,3.4-1.79.9-1.79.9a5.16,5.16,0,0,1-3.9.46C8,22.44,4.08,21,4.08,21a3,3,0,0,1-2-3.14V11.61s-.14-3,2.2-4C5,7.35,5.88,7,5.88,7Z"/><polyline class="cls-1" points="4.79 10.61 11.75 13.08 14.43 11.91"/><line class="cls-1" x1="11.6" y1="20.97" x2="11.6" y2="13.25"/><path class="cls-1" d="M12.29,7.8a4,4,0,0,1,2.18-3.55c.7-.28,1.6-.67,1.6-.67a5.23,5.23,0,0,1,3.77-.05c2.14.8,4.86,1.59,4.86,1.59a3.54,3.54,0,0,1,2.7,3.36V15s0,2.56-1.62,3.4-1.78.9-1.78.9a5.23,5.23,0,0,1-3.9.46l-2.77-1"/><polyline class="cls-1" points="14.98 7.23 21.93 9.71 24.62 8.54"/><line class="cls-1" x1="21.78" y1="17.6" x2="21.78" y2="9.88"/></svg>