<svg id="icon" xmlns="http://www.w3.org/2000/svg" viewBox="0 0 40.51 20.04"><defs><style>.cls-1,.cls-2{fill:none;stroke:#fff;}.cls-1{stroke-miterlimit:10;}.cls-2{stroke-linecap:round;stroke-linejoin:round;}</style></defs><path class="cls-1" d="M6.14,7.67h29a0,0,0,0,1,0,0v2.92a7,7,0,0,1-7,7h-15a7,7,0,0,1-7-7V7.67A0,0,0,0,1,6.14,7.67Z"/><path class="cls-1" d="M3.19,7.67h3a0,0,0,0,1,0,0v2a0,0,0,0,1,0,0h-3a1,1,0,0,1-1-1v0A1,1,0,0,1,3.19,7.67Z"/><path class="cls-1" d="M36.11,7.67h3a0,0,0,0,1,0,0v2a0,0,0,0,1,0,0h-3a1,1,0,0,1-1-1v0A1,1,0,0,1,36.11,7.67Z" transform="translate(74.16 17.38) rotate(180)"/><polyline class="cls-2" points="6.9 7.67 10.36 3.86 15.12 7.67"/><polyline class="cls-2" points="12.21 5.37 13.37 3.86 18.13 7.67"/><polyline class="cls-2" points="15.4 5.44 16.87 3.86 21.63 7.67"/><path class="cls-2" d="M18.13,4.87a8.16,8.16,0,0,1,10.52,2.8"/><path class="cls-2" d="M20.27,4.16s2.81,1.4,2.48,3.51"/><path class="cls-2" d="M25.34,4.73s-.69,1.39-3,1.19"/><path class="cls-2" d="M27,6.46s-.69,1.4-3,1.19"/><path class="cls-2" d="M25.51,4.62a2.51,2.51,0,0,1,3.14-1.23c2.2.73.93,2.26,2.51,2.76s1.71,1.52,1.71,1.52"/><path class="cls-2" d="M28.65,3.14A2.51,2.51,0,0,1,32,2.93c1.87,1.37.2,2.44,1.54,3.4a3.09,3.09,0,0,1,1,1"/></svg>