<svg id="icon" xmlns="http://www.w3.org/2000/svg" viewBox="0 0 32.25 31.31"><defs><style>.cls-1{fill:none;stroke:#fff;stroke-linecap:round;stroke-linejoin:round;}</style></defs><path class="cls-1" d="M27.84,16H2.9S1.64,26.22,12.25,27.56v.79a.84.84,0,0,0,.84.84h5.48a.85.85,0,0,0,.84-.84v-.93C29,25.62,27.84,16,27.84,16Z"/><line class="cls-1" x1="19.81" y1="9.3" x2="26.22" y2="2.26"/><line class="cls-1" x1="22.64" y1="9.3" x2="30.75" y2="4.32"/><path class="cls-1" d="M4.9,16s.8-4.23,6.12-5.12c0,0,6.71-6.6,13.41,5.12"/><path class="cls-1" d="M11,10.92S16,9.87,20.6,16"/><path class="cls-1" d="M13.46,11a8.26,8.26,0,0,0-6.14,5"/><path class="cls-1" d="M15.37,11.72s-4.81,1.39-4.58,4"/><path class="cls-1" d="M13.59,12.43A5.6,5.6,0,0,1,17.33,16"/><path class="cls-1" d="M11.89,13.68s2.71.82,2.58,2.36"/><path class="cls-1" d="M20.14,15.45a3.44,3.44,0,0,0,2.5-2"/><path class="cls-1" d="M20.86,11.36a6.11,6.11,0,0,1-1.71,3"/><path class="cls-1" d="M13.7,9.43S16.85,9.52,20,13"/></svg>