<svg id="icon" xmlns="http://www.w3.org/2000/svg" viewBox="0 0 41.25 43.17"><defs><style>.cls-1{fill:none;stroke:#fff;stroke-linecap:round;stroke-linejoin:round;}.cls-2{fill:#fff;}</style></defs><path class="cls-1" d="M31.36,34h0A4.55,4.55,0,0,0,26,37.15h0a4.54,4.54,0,0,1-8.42.66h0a4.53,4.53,0,0,0-5.74-2.23h0A4.54,4.54,0,0,1,6.1,29.41h0a4.54,4.54,0,0,0-1.85-5.88h0a4.54,4.54,0,0,1,1.23-8.36h0a4.53,4.53,0,0,0,3.45-5.1h0a4.55,4.55,0,0,1,7.3-4.26h0a4.53,4.53,0,0,0,6.14-.48h0a4.54,4.54,0,0,1,7.88,3.05h0a4.54,4.54,0,0,0,4.21,4.5h0A4.54,4.54,0,0,1,37,21h0A4.53,4.53,0,0,0,36.09,27h0A4.54,4.54,0,0,1,31.36,34Z"/><circle class="cls-2" cx="16.09" cy="17.68" r="1.21"/><circle class="cls-2" cx="25.26" cy="17.68" r="1.21"/></svg>