<svg id="icon" xmlns="http://www.w3.org/2000/svg" viewBox="0 0 44.95 48.25"><defs><style>.cls-1{fill:none;stroke:#fff;stroke-linecap:round;stroke-linejoin:round;}</style></defs><path class="cls-1" d="M7.89,24V30c0,.23,0,.45,0,.68a14.52,14.52,0,1,0,29,0V23.52"/><path class="cls-1" d="M12.16,10.47H32.61a8.46,8.46,0,0,1,8.46,8.46v2.32a2.27,2.27,0,0,1-2.27,2.27H6A2.27,2.27,0,0,1,3.7,21.25V18.93a8.46,8.46,0,0,1,8.46-8.46Z"/><path class="cls-1" d="M22.3,10.36,21.14,4.51A1.18,1.18,0,0,1,22.3,3.1h.17a1.18,1.18,0,0,1,1.15,1.44Z"/></svg>