<svg id="icon" xmlns="http://www.w3.org/2000/svg" viewBox="0 0 39.87 39.62"><defs><style>.cls-1{fill:none;stroke:#fff;stroke-linecap:round;stroke-linejoin:round;}</style></defs><path class="cls-1" d="M37.62,18.4H2.84s-1.76,14.19,13,16.06v1.11a1.18,1.18,0,0,0,1.18,1.18h7.64a1.18,1.18,0,0,0,1.18-1.18v-1.3C39.29,31.77,37.62,18.4,37.62,18.4Z"/><circle class="cls-1" cx="9.48" cy="16.25" r="2.15"/><circle class="cls-1" cx="24.29" cy="7.4" r="2.15"/><circle class="cls-1" cx="15.65" cy="14.13" r="4.03"/><circle class="cls-1" cx="33.94" cy="14.16" r="3.44"/><path class="cls-1" d="M24.19,17.6a3.53,3.53,0,0,1-.27-1.35,3.44,3.44,0,0,1,6.88,0,3.49,3.49,0,0,1-.3,1.41"/><line class="cls-1" x1="35.07" y1="4.57" x2="28.71" y2="13.08"/></svg>