<svg id="icon" xmlns="http://www.w3.org/2000/svg" viewBox="0 0 46.98 46.84"><defs><style>.cls-1,.cls-2{fill:none;stroke:#333;stroke-width:1.5px;}.cls-1{stroke-miterlimit:10;}.cls-2{stroke-linecap:round;stroke-linejoin:round;}.cls-3{fill:#333;}</style></defs><path class="cls-1" d="M8.34,12.28H28.51s11.65,0,12.85,9c.15,1.13-1.59,2.95-4.31,3.85s-6,1.89-7.71,0-2.19-2.42-6.64-2.19S9.55,23.38,8.34,12.28Z"/><path class="cls-1" d="M27.23,12.28a10.19,10.19,0,0,1-.34,10.9"/><path class="cls-1" d="M41.37,21.53s3.42,10.36-5.6,12.17c-1.7.34-5.59-1.93-5.48-3.63a12.84,12.84,0,0,1,1.17-3.87"/><path class="cls-2" d="M30.29,30.86S25,32.74,25.68,35.62c.3,1.29.46,3.25,3,3.21s6.51,0,8.68-5.57"/><path class="cls-2" d="M25.62,34.85a23.45,23.45,0,0,0-10.24.7,1.1,1.1,0,0,0-.71,1.53c.63,1.38,1.9,3.56,3.68,4,2.65.56,8-1.54,8.74-2.55"/><line class="cls-2" x1="20.28" y1="25.76" x2="22.7" y2="22.93"/><line class="cls-2" x1="24.41" y1="25.76" x2="26.83" y2="22.93"/><line class="cls-2" x1="27.09" y1="28.22" x2="29.51" y2="25.39"/><circle class="cls-3" cx="14.87" cy="15.4" r="0.71"/><path class="cls-2" d="M8.34,12.28s-4.08-1.14-3.25-3.7,3.14-3.22,6.08-2.69S15.59,9.22,20,7.18s9.89-1.48,14.35.22"/></svg>