<svg id="icon" xmlns="http://www.w3.org/2000/svg" viewBox="0 0 45.71 46.22"><defs><style>.cls-1{fill:none;stroke:#333;stroke-linecap:round;stroke-linejoin:round;stroke-width:1.5px;}.cls-2{fill:#333;}</style></defs><path class="cls-1" d="M31.38,17.12a1.42,1.42,0,0,1,.08-.18,8,8,0,0,0-7.07-11c-5.58-.23-13,1.81-16.51,13C1.92,38,29.45,48.75,35,32.09c0,0-11.64,7.17-13.56-.12C20.23,27.38,27.46,27,31.38,17.12Z"/><path class="cls-1" d="M14.8,13.08s1.35,11.23,12.66,10.23"/><circle class="cls-2" cx="22.29" cy="10.31" r="1.06"/><path class="cls-1" d="M29.93,8.47s-4,3.8-2.84,3.78c3.19-.07,4.22-1.73,4.22-1.73"/><path class="cls-1" d="M11.05,12.25a5.91,5.91,0,0,1-4.34-4.1S2.93,18.5,7.57,28.21"/><path class="cls-1" d="M35.17,26.63s-3.34,2.59-.49,5.61C34.68,32.24,38.37,30.11,35.17,26.63Z"/><path class="cls-1" d="M40.46,32.87s-2.6-3.34-5.62-.49C34.84,32.38,37,36.07,40.46,32.87Z"/></svg>