<svg id="icon" xmlns="http://www.w3.org/2000/svg" viewBox="0 0 53.33 46.22"><defs><style>.cls-1{fill:#e8e2c8;}.cls-2{fill:none;stroke:#333;stroke-linecap:round;stroke-linejoin:round;stroke-width:1.5px;}</style></defs><path class="cls-1" d="M24.11,8.79S30.17,7.11,34,8.1C38.46,9.28,43,10.72,43,10.72s6.34,1.59,6.34,6.07V26.92s.07,4.2-3.79,5.58-14,4.83-14,4.83a16.82,16.82,0,0,1-9.17.75C17.76,37,8.67,34.57,8.67,34.57S4,33.74,4,29.4V19.2a6.22,6.22,0,0,1,5.17-6.55C14.8,11.41,24.11,8.79,24.11,8.79Z"/><path class="cls-2" d="M24.11,8.79S30.17,7.11,34,8.1C38.46,9.28,43,10.72,43,10.72s6.34,1.59,6.34,6.07V26.92s.07,4.2-3.79,5.58-14,4.83-14,4.83a16.82,16.82,0,0,1-9.17.75C17.76,37,8.67,34.57,8.67,34.57S4,33.74,4,29.4V19.2a6.22,6.22,0,0,1,5.17-6.55C14.8,11.41,24.11,8.79,24.11,8.79Z"/><polyline class="cls-2" points="10.8 17.55 26.52 21.61 30.62 20.55"/><line class="cls-2" x1="26.17" y1="34.57" x2="26.17" y2="21.89"/><line class="cls-2" x1="34.34" y1="19.58" x2="40.96" y2="17.65"/></svg>