<svg id="icon" xmlns="http://www.w3.org/2000/svg" viewBox="0 0 48.51 46.22"><defs><style>.cls-1{fill:none;stroke:#333;stroke-linecap:round;stroke-linejoin:round;stroke-width:1.5px;}</style></defs><path class="cls-1" d="M29.5,15.54A5.45,5.45,0,0,1,24.05,21a5.52,5.52,0,0,1-5.44-5.45c-.16-4.36,3.65-5.11,3.85-6.66.31-2.35,3.05-2.91,3.6-.16C26.42,10.52,29.5,12.14,29.5,15.54Z"/><path class="cls-1" d="M19.23,18.66a5.41,5.41,0,0,1-2.79.77A5.52,5.52,0,0,1,11,14c-.16-4.36,3.66-5.11,3.86-6.66.3-2.35,3-2.91,3.59-.16.23,1.11,1.48,2.15,2.41,3.59"/><path class="cls-1" d="M30,18.66a5.45,5.45,0,0,0,2.8.77A5.52,5.52,0,0,0,38.26,14c.16-4.36-3.65-5.11-3.85-6.66-.31-2.35-3-2.91-3.6-.16-.22,1.11-1.48,2.15-2.41,3.59"/><path class="cls-1" d="M11,16.41s-7.56,2-.93,5.42c4.15,2.16,10.29,2.43,14.31,2.34,4,.09,10.15-.18,14.3-2.34,6.63-3.45-.93-5.42-.93-5.42"/><path class="cls-1" d="M10.2,13.93S1.33,15.46,3.5,20.3,3.17,32.67,16.09,37.54l.08,2a1.37,1.37,0,0,0,1.37,1.38H31.26a1.38,1.38,0,0,0,1.38-1.38v-2C45.56,32.67,42.87,25.08,45,20.3s-6.7-6.37-6.7-6.37"/></svg>