<svg xmlns="http://www.w3.org/2000/svg" xmlns:xlink="http://www.w3.org/1999/xlink" viewBox="0 0 117.33 117.33"><defs><style>.cls-1{fill:#f7d8ba;}.cls-2{clip-path:url(#clip-path);}.cls-3{fill:#a74b22;}.cls-4{fill:#28466d;}.cls-5{fill:#e0a78f;}.cls-6,.cls-8{fill:none;stroke-linecap:round;stroke-linejoin:round;stroke-width:0.66px;}.cls-6{stroke:#b9635e;}.cls-7{fill:#1e0b02;}.cls-8{stroke:#000;}</style><clipPath id="clip-path"><circle class="cls-1" cx="58.67" cy="58.67" r="56.54" transform="translate(-11.66 102.68) rotate(-77.04)"/></clipPath></defs><g id="OBJECTS"><circle class="cls-1" cx="58.67" cy="58.67" r="56.54" transform="translate(-11.66 102.68) rotate(-77.04)"/><g class="cls-2"><path class="cls-3" d="M81.26,25.8a22.81,22.81,0,0,0-9-8.8,20.5,20.5,0,0,0-13.21-2.08h0A20.46,20.46,0,0,0,45.89,17a22.89,22.89,0,0,0-9,8.8c-6.43,11.14-6.28,46.14-6.28,46.14l27,1.68v.18l1.42-.09,1.43.09v-.18l27-1.68S87.69,36.94,81.26,25.8Z"/><path class="cls-4" d="M97.92,94.88c-1.83-4.88-7.42-11.3-18.27-13l-20.2-4-20.21,4C28.39,83.58,22.8,90,21,94.88L16.73,114h85.43Z"/><path class="cls-5" d="M38.61,82.09l21.91-4.44L81,82l-.45.33c-12.5,9-29.31,8.58-41.91-.27Z"/><path class="cls-5" d="M48.52,49.67A5.92,5.92,0,1,1,42.38,44,5.92,5.92,0,0,1,48.52,49.67Z"/><path class="cls-6" d="M39.24,49.11s2.34-1.17,4.62,2.89"/><path class="cls-5" d="M70.11,49.62a5.92,5.92,0,1,0,5.86-6A5.92,5.92,0,0,0,70.11,49.62Z"/><path class="cls-6" d="M79.35,48.6S77,47.54,74.87,51.71"/><ellipse class="cls-3" cx="59" cy="35.35" rx="20.35" ry="18.99" transform="translate(-0.36 0.61) rotate(-0.59)"/><path class="cls-5" d="M65.14,61.48a14.13,14.13,0,0,1-4.86,3c-2.32.6-4.61-1.14-4.64-1.16l-2.75-2L52,80.75l.3.32c4,4.22,9.71,4.22,13.67,0l.57-.61Z"/><path class="cls-7" d="M51,58.72s3.4,11.34,9.25,11.17c4.82-.14,6-10.76,6-10.76Z"/><path class="cls-5" d="M75.17,38.51A67.13,67.13,0,0,1,73.5,54.37C72.63,58.22,70,61,66.37,63.16l-.67.4a13.37,13.37,0,0,1-13,.34h0c-4.06-2.16-6.92-5-7.85-9.14a99,99,0,0,1-2-15.76s-1.52-17.29,15.9-17.25S75.17,38.51,75.17,38.51Z"/><polyline class="cls-6" points="57.71 47.53 57.74 50.03 59.45 50.02"/><path d="M45.79,38.67l9.2-.93s-.85-2.38-4.57-2S45.79,38.67,45.79,38.67Z"/><path d="M71.1,38.4l-9.21-.73s.8-2.4,4.52-2.05S71.1,38.4,71.1,38.4Z"/><path class="cls-7" d="M53,44.19a1.41,1.41,0,1,1-2.82,0,1.4,1.4,0,0,1,1.39-1.42A1.42,1.42,0,0,1,53,44.19Z"/><path class="cls-7" d="M66.83,44.05a1.41,1.41,0,1,1-2.82,0,1.41,1.41,0,0,1,2.82,0Z"/><path class="cls-8" d="M53.46,53.63s3.94,2.09,10.23-.11"/><path class="cls-3" d="M41.55,35.59a31.07,31.07,0,0,1,8.63-2l.73-6.43,1.65,6.57h6.89l1.18-4.64,1.26,4.64,8.22.43,1-4.07.67,4.35,5.34.36s-3-14-15.7-15.28S40.61,27.8,41.55,35.59Z"/></g></g></svg>