<svg xmlns="http://www.w3.org/2000/svg" xmlns:xlink="http://www.w3.org/1999/xlink" viewBox="0 0 117.33 117.33"><defs><style>.cls-1{fill:#f7d8ba;}.cls-2{clip-path:url(#clip-path);}.cls-3{fill:#d3445b;}.cls-4{fill:#e8b499;}.cls-5{fill:#1e0b02;}.cls-10,.cls-6,.cls-8{fill:none;}.cls-6{stroke:#c47268;stroke-width:0.69px;}.cls-6,.cls-8{stroke-linecap:round;stroke-linejoin:round;}.cls-7,.cls-9{fill:#fff;}.cls-8{stroke:#1e0b02;stroke-width:0.96px;}.cls-9{opacity:0.23;}.cls-10{stroke:#fff;stroke-miterlimit:10;stroke-width:0.49px;}</style><clipPath id="clip-path"><circle class="cls-1" cx="58.67" cy="58.67" r="56.54" transform="translate(-11.66 102.68) rotate(-77.04)"/></clipPath></defs><g id="OBJECTS"><circle class="cls-1" cx="58.67" cy="58.67" r="56.54" transform="translate(-11.66 102.68) rotate(-77.04)"/><g class="cls-2"><path class="cls-3" d="M36.58,83.09l-2.41,30.66H14.72c2-4.76,4.41-10.49,6.6-16.11,4.93-12.7,14.29-14.4,15.19-14.54Z"/><path class="cls-3" d="M106.09,113.75h-20l-3.2-31h0c.66.08,11.06,1.71,16.43,14.89C101.76,103.54,104.15,109.23,106.09,113.75Z"/><path class="cls-3" d="M88.12,113.75,58.67,119.6,32.6,113.75l.09-29a17.56,17.56,0,0,1,3.82-1.68,34.08,34.08,0,0,1,6.35-1.31l17.48,1.76,17.48-1.76a34.18,34.18,0,0,1,5.08.95h0a19.09,19.09,0,0,1,5,2Z"/><path class="cls-4" d="M36.58,83.09l20.6-5.42h7.1l18.63,5.07h0C73.38,91.67,49.74,99,37.64,83.5Z"/><path class="cls-5" d="M90.39,64.23a13.25,13.25,0,0,1,.34-4.86,21.59,21.59,0,0,0-4.49-19.82c-3.8-4.59-4.75-11.38-4.75-11.38h0C78.7,19,69.25,12.6,60.65,12.6s-18,6-20.82,15.21h0s-1.26,7.27-4.77,11.74C31,44.72,28.48,51.4,30.56,59.37a13.25,13.25,0,0,1,.34,4.86,6.64,6.64,0,0,1-1.16,3.32H91.55A6.74,6.74,0,0,1,90.39,64.23Z"/><path class="cls-4" d="M49.93,46.75a6.05,6.05,0,1,1-6.22-5.88A6.06,6.06,0,0,1,49.93,46.75Z"/><path class="cls-6" d="M40.45,46.07s2.4-1.18,4.69,3"/><path class="cls-4" d="M72,46.92a6,6,0,1,0,6-6.05A6.05,6.05,0,0,0,72,46.92Z"/><path class="cls-6" d="M81.48,46s-2.44-1.1-4.61,3.14"/><circle class="cls-5" cx="60.81" cy="35.39" r="19"/><path class="cls-4" d="M66.82,59a14.47,14.47,0,0,1-5,3c-2.38.59-4.71-1.22-4.74-1.24l-2.79-2.09L53.16,78.57l.31.33c4.06,4.36,9.9,4.42,14,.15l.59-.63Z"/><path class="cls-5" d="M52.4,56s3.35,11.63,9.35,11.52C66.68,67.45,68,56.6,68,56.6Z"/><path class="cls-4" d="M77.31,35.6a69.19,69.19,0,0,1-1.87,16.22c-.93,3.93-3.61,6.68-7.39,8.91l-.69.41a13.71,13.71,0,0,1-13.29.2h0c-4.13-2.25-7-5.23-7.93-9.43a101.31,101.31,0,0,1-1.87-16.14S42.89,18.06,60.71,18.29,77.31,35.6,77.31,35.6Z"/><polyline class="cls-6" points="59.36 45.3 59.36 47.89 61.11 47.89"/><path d="M47.25,35.46l9.43-.85s-.85-2.44-4.66-2S47.25,35.46,47.25,35.46Z"/><path d="M73.15,35.46l-9.42-.85s.85-2.44,4.66-2S73.15,35.46,73.15,35.46Z"/><path class="cls-7" d="M55.09,50.28H65.38S65,53,60.05,53C56,53,55.09,50.28,55.09,50.28Z"/><path class="cls-8" d="M55.57,41.81s-2.44-2-4.58,0"/><path class="cls-8" d="M69.34,41.81a3.18,3.18,0,0,0-4.46,0"/><path class="cls-9" d="M51,35.3l6.91,9.37s-2.09,4-5.4,3.54l-7-9.15S47.42,35,51,35.3Z"/><path class="cls-9" d="M68,35.3l6.9,9.37s-2.08,4-5.4,3.54l-7-9.15S64.41,35,68,35.3Z"/><path class="cls-10" d="M58.45,41.81a6.75,6.75,0,1,1-6.75-6.75A6.75,6.75,0,0,1,58.45,41.81Z"/><path class="cls-10" d="M75.46,41.81a6.76,6.76,0,1,1-6.75-6.75A6.75,6.75,0,0,1,75.46,41.81Z"/><path class="cls-10" d="M58.45,41.81a5.27,5.27,0,0,1,3.5,0"/><path class="cls-5" d="M42.55,31.58s15.89-3,19.17-14.88C61.72,16.7,44.82,10.7,42.55,31.58Z"/><path class="cls-5" d="M77.31,31.58s-15.88-3-19.16-14.88C58.15,16.7,75.05,10.7,77.31,31.58Z"/></g></g></svg>