<svg xmlns="http://www.w3.org/2000/svg" xmlns:xlink="http://www.w3.org/1999/xlink" viewBox="0 0 117.33 117.33"><defs><style>.cls-1{fill:#f7d8ba;}.cls-2,.cls-7,.cls-9{fill:none;}.cls-3{clip-path:url(#clip-path);}.cls-4{fill:#d46919;}.cls-5{fill:#fff;}.cls-6{fill:#e0a78f;}.cls-7{stroke:#b9635e;}.cls-7,.cls-9{stroke-linecap:round;stroke-linejoin:round;stroke-width:0.66px;}.cls-8{fill:#1e0b02;}.cls-9{stroke:#000;}.cls-10{clip-path:url(#clip-path-2);}.cls-11{fill:#ef758d;stroke:#ef758d;stroke-miterlimit:10;}</style><clipPath id="clip-path"><circle class="cls-1" cx="58.67" cy="58.67" r="56.54" transform="translate(-11.49 102.96) rotate(-77.27)"/></clipPath><clipPath id="clip-path-2"><path class="cls-2" d="M100.82,92.57c-1.76-4.74-7-10.91-17.06-12.9l-.34.25C70.92,89,54.1,88.59,41.51,79.65l.63-.21c-10.85,1.72-16.44,8.2-18.27,13.13l-4.24,19.32h85.43Z"/></clipPath></defs><g id="OBJECTS"><circle class="cls-1" cx="58.67" cy="58.67" r="56.54" transform="translate(-11.49 102.96) rotate(-77.27)"/><g class="cls-3"><path class="cls-4" d="M41.79,30.06S39.23,44.63,21.7,55.21c-18.69,11.28-8,47.11,24.69,47.9C81.94,104,100,59.55,79.46,23.28Z"/><path class="cls-5" d="M100.82,92.42c-1.83-4.88-7.42-11.29-18.27-13l-20.21-4-20.2,4c-10.85,1.7-16.44,8.11-18.27,13l-4.24,19.12H38.17l1.36,1.55L62,117.52l23.13-6h19.9Z"/><path class="cls-6" d="M41.51,79.64,63.42,75.2l20.45,4.38-.45.33c-12.5,9-29.32,8.58-41.91-.27Z"/><path class="cls-6" d="M51.41,47.22a5.91,5.91,0,1,1-6.13-5.68A5.9,5.9,0,0,1,51.41,47.22Z"/><path class="cls-7" d="M42.14,46.65s2.34-1.17,4.62,2.9"/><path class="cls-6" d="M73,47.17a5.92,5.92,0,1,0,5.85-6A5.92,5.92,0,0,0,73,47.17Z"/><path class="cls-7" d="M82.25,46.15s-2.39-1.06-4.48,3.11"/><ellipse class="cls-4" cx="61.9" cy="32.89" rx="20.35" ry="18.99" transform="translate(-0.34 0.64) rotate(-0.59)"/><path class="cls-6" d="M68,59a14.13,14.13,0,0,1-4.86,3c-2.33.6-4.62-1.14-4.64-1.16l-2.75-2-.9,19.48.31.32c4,4.22,9.71,4.22,13.66,0l.58-.61Z"/><path class="cls-8" d="M53.92,56.27s3.4,11.34,9.25,11.17c4.82-.14,6-10.76,6-10.76Z"/><path class="cls-6" d="M78.07,36.05A67.16,67.16,0,0,1,76.4,51.92c-.87,3.85-3.46,6.58-7.13,8.79l-.67.4a13.37,13.37,0,0,1-13,.34h0c-4.06-2.16-6.92-5-7.85-9.14a99,99,0,0,1-2-15.76S44.25,19.26,61.67,19.3,78.07,36.05,78.07,36.05Z"/><polyline class="cls-7" points="60.61 45.08 60.64 47.58 62.34 47.56"/><path class="cls-4" d="M48.69,36.21l9.2-.92s-.85-2.38-4.57-1.95S48.69,36.21,48.69,36.21Z"/><path class="cls-4" d="M74,36l-9.22-.73s.8-2.4,4.53-2S74,36,74,36Z"/><path class="cls-8" d="M55.9,41.74a1.42,1.42,0,0,1-1.4,1.43,1.41,1.41,0,1,1,1.4-1.43Z"/><path class="cls-8" d="M69.73,41.6a1.41,1.41,0,1,1-1.43-1.39A1.4,1.4,0,0,1,69.73,41.6Z"/><path class="cls-9" d="M56.36,51.18s3.94,2.09,10.23-.11"/><path class="cls-4" d="M78,32.12S52.4,33.35,53.33,18.3C53.33,18.3,75.6,11.74,78,32.12Z"/><path class="cls-4" d="M45.35,32.47s9-3.86,8.87-13.09C54.22,19.38,45,20.54,45.35,32.47Z"/><g class="cls-10"><line class="cls-11" x1="17.18" y1="81.78" x2="106.89" y2="81.78"/><line class="cls-11" x1="17.18" y1="86.47" x2="106.89" y2="86.47"/><line class="cls-11" x1="17.18" y1="91.15" x2="106.89" y2="91.15"/><line class="cls-11" x1="17.18" y1="95.84" x2="106.89" y2="95.84"/><line class="cls-11" x1="17.18" y1="100.52" x2="106.89" y2="100.52"/><line class="cls-11" x1="17.18" y1="105.2" x2="106.89" y2="105.2"/><line class="cls-11" x1="17.18" y1="109.89" x2="106.89" y2="109.89"/><line class="cls-11" x1="17.18" y1="114.57" x2="106.89" y2="114.57"/></g></g></g></svg>