<svg xmlns="http://www.w3.org/2000/svg" xmlns:xlink="http://www.w3.org/1999/xlink" viewBox="0 0 117.33 117.33"><defs><style>.cls-1{fill:#f7d8ba;}.cls-2{clip-path:url(#clip-path);}.cls-3{fill:#fff;}.cls-4{fill:#1e0b02;}.cls-5{fill:#c67d69;}.cls-6{fill:none;stroke:#a8523f;stroke-linecap:round;stroke-linejoin:round;stroke-width:0.75px;}</style><clipPath id="clip-path"><circle class="cls-1" cx="58.67" cy="58.67" r="56.54" transform="translate(-24.3 58.67) rotate(-45)"/></clipPath></defs><g id="OBJECTS"><circle class="cls-1" cx="58.67" cy="58.67" r="56.54" transform="translate(-24.3 58.67) rotate(-45)"/><g class="cls-2"><path class="cls-3" d="M114.11,118.21H5c5-22.58,18.53-27.09,18.53-27.09L49.57,79l9.86-.09h.27l9.87.09,26,12.17S109.08,95.63,114.11,118.21Z"/><path class="cls-4" d="M65.52,14.09s9.08-4.05,12.3,3.6c3.1,7.37-9.21,14.38-9.21,14.38Z"/><path class="cls-5" d="M48.54,44.62a6.16,6.16,0,1,1-6.33-6A6.15,6.15,0,0,1,48.54,44.62Z"/><path class="cls-6" d="M38.89,43.93s2.45-1.19,4.78,3.06"/><circle class="cls-5" cx="77.2" cy="44.79" r="6.16"/><path class="cls-6" d="M80.67,43.83S78.19,42.71,76,47"/><path class="cls-5" d="M67.69,59a20.85,20.85,0,0,1-6.64,3.06,10.08,10.08,0,0,1-6.28-1.26l-3.69-2.12L49.56,79l.41.33a14.68,14.68,0,0,0,18.53.13l.8-.64Z"/><path class="cls-4" d="M49.56,56.53S53,67.83,61,67.71c6.53-.1,7.58-11.18,7.58-11.18Z"/><path class="cls-5" d="M76.43,34.07a77.2,77.2,0,0,1-1.9,17.25c-1,4.18-3.68,7.11-7.53,9.48l-.7.43a13.42,13.42,0,0,1-13.53.22h0c-4.2-2.4-7.15-5.57-8.08-10a112.87,112.87,0,0,1-1.91-17.17S40.42,15.4,58.56,15.65,76.43,34.07,76.43,34.07Z"/><circle class="cls-4" cx="51.78" cy="39.59" r="1.47"/><circle class="cls-4" cx="66.18" cy="39.59" r="1.47"/><polyline class="cls-6" points="57.65 41.74 57.65 45.79 60.27 45.79"/><path d="M46.31,33.39l9.59-.87S55,30,51.16,30.44,46.31,33.39,46.31,33.39Z"/><path d="M71,33.39l-9.6-.87s.86-2.48,4.74-2.08S71,33.39,71,33.39Z"/><path class="cls-3" d="M54.37,49.14h9.46S63.39,52,59,52,54.37,49.14,54.37,49.14Z"/><path class="cls-4" d="M43.4,43.15s2.69-20.37,1.37-23.73C44.77,19.42,35.64,27,43.4,43.15Z"/><path class="cls-4" d="M75.74,43s-3-19.46-2.18-25C73.56,17.94,82.38,25.75,75.74,43Z"/><path class="cls-4" d="M72.92,16.55l-8.36-1.27-.74-1.44-4.41.66L55,13.84l-.73,1.44-8.37,1.27L44.77,21l.28,5.16S46.37,20.33,51,21.5c1.09.27,2.39.73,3.91,1A21.32,21.32,0,0,0,59,23h.92a21.22,21.22,0,0,0,4.05-.48,29.33,29.33,0,0,0,3.91-1c4.27-1.49,5.85,4.42,5.85,4.42L74,21Z"/><path class="cls-4" d="M72.76,21.64a11.12,11.12,0,0,1-12.41,1.13s-17.74,10.92-22.74-1c-4.18-9.92,13.15-23.37,31-8.21Z"/><path class="cls-5" d="M49.56,79l-5.81,2.67s-.06,9.74,15.73,9.24c16.2-.52,16.1-9.1,16.1-9.1l-6.28-3Z"/></g></g></svg>