<svg xmlns="http://www.w3.org/2000/svg" xmlns:xlink="http://www.w3.org/1999/xlink" viewBox="0 0 117.33 117.33"><defs><style>.cls-1{fill:#f7d8ba;}.cls-2{clip-path:url(#clip-path);}.cls-3{fill:#1e0b02;}.cls-4{fill:#e8b499;}.cls-5,.cls-8{fill:none;}.cls-5{stroke:#c47268;stroke-linecap:round;stroke-linejoin:round;stroke-width:0.69px;}.cls-6{fill:#fff;}.cls-7{fill:#ef758d;}.cls-8{stroke:#fff;stroke-miterlimit:10;stroke-width:1.94px;}</style><clipPath id="clip-path"><circle class="cls-1" cx="58.67" cy="58.67" r="56.54" transform="translate(-11.49 102.96) rotate(-77.27)"/></clipPath></defs><g id="OBJECTS"><circle class="cls-1" cx="58.67" cy="58.67" r="56.54" transform="translate(-11.49 102.96) rotate(-77.27)"/><g class="cls-2"><path class="cls-3" d="M47.39,10.54S55.33-.21,69.4,7c15.43,7.86,7.09,24.8,7.09,24.8L43.34,25.49Z"/><path class="cls-3" d="M40.76,31.86s-8.68-17,6.63-21.32l2.75,9.14Z"/><path class="cls-4" d="M48.11,39.72a6.16,6.16,0,1,1-6.33-6A6.16,6.16,0,0,1,48.11,39.72Z"/><path class="cls-5" d="M38.45,39s2.45-1.2,4.79,3.06"/><path class="cls-4" d="M70.6,39.89a6.17,6.17,0,1,0,6.17-6.16A6.16,6.16,0,0,0,70.6,39.89Z"/><path class="cls-5" d="M80.24,38.93s-2.48-1.13-4.7,3.19"/><path class="cls-4" d="M67.26,54.09a20.69,20.69,0,0,1-6.64,3,10.11,10.11,0,0,1-6.28-1.25l-3.69-2.13L49.13,74l.41.34a14.68,14.68,0,0,0,18.53.13l.8-.64Z"/><path class="cls-3" d="M49.13,51.63s3.45,11.3,11.4,11.18c6.53-.11,7.58-11.18,7.58-11.18Z"/><path class="cls-4" d="M76,29.17a75.94,75.94,0,0,1-1.9,17.24c-1,4.19-4.62,7.12-8.48,9.49l-.7.43c-4.08,2.5-7.45,2.59-11.62.21h0c-4.2-2.39-8.1-5.56-9-10a112.68,112.68,0,0,1-1.91-17.16S40,10.5,58.13,10.75,76,29.17,76,29.17Z"/><path class="cls-3" d="M52.82,34.69a1.47,1.47,0,1,1-1.47-1.47A1.47,1.47,0,0,1,52.82,34.69Z"/><path class="cls-3" d="M67.22,34.69a1.47,1.47,0,1,1-1.47-1.47A1.47,1.47,0,0,1,67.22,34.69Z"/><polyline class="cls-5" points="57.22 38.53 57.22 40.88 59.12 40.88"/><path d="M45.88,28.49l9.59-.87s-.86-2.49-4.74-2.08S45.88,28.49,45.88,28.49Z"/><path d="M70.6,28.49,61,27.62s.86-2.49,4.74-2.08S70.6,28.49,70.6,28.49Z"/><path class="cls-6" d="M53.93,44.24H63.4s-.45,2.9-4.87,2.9S53.93,44.24,53.93,44.24Z"/><path class="cls-3" d="M43,38.25s.71-23.07.42-23.73C43.39,14.52,35.2,22.08,43,38.25Z"/><path class="cls-3" d="M75.31,38.09,74.08,13S82,20.85,75.31,38.09Z"/><path class="cls-3" d="M50.56,12.48S44.93,14,45.13,19.53s-3.55,11-3.55,11L39.87,25S38.55,14.67,50.56,12.48Z"/><path class="cls-3" d="M49.14,12.93s4.22-2.39,8.4,2.87c3.57,4.5,13,9.12,18.57,4.72,0,0-3.55-12.72-17.41-12.46S49.14,12.93,49.14,12.93Z"/><path class="cls-7" d="M106.51,116.8H11.11c1.74-7.22,3.53-13.64,5.3-18.64C19,90.78,22.8,86.46,25.92,84a16.54,16.54,0,0,1,5.57-3.09l6.62-2.77,41.88,0,6.14,2.73S96,83.39,101.21,98.16C103,103.16,104.77,109.58,106.51,116.8Z"/><path class="cls-4" d="M59.55,69.31,80,78.17s-21,19-41.88,0Z"/><path class="cls-8" d="M38.11,78.13A28.45,28.45,0,0,0,59,86.74a28.87,28.87,0,0,0,21-8.57"/></g></g></svg>