<svg id="레이어_1" data-name="레이어 1" xmlns="http://www.w3.org/2000/svg" viewBox="0 0 123.17 112"><defs><style>.cls-1{fill:#006fb5;}.cls-2{fill:#aa7a49;}.cls-3{fill:#f18a44;}.cls-4{fill:#00af95;}.cls-5{fill:#f8b957;}.cls-6{fill:#00afc7;}.cls-7{fill:none;stroke:#231815;stroke-linecap:round;stroke-linejoin:round;stroke-width:2px;}</style></defs><polyline class="cls-1" points="97.17 67.43 118.04 67.43 118.04 106.29 6.66 106.29 6.66 67.43 66.51 67.43"/><polyline class="cls-2" points="68.89 94.73 65.8 86.35 100.32 86.35 96.95 94.73"/><polyline class="cls-3" points="85.33 78.98 101.08 78.98 84.54 33.65"/><polyline class="cls-4" points="84.54 33.65 60.53 78.98 85.33 78.98"/><circle class="cls-5" cx="41.6" cy="22.29" r="16.38"/><path class="cls-6" d="M48.22,29.94a7.13,7.13,0,0,0-5.39-5.42,7.84,7.84,0,0,0-2.09-.15,4.17,4.17,0,0,0-5.3-2.17,8.4,8.4,0,0,0-13.63.33,4.07,4.07,0,0,0-1-.13,4.18,4.18,0,0,0-3.63,2.12,7.32,7.32,0,0,0-2.65-.09,7.16,7.16,0,0,0,.71,14.22v0H41.5A7.17,7.17,0,0,0,48.22,29.94Z"/><polyline class="cls-7" points="97.17 67.43 118.04 67.43 118.04 106.29 6.66 106.29 6.66 67.43 66.51 67.43"/><path class="cls-7" d="M25.38,19A16.38,16.38,0,1,1,41.44,38.67"/><path class="cls-7" d="M48.22,29.94a7.13,7.13,0,0,0-5.39-5.42,7.84,7.84,0,0,0-2.09-.15,4.17,4.17,0,0,0-5.3-2.17,8.4,8.4,0,0,0-13.63.33,4.07,4.07,0,0,0-1-.13,4.18,4.18,0,0,0-3.63,2.12,7.32,7.32,0,0,0-2.65-.09,7.16,7.16,0,0,0,.71,14.22v0H41.5A7.17,7.17,0,0,0,48.22,29.94Z"/><polygon class="cls-7" points="84.54 33.65 60.53 78.98 101.08 78.98 84.54 33.65"/><line class="cls-7" x1="84.54" y1="33.65" x2="84.54" y2="86.35"/><line class="cls-7" x1="105.91" y1="94.73" x2="60.21" y2="94.73"/><polyline class="cls-7" points="68.89 94.73 65.8 86.35 100.32 86.35 96.95 94.73"/><line class="cls-7" x1="52.34" y1="81.52" x2="45.48" y2="81.52"/><line class="cls-7" x1="39.07" y1="89.14" x2="32.21" y2="89.14"/><line class="cls-7" x1="24.28" y1="96.51" x2="17.42" y2="96.51"/><line class="cls-7" x1="29.29" y1="78.1" x2="22.44" y2="78.1"/><path class="cls-7" d="M45.66,11.27a11.84,11.84,0,0,1,6.68,6.51"/></svg>