<svg id="icon" xmlns="http://www.w3.org/2000/svg" viewBox="0 0 40.76 37.78"><defs><style>.cls-1,.cls-2{fill:none;stroke:#fff;stroke-linecap:round;stroke-linejoin:round;}.cls-2{stroke-width:0.5px;}.cls-3{fill:#fff;}</style></defs><path class="cls-1" d="M6.41,34.27,3.88,36.38A39.4,39.4,0,0,1,6.41,1.21"/><path class="cls-1" d="M6.41,34.27,9,36.38S17.52,16.49,6.41,1.21"/><line class="cls-2" x1="6.41" y1="25.87" x2="6.41" y2="34.27"/><line class="cls-2" x1="6.41" y1="1.21" x2="6.41" y2="19.8"/><line class="cls-2" x1="1.15" y1="25.87" x2="11.71" y2="25.87"/><path class="cls-2" d="M1.13,23.77a1,1,0,0,0,1.19-.2c.47-.55-.45-.69-.45-.69A.94.94,0,0,1,3,22.62c.66.32,1.27,1.4,2.14,1.12.4-.13.67-.76,0-1a1,1,0,0,1,1.35-.13c.86.5,1.36,1.44,2.13,1.11a.56.56,0,0,0-.23-1,.78.78,0,0,1,1-.28c.43.18,1.2,1.28,2.32,1.26"/><path class="cls-2" d="M1.13,21.21A1,1,0,0,0,2.32,21c.47-.55-.45-.69-.45-.69A.93.93,0,0,1,3,20.07c.66.31,1.27,1.39,2.14,1.11a.51.51,0,0,0,0-1,1,1,0,0,1,1.35-.12c.86.49,1.36,1.43,2.13,1.1a.56.56,0,0,0-.23-1,.78.78,0,0,1,1-.28c.43.18,1.2,1.28,2.32,1.26"/><path class="cls-1" d="M34.08,34.27l-2.54,2.11A39.39,39.39,0,0,1,34.08,1.21"/><path class="cls-1" d="M34.08,34.27l2.53,2.11s8.57-19.89-2.53-35.17"/><line class="cls-2" x1="34.08" y1="25.87" x2="34.08" y2="34.27"/><line class="cls-2" x1="34.08" y1="1.21" x2="34.08" y2="19.8"/><line class="cls-2" x1="28.81" y1="25.87" x2="39.38" y2="25.87"/><path class="cls-2" d="M28.79,23.77a1,1,0,0,0,1.19-.2c.47-.55-.45-.69-.45-.69a.94.94,0,0,1,1.12-.26c.66.32,1.28,1.4,2.15,1.12a.51.51,0,0,0,0-1,1,1,0,0,1,1.34-.13c.86.5,1.36,1.44,2.13,1.11a.56.56,0,0,0-.23-1,.78.78,0,0,1,1-.28c.43.18,1.2,1.28,2.32,1.26"/><path class="cls-2" d="M28.79,21.21A1,1,0,0,0,30,21c.47-.55-.45-.69-.45-.69a.93.93,0,0,1,1.12-.25c.66.31,1.28,1.39,2.15,1.11a.51.51,0,0,0,0-1,1,1,0,0,1,1.34-.12c.86.49,1.36,1.43,2.13,1.1a.56.56,0,0,0-.23-1,.78.78,0,0,1,1-.28c.43.18,1.2,1.28,2.32,1.26"/><path class="cls-3" d="M25.63,23.89l-.1.05h-.05a3.07,3.07,0,0,1-1.94-1,2.14,2.14,0,0,0-.43-.33.64.64,0,0,0-.45,0,.84.84,0,0,1,.28.52.78.78,0,0,1-.4.8c-.66.28-1.15-.15-1.63-.56a4.55,4.55,0,0,0-.73-.56.85.85,0,0,0-.77-.11.65.65,0,0,1,.21.49A.84.84,0,0,1,19,24c-.71.23-1.27-.27-1.72-.67a2.87,2.87,0,0,0-.61-.46.66.66,0,0,0-.47,0,.64.64,0,0,1,.26.3.59.59,0,0,1-.16.62,1.08,1.08,0,0,1-.87.4A1.46,1.46,0,0,1,14.9,24c0,.55.11,1.09.17,1.61H25.42C25.5,25.06,25.57,24.48,25.63,23.89Z"/><path class="cls-3" d="M20.5,19.8s0,0,0,.07a5,5,0,0,1,.78.59c.48.42.75.63,1.1.48a.3.3,0,0,0,.1-.28.29.29,0,0,0-.27-.26.3.3,0,0,1-.19-.14A.26.26,0,0,1,22,20a1,1,0,0,1,1.31-.39,2.39,2.39,0,0,1,.57.41,2.47,2.47,0,0,0,1.65.83.25.25,0,0,1,.26.24.26.26,0,0,1-.25.26h-.05a3.07,3.07,0,0,1-1.94-.95,1.71,1.71,0,0,0-.43-.32.6.6,0,0,0-.45,0,.84.84,0,0,1,.28.52.78.78,0,0,1-.4.8c-.65.28-1.15-.15-1.63-.56a4.55,4.55,0,0,0-.73-.56.88.88,0,0,0-.77-.11.65.65,0,0,1,.21.49.83.83,0,0,1-.58.76c-.71.23-1.27-.27-1.72-.67a2.87,2.87,0,0,0-.61-.46.61.61,0,0,0-.47,0,.64.64,0,0,1,.26.3.59.59,0,0,1-.16.62,1.08,1.08,0,0,1-.87.4,1.64,1.64,0,0,1-.62-.13.35.35,0,0,1-.11-.13c0,.77.07,1.52.12,2.24a.22.22,0,0,1,.21,0,.77.77,0,0,0,.89-.14c.07-.08.07-.12.07-.12a.58.58,0,0,0-.37-.16.26.26,0,0,1-.19-.16.25.25,0,0,1,0-.25,1.2,1.2,0,0,1,1.42-.32,3.06,3.06,0,0,1,.73.54c.48.42.83.69,1.24.56a.34.34,0,0,0,.23-.29c0-.12-.13-.18-.24-.22a.26.26,0,0,1-.15-.17.22.22,0,0,1,0-.22,1.25,1.25,0,0,1,1.66-.19,5.35,5.35,0,0,1,.81.61c.48.42.75.63,1.1.48a.3.3,0,0,0,.1-.28.28.28,0,0,0-.27-.26.3.3,0,0,1-.19-.14.29.29,0,0,1,0-.24,1,1,0,0,1,1.31-.38,2.39,2.39,0,0,1,.57.41,2.47,2.47,0,0,0,1.65.83h0a.24.24,0,0,1,.15.06c.69-6.8.21-15.2-4.2-22.38a1.3,1.3,0,0,0-1-.61Z"/><path class="cls-3" d="M20,26.12H15.14a46.82,46.82,0,0,0,2.11,9.06.92.92,0,0,0,1.44.39L20,34.48Z"/><path class="cls-3" d="M14.74,21.1a.25.25,0,0,1,.33-.11.77.77,0,0,0,.89-.14c.07-.08.07-.12.07-.12a.58.58,0,0,0-.37-.16.26.26,0,0,1-.19-.16.25.25,0,0,1,0-.25,1.19,1.19,0,0,1,1.42-.32,3.06,3.06,0,0,1,.73.54c.48.43.83.69,1.24.56a.33.33,0,0,0,.23-.29c0-.12-.13-.18-.24-.22a.26.26,0,0,1-.15-.17.22.22,0,0,1,0-.22A1.2,1.2,0,0,1,20,19.67V.55a1.29,1.29,0,0,0-.83.66,40.5,40.5,0,0,0-4.43,19.92S14.73,21.11,14.74,21.1Z"/><path class="cls-3" d="M20.5,26.12v8.36l1.27,1.07a.91.91,0,0,0,1.45-.41,57.44,57.44,0,0,0,2.12-9Z"/></svg>