<svg id="icon" xmlns="http://www.w3.org/2000/svg" viewBox="0 0 50 50"><defs><style>.cls-1{fill:#f2f2f2;}.cls-2,.cls-3{fill:none;stroke-linecap:round;stroke-linejoin:round;}.cls-2{stroke:#fff;stroke-width:0.5px;}.cls-3{stroke:#000;}</style></defs><circle class="cls-1" cx="25" cy="25" r="22.1"/><circle class="cls-2" cx="25" cy="25" r="19.28"/><rect class="cls-3" x="17.18" y="12.83" width="15.64" height="24.34" rx="2.3"/><line class="cls-3" x1="24.17" y1="14.76" x2="25.83" y2="14.76"/><circle class="cls-3" cx="25" cy="34.65" r="0.83"/><path class="cls-3" d="M23.85,20.65h0a.85.85,0,0,0,1.27.05h0a.86.86,0,0,1,1.47.69h0a.86.86,0,0,0,.87.94h0A.87.87,0,0,1,28,23.86h0A.86.86,0,0,0,28,25.13h0a.86.86,0,0,1-.69,1.47h0a.86.86,0,0,0-.94.86h0A.86.86,0,0,1,24.8,28h0A.86.86,0,0,0,23.52,28h0a.86.86,0,0,1-1.47-.69h0a.86.86,0,0,0-.86-.94h0a.86.86,0,0,1-.55-1.52h0a.87.87,0,0,0,.06-1.28h0a.86.86,0,0,1,.68-1.47h0a.85.85,0,0,0,.94-.86h0A.86.86,0,0,1,23.85,20.65Z"/><path class="cls-3" d="M24.33,22.93c.35-.13.47.19.82.06s.24-.45.59-.58.47.19.82.07.24-.45.59-.58.47.19.82.07.24-.45.59-.58.47.19.83.06.24-.45.59-.58"/><path class="cls-3" d="M24.77,24.13c.35-.12.47.2.82.07s.24-.45.59-.58.47.19.82.07.23-.45.59-.58.46.19.82.06.24-.44.59-.57.47.19.83.06.24-.45.59-.58"/><path class="cls-3" d="M25.24,25.45c.36-.13.47.19.82.06s.24-.45.59-.57.47.19.82.06.24-.45.59-.58.47.2.83.07.23-.45.59-.58.47.19.82.06.24-.45.6-.57"/><line class="cls-3" x1="17.51" y1="16.84" x2="32.68" y2="16.84"/><line class="cls-3" x1="17.51" y1="32.27" x2="32.68" y2="32.27"/></svg>