<svg id="icon" xmlns="http://www.w3.org/2000/svg" viewBox="0 0 50 50"><defs><style>.cls-1{fill:#f2f2f2;}.cls-2,.cls-3,.cls-4{fill:none;stroke-linecap:round;}.cls-2{stroke:#fff;stroke-width:0.5px;}.cls-2,.cls-4{stroke-linejoin:round;}.cls-3,.cls-4{stroke:#000;}.cls-3{stroke-miterlimit:10;}</style></defs><circle class="cls-1" cx="25" cy="25" r="22.1"/><circle class="cls-2" cx="25" cy="25" r="19.28"/><line class="cls-3" x1="11.11" y1="35.03" x2="38.89" y2="35.03"/><path class="cls-3" d="M12.68,35s2.67-12.88,8-12.88"/><path class="cls-3" d="M28.69,35s-2.67-12.88-8-12.88"/><path class="cls-3" d="M15.7,26.42s.78,2.54,2.39,2,1-2,2.43-2"/><path class="cls-3" d="M25.34,26.42s-.77,2.54-2.38,2-1-2-2.44-2"/><path class="cls-3" d="M23.47,20s.7,2.3,2.16,1.81S26.53,20,27.84,20"/><path class="cls-3" d="M32.21,20s-.71,2.3-2.17,1.81S29.15,20,27.84,20"/><path class="cls-3" d="M35.16,27.19c.63,2.3,1.23,4.92,1.79,7.84"/><path class="cls-3" d="M22.71,22.4S24.15,15,28,15c2.14,0,4.29,3.08,6.23,9"/><path class="cls-4" d="M21.65,17.61h-.83a.94.94,0,0,0-.92-.85H19a.94.94,0,0,0-.92.85h-.9a.93.93,0,0,0-.92.88h-.52a.94.94,0,0,0,0,1.88h4.5a.93.93,0,0,0,.92-.88h.52a.94.94,0,1,0,0-1.88Z"/><path class="cls-4" d="M37.32,25.25H35.83s0,0,0-.06a.94.94,0,0,0-.94-.94H34a.94.94,0,0,0-.93.94s0,0,0,.06h-.23a.94.94,0,0,0-.94.94h0a1,1,0,0,0,.94.94h4.5a.94.94,0,0,0,.93-.94h0A.94.94,0,0,0,37.32,25.25Z"/></svg>