<svg id="icon" xmlns="http://www.w3.org/2000/svg" viewBox="0 0 50 50"><defs><style>.cls-1{fill:#f2f2f2;}.cls-2,.cls-3,.cls-4{fill:none;stroke-linecap:round;stroke-linejoin:round;}.cls-2{stroke:#fff;stroke-width:0.5px;}.cls-3,.cls-4{stroke:#000;}.cls-4{stroke-width:0.7px;}</style></defs><circle class="cls-1" cx="25" cy="25" r="22.1"/><circle class="cls-2" cx="25" cy="25" r="19.28"/><polygon class="cls-3" points="19.06 34.98 13.12 31.95 13.12 16.24 19.06 19.27 19.06 34.98"/><polygon class="cls-3" points="19.06 34.98 25 31.95 25 16.24 19.06 19.27 19.06 34.98"/><polygon class="cls-3" points="30.94 34.98 25 31.95 25 16.24 30.94 19.27 30.94 34.98"/><polygon class="cls-3" points="30.94 34.98 36.88 31.95 36.88 16.24 30.94 19.27 30.94 34.98"/><path class="cls-4" d="M21.35,18.1s.59,5.72-3.09,7.2-5.14-1.54-5.14-1.54"/><path class="cls-4" d="M17.25,33.59s-1.25-3.06.14-3.83,3.77-2,5-3.62S24.54,26,24.54,26,21,32.79,18.47,34"/><path class="cls-4" d="M36.63,22.73s-2.35-1.67-5,2.39c0,0-3.46-.34-4,2.75a3.77,3.77,0,0,0,5.23,3.9,13.13,13.13,0,0,0,3.71-3.53"/><path class="cls-4" d="M30.51,21.4s-2.4-2.68-3.9-.34c-.5.78.74,1.43,1.95,1.06a2.76,2.76,0,0,1,2.29.46"/></svg>