<svg id="icon" xmlns="http://www.w3.org/2000/svg" viewBox="0 0 50 50"><defs><style>.cls-1{fill:#f2f2f2;}.cls-2,.cls-3{fill:none;stroke-linecap:round;stroke-linejoin:round;}.cls-2{stroke:#fff;stroke-width:0.5px;}.cls-3{stroke:#000;}</style></defs><circle class="cls-1" cx="25" cy="25" r="22.1"/><circle class="cls-2" cx="25" cy="25" r="19.28"/><circle class="cls-3" cx="16.91" cy="30.01" r="1.22"/><circle class="cls-3" cx="16.91" cy="30.01" r="3.07"/><circle class="cls-3" cx="31.85" cy="30.01" r="1.22"/><circle class="cls-3" cx="31.85" cy="30.01" r="3.07"/><line class="cls-3" x1="28.87" y1="29.8" x2="20.16" y2="29.8"/><path class="cls-3" d="M13.84,29.8H12.06a3.32,3.32,0,0,1-3.31-3.32h0a3.31,3.31,0,0,1,3.31-3.31H37.94a3.31,3.31,0,0,1,3.31,3.31h0a3.32,3.32,0,0,1-3.31,3.32H35.15"/><line class="cls-3" x1="8.75" y1="26.66" x2="11.57" y2="26.66"/><line class="cls-3" x1="38.99" y1="26.66" x2="41.08" y2="26.66"/><line class="cls-3" x1="25" y1="25.72" x2="26.29" y2="25.72"/><line class="cls-3" x1="22.45" y1="29.59" x2="22.45" y2="17.21"/><path class="cls-3" d="M12.65,23.17l3.28-4.78a3.87,3.87,0,0,1,2.69-1.46H28a3.92,3.92,0,0,1,3.21,1.74c1.39,1.88,3.38,4.5,3.38,4.5"/></svg>