<svg id="icon" xmlns="http://www.w3.org/2000/svg" viewBox="0 0 50 50"><defs><style>.cls-1{fill:#f2f2f2;}.cls-2,.cls-3{fill:none;stroke-linecap:round;}.cls-2{stroke:#fff;stroke-linejoin:round;stroke-width:0.5px;}.cls-3{stroke:#000;stroke-miterlimit:10;}</style></defs><circle class="cls-1" cx="25" cy="25" r="22.1"/><circle class="cls-2" cx="25" cy="25" r="19.28"/><path class="cls-3" d="M12.78,16.38a2,2,0,0,0,2.16,2.41H25.19"/><path class="cls-3" d="M37.59,16.38a2,2,0,0,1-2.15,2.41H25.19"/><path class="cls-3" d="M25.19,24.93H13.12a1.52,1.52,0,0,1-1.75-1.72c0-2,2.09-1.38,3.15-4.07"/><path class="cls-3" d="M24.81,24.93H36.88a1.52,1.52,0,0,0,1.75-1.72c0-2-2.09-1.38-3.15-4.07"/><path class="cls-3" d="M17.76,19.28a3.89,3.89,0,0,1-1.74,3"/><path class="cls-3" d="M21.75,19.28a3.9,3.9,0,0,1-1.73,3"/><path class="cls-3" d="M32.85,19.28a3.89,3.89,0,0,0,1.74,3"/><path class="cls-3" d="M28.86,19.28a3.9,3.9,0,0,0,1.73,3"/><line class="cls-3" x1="25.19" y1="22.51" x2="25.19" y2="19.28"/><line class="cls-3" x1="21.63" y1="33.62" x2="28.75" y2="33.62"/><polyline class="cls-3" points="14.03 25.18 14.03 31 36.28 31 36.28 25.32"/><line class="cls-3" x1="21.38" y1="25.18" x2="21.38" y2="33.62"/><line class="cls-3" x1="28.86" y1="25.18" x2="28.86" y2="33.62"/><line class="cls-3" x1="33.05" y1="31.47" x2="33.05" y2="33.62"/><line class="cls-3" x1="36.28" y1="29.3" x2="36.28" y2="33.62"/><line class="cls-3" x1="17.26" y1="31.47" x2="17.26" y2="33.62"/><line class="cls-3" x1="14.03" y1="29.3" x2="14.03" y2="33.62"/></svg>