<svg id="icon" xmlns="http://www.w3.org/2000/svg" viewBox="0 0 250 309.55"><defs><style>.cls-1{opacity:0.3;}.cls-2{fill:#231815;}</style></defs><g class="cls-1"><path class="cls-2" d="M313,10c-5.33,4.11-10.85,8.35-21.82,8.35S274.7,14.09,269.36,10c-5.14-4-10-7.69-19.87-7.69S234.76,6,229.62,10c-5.33,4.11-10.85,8.35-21.82,8.35S191.31,14.09,186,10c-5.14-4-10-7.69-19.87-7.69S151.38,6,146.24,10c-5.34,4.11-10.85,8.35-21.82,8.35S107.93,14.09,102.6,10c-5.14-4-10-7.69-19.87-7.69S68,6,62.86,10C57.53,14.09,52,18.33,41,18.33S24.56,14.09,19.22,10C14.08,6,9.23,2.29-.65,2.29S-15.38,6-20.52,10c-5.33,4.11-10.85,8.35-21.82,8.35S-58.82,14.09-64.16,10C-68.94,6.3-73.48,2.81-82,2.34V311.83h413V2.34C322.34,2.81,317.79,6.3,313,10Z"/></g></svg>